%TF.GenerationSoftware,KiCad,Pcbnew,7.0.7*%
%TF.CreationDate,2023-11-15T17:54:30+01:00*%
%TF.ProjectId,Nodo_ESP32_bresser,4e6f646f-5f45-4535-9033-325f62726573,rev?*%
%TF.SameCoordinates,Original*%
%TF.FileFunction,Soldermask,Bot*%
%TF.FilePolarity,Negative*%
%FSLAX46Y46*%
G04 Gerber Fmt 4.6, Leading zero omitted, Abs format (unit mm)*
G04 Created by KiCad (PCBNEW 7.0.7) date 2023-11-15 17:54:30*
%MOMM*%
%LPD*%
G01*
G04 APERTURE LIST*
G04 Aperture macros list*
%AMRoundRect*
0 Rectangle with rounded corners*
0 $1 Rounding radius*
0 $2 $3 $4 $5 $6 $7 $8 $9 X,Y pos of 4 corners*
0 Add a 4 corners polygon primitive as box body*
4,1,4,$2,$3,$4,$5,$6,$7,$8,$9,$2,$3,0*
0 Add four circle primitives for the rounded corners*
1,1,$1+$1,$2,$3*
1,1,$1+$1,$4,$5*
1,1,$1+$1,$6,$7*
1,1,$1+$1,$8,$9*
0 Add four rect primitives between the rounded corners*
20,1,$1+$1,$2,$3,$4,$5,0*
20,1,$1+$1,$4,$5,$6,$7,0*
20,1,$1+$1,$6,$7,$8,$9,0*
20,1,$1+$1,$8,$9,$2,$3,0*%
G04 Aperture macros list end*
%ADD10C,0.800000*%
%ADD11C,6.400000*%
%ADD12C,1.400000*%
%ADD13RoundRect,0.250000X-0.600000X-0.725000X0.600000X-0.725000X0.600000X0.725000X-0.600000X0.725000X0*%
%ADD14O,1.700000X1.950000*%
G04 APERTURE END LIST*
D10*
%TO.C,H3*%
X168543944Y-68808056D03*
X169246888Y-67111000D03*
X169246888Y-70505112D03*
X170943944Y-66408056D03*
D11*
X170943944Y-68808056D03*
D10*
X170943944Y-71208056D03*
X172641000Y-67111000D03*
X172641000Y-70505112D03*
X173343944Y-68808056D03*
%TD*%
%TO.C,H2*%
X168543944Y-106688944D03*
X169246888Y-104991888D03*
X169246888Y-108386000D03*
X170943944Y-104288944D03*
D11*
X170943944Y-106688944D03*
D10*
X170943944Y-109088944D03*
X172641000Y-104991888D03*
X172641000Y-108386000D03*
X173343944Y-106688944D03*
%TD*%
D12*
%TO.C,U1*%
X144701000Y-75112000D03*
X147241000Y-75112000D03*
X144701000Y-77652000D03*
X147241000Y-77652000D03*
X144701000Y-80192000D03*
X147241000Y-80192000D03*
X144701000Y-82732000D03*
X147241000Y-82732000D03*
X144701000Y-85272000D03*
X147241000Y-85272000D03*
X144701000Y-87812000D03*
X147241000Y-87812000D03*
X144701000Y-90352000D03*
X147241000Y-90352000D03*
X144701000Y-92892000D03*
X147241000Y-92892000D03*
X144701000Y-95432000D03*
X147241000Y-95432000D03*
X144701000Y-97972000D03*
X147241000Y-97972000D03*
X170101000Y-75112000D03*
X172641000Y-75112000D03*
X170101000Y-77652000D03*
X172641000Y-77652000D03*
X170101000Y-80192000D03*
X172641000Y-80192000D03*
X170101000Y-82732000D03*
X172641000Y-82732000D03*
X170101000Y-85272000D03*
X172641000Y-85272000D03*
X170101000Y-87812000D03*
X172641000Y-87812000D03*
X170101000Y-90352000D03*
X172641000Y-90352000D03*
X170101000Y-92892000D03*
X172641000Y-92892000D03*
X170101000Y-95432000D03*
X172641000Y-95432000D03*
X170101000Y-97972000D03*
X172641000Y-97972000D03*
%TD*%
D10*
%TO.C,H4*%
X115631000Y-68762000D03*
X116333944Y-67064944D03*
X116333944Y-70459056D03*
X118031000Y-66362000D03*
D11*
X118031000Y-68762000D03*
D10*
X118031000Y-71162000D03*
X119728056Y-67064944D03*
X119728056Y-70459056D03*
X120431000Y-68762000D03*
%TD*%
%TO.C,H1*%
X115631000Y-106735000D03*
X116333944Y-105037944D03*
X116333944Y-108432056D03*
X118031000Y-104335000D03*
D11*
X118031000Y-106735000D03*
D10*
X118031000Y-109135000D03*
X119728056Y-105037944D03*
X119728056Y-108432056D03*
X120431000Y-106735000D03*
%TD*%
D13*
%TO.C,J2*%
X126600000Y-101020000D03*
D14*
X129100000Y-101020000D03*
X131600000Y-101020000D03*
X134100000Y-101020000D03*
%TD*%
M02*
