M48
; DRILL file {KiCad 7.0.7} date Wed Nov 15 17:54:28 2023
; FORMAT={-:-/ absolute / inch / decimal}
; #@! TF.CreationDate,2023-11-15T17:54:28+01:00
; #@! TF.GenerationSoftware,Kicad,Pcbnew,7.0.7
; #@! TF.FileFunction,Plated,1,2,PTH
FMAT,2
INCH
; #@! TA.AperFunction,Plated,PTH,ViaDrill
T1C0.0157
; #@! TA.AperFunction,Plated,PTH,ComponentDrill
T2C0.0157
; #@! TA.AperFunction,Plated,PTH,ComponentDrill
T3C0.0197
; #@! TA.AperFunction,Plated,PTH,ComponentDrill
T4C0.0315
; #@! TA.AperFunction,Plated,PTH,ComponentDrill
T5C0.0374
; #@! TA.AperFunction,Plated,PTH,ComponentDrill
T6C0.1260
%
G90
G05
T1
X5.2369Y-3.5653
X5.2369Y-3.6422
X5.5369Y-3.7272
X5.5619Y-3.4072
T2
X4.8619Y-2.629
X4.9406Y-2.629
X4.9406Y-2.8258
X5.0194Y-2.629
X5.0194Y-2.8258
X5.0981Y-2.629
X5.0981Y-2.8258
X5.1769Y-2.629
X5.1769Y-2.8258
X5.2556Y-2.629
X5.2556Y-2.8258
X5.3343Y-2.629
X5.3343Y-2.8258
X5.4131Y-2.629
X5.4131Y-2.8258
X5.4918Y-2.629
X5.4918Y-2.8258
X5.5706Y-2.629
X5.5706Y-2.8258
T3
X4.5524Y-2.7072
X4.5524Y-4.2022
X4.5801Y-2.6404
X4.5801Y-2.774
X4.5801Y-4.1354
X4.5801Y-4.269
X4.6469Y-2.6127
X4.6469Y-2.8017
X4.6469Y-4.1077
X4.6469Y-4.2967
X4.7137Y-2.6404
X4.7137Y-2.774
X4.7137Y-4.1354
X4.7137Y-4.269
X4.7414Y-2.7072
X4.7414Y-4.2022
X6.6356Y-2.709
X6.6356Y-4.2004
X6.6633Y-2.6422
X6.6633Y-2.7758
X6.6633Y-4.1335
X6.6633Y-4.2672
X6.7301Y-2.6145
X6.7301Y-2.8035
X6.7301Y-4.1059
X6.7301Y-4.2948
X6.7969Y-2.6422
X6.7969Y-2.7758
X6.7969Y-4.1335
X6.7969Y-4.2672
X6.8246Y-2.709
X6.8246Y-4.2004
T4
X5.6969Y-2.9572
X5.6969Y-3.0572
X5.6969Y-3.1572
X5.6969Y-3.2572
X5.6969Y-3.3572
X5.6969Y-3.4572
X5.6969Y-3.5572
X5.6969Y-3.6572
X5.6969Y-3.7572
X5.6969Y-3.8572
X5.7969Y-2.9572
X5.7969Y-3.0572
X5.7969Y-3.1572
X5.7969Y-3.2572
X5.7969Y-3.3572
X5.7969Y-3.4572
X5.7969Y-3.5572
X5.7969Y-3.6572
X5.7969Y-3.7572
X5.7969Y-3.8572
X6.6969Y-2.9572
X6.6969Y-3.0572
X6.6969Y-3.1572
X6.6969Y-3.2572
X6.6969Y-3.3572
X6.6969Y-3.4572
X6.6969Y-3.5572
X6.6969Y-3.6572
X6.6969Y-3.7572
X6.6969Y-3.8572
X6.7969Y-2.9572
X6.7969Y-3.0572
X6.7969Y-3.1572
X6.7969Y-3.2572
X6.7969Y-3.3572
X6.7969Y-3.4572
X6.7969Y-3.5572
X6.7969Y-3.6572
X6.7969Y-3.7572
X6.7969Y-3.8572
T5
X4.9843Y-3.9772
X5.0827Y-3.9772
X5.1811Y-3.9772
X5.2795Y-3.9772
T6
X4.6469Y-2.7072
X4.6469Y-4.2022
X6.7301Y-2.709
X6.7301Y-4.2004
T0
M30
