%TF.GenerationSoftware,KiCad,Pcbnew,7.0.7*%
%TF.CreationDate,2023-11-15T17:54:30+01:00*%
%TF.ProjectId,Nodo_ESP32_bresser,4e6f646f-5f45-4535-9033-325f62726573,rev?*%
%TF.SameCoordinates,Original*%
%TF.FileFunction,Copper,L1,Top*%
%TF.FilePolarity,Positive*%
%FSLAX46Y46*%
G04 Gerber Fmt 4.6, Leading zero omitted, Abs format (unit mm)*
G04 Created by KiCad (PCBNEW 7.0.7) date 2023-11-15 17:54:30*
%MOMM*%
%LPD*%
G01*
G04 APERTURE LIST*
G04 Aperture macros list*
%AMRoundRect*
0 Rectangle with rounded corners*
0 $1 Rounding radius*
0 $2 $3 $4 $5 $6 $7 $8 $9 X,Y pos of 4 corners*
0 Add a 4 corners polygon primitive as box body*
4,1,4,$2,$3,$4,$5,$6,$7,$8,$9,$2,$3,0*
0 Add four circle primitives for the rounded corners*
1,1,$1+$1,$2,$3*
1,1,$1+$1,$4,$5*
1,1,$1+$1,$6,$7*
1,1,$1+$1,$8,$9*
0 Add four rect primitives between the rounded corners*
20,1,$1+$1,$2,$3,$4,$5,0*
20,1,$1+$1,$4,$5,$6,$7,0*
20,1,$1+$1,$6,$7,$8,$9,0*
20,1,$1+$1,$8,$9,$2,$3,0*%
%AMOutline4P*
0 Free polygon, 4 corners , with rotation*
0 The origin of the aperture is its center*
0 number of corners: always 4*
0 $1 to $8 corner X, Y*
0 $9 Rotation angle, in degrees counterclockwise*
0 create outline with 4 corners*
4,1,4,$1,$2,$3,$4,$5,$6,$7,$8,$1,$2,$9*%
G04 Aperture macros list end*
%TA.AperFunction,EtchedComponent*%
%ADD10C,1.000000*%
%TD*%
%TA.AperFunction,ComponentPad*%
%ADD11C,0.800000*%
%TD*%
%TA.AperFunction,ComponentPad*%
%ADD12C,6.400000*%
%TD*%
%TA.AperFunction,ComponentPad*%
%ADD13C,1.000000*%
%TD*%
%TA.AperFunction,SMDPad,CuDef*%
%ADD14Outline4P,-0.350000X-0.400000X0.350000X-0.400000X0.050000X0.400000X-0.050000X0.400000X180.000000*%
%TD*%
%TA.AperFunction,ComponentPad*%
%ADD15C,1.400000*%
%TD*%
%TA.AperFunction,SMDPad,CuDef*%
%ADD16R,3.000000X1.400000*%
%TD*%
%TA.AperFunction,ComponentPad*%
%ADD17RoundRect,0.250000X-0.600000X-0.725000X0.600000X-0.725000X0.600000X0.725000X-0.600000X0.725000X0*%
%TD*%
%TA.AperFunction,ComponentPad*%
%ADD18O,1.700000X1.950000*%
%TD*%
%TA.AperFunction,ViaPad*%
%ADD19C,0.800000*%
%TD*%
%TA.AperFunction,Conductor*%
%ADD20C,0.400000*%
%TD*%
G04 APERTURE END LIST*
D10*
%TO.C,J1*%
X123492000Y-77776000D02*
X123492000Y-66776000D01*
X125492000Y-66776000D02*
X125492000Y-71776000D01*
X127492000Y-66776000D02*
X127492000Y-71776000D01*
X129492000Y-66776000D02*
X129492000Y-71776000D01*
X131492000Y-66776000D02*
X131492000Y-71776000D01*
X133492000Y-66776000D02*
X133492000Y-71776000D01*
X135492000Y-66776000D02*
X135492000Y-71776000D01*
X137492000Y-66776000D02*
X137492000Y-71776000D01*
X139492000Y-66776000D02*
X139492000Y-71776000D01*
X141492000Y-66776000D02*
X141492000Y-71776000D01*
%TD*%
D11*
%TO.P,H3,1*%
%TO.N,N/C*%
X168543944Y-68808056D03*
X169246888Y-67111000D03*
X169246888Y-70505112D03*
X170943944Y-66408056D03*
D12*
X170943944Y-68808056D03*
D11*
X170943944Y-71208056D03*
X172641000Y-67111000D03*
X172641000Y-70505112D03*
X173343944Y-68808056D03*
%TD*%
%TO.P,H2,1*%
%TO.N,N/C*%
X168543944Y-106688944D03*
X169246888Y-104991888D03*
X169246888Y-108386000D03*
X170943944Y-104288944D03*
D12*
X170943944Y-106688944D03*
D11*
X170943944Y-109088944D03*
X172641000Y-104991888D03*
X172641000Y-108386000D03*
X173343944Y-106688944D03*
%TD*%
D13*
%TO.P,J1,*%
%TO.N,*%
X123492000Y-66776000D03*
X125492000Y-66776000D03*
X125492000Y-71776000D03*
X127492000Y-66776000D03*
X127492000Y-71776000D03*
X129492000Y-66776000D03*
X129492000Y-71776000D03*
X131492000Y-66776000D03*
X131492000Y-71776000D03*
X133492000Y-66776000D03*
X133492000Y-71776000D03*
X135492000Y-66776000D03*
X135492000Y-71776000D03*
X137492000Y-66776000D03*
X137492000Y-71776000D03*
X139492000Y-66776000D03*
X139492000Y-71776000D03*
X141492000Y-66776000D03*
X141492000Y-71776000D03*
D14*
%TO.P,J1,1,Pin_1*%
%TO.N,Net-(J1-Pin_1)*%
X123492000Y-78476000D03*
%TD*%
D15*
%TO.P,U1,1,GND*%
%TO.N,GND*%
X144701000Y-75112000D03*
%TO.P,U1,2,RST*%
%TO.N,unconnected-(U1-RST-Pad2)*%
X147241000Y-75112000D03*
%TO.P,U1,3,NC*%
%TO.N,unconnected-(U1-NC-Pad3)*%
X144701000Y-77652000D03*
%TO.P,U1,4,IO_36/SVP/A0*%
%TO.N,unconnected-(U1-IO_36{slash}SVP{slash}A0-Pad4)*%
X147241000Y-77652000D03*
%TO.P,U1,5,IO_39/SVN*%
%TO.N,unconnected-(U1-IO_39{slash}SVN-Pad5)*%
X144701000Y-80192000D03*
%TO.P,U1,6,IO_26/D0*%
%TO.N,unconnected-(U1-IO_26{slash}D0-Pad6)*%
X147241000Y-80192000D03*
%TO.P,U1,7,IO_35*%
%TO.N,unconnected-(U1-IO_35-Pad7)*%
X144701000Y-82732000D03*
%TO.P,U1,8,IO_18/D5*%
%TO.N,SCK*%
X147241000Y-82732000D03*
%TO.P,U1,9,IO_33*%
%TO.N,DIO1*%
X144701000Y-85272000D03*
%TO.P,U1,10,IO_19/D6*%
%TO.N,MISO*%
X147241000Y-85272000D03*
%TO.P,U1,11,IO_34*%
%TO.N,unconnected-(U1-IO_34-Pad11)*%
X144701000Y-87812000D03*
%TO.P,U1,12,IO_23/D7*%
%TO.N,MOSI*%
X147241000Y-87812000D03*
%TO.P,U1,13,IO_14/TMS*%
%TO.N,unconnected-(U1-IO_14{slash}TMS-Pad13)*%
X144701000Y-90352000D03*
%TO.P,U1,14,IO_05/D8*%
%TO.N,unconnected-(U1-IO_05{slash}D8-Pad14)*%
X147241000Y-90352000D03*
%TO.P,U1,15,NC*%
%TO.N,unconnected-(U1-NC-Pad15)*%
X144701000Y-92892000D03*
%TO.P,U1,16,3V3*%
%TO.N,+3V3*%
X147241000Y-92892000D03*
%TO.P,U1,17,IO_09/SD2*%
%TO.N,unconnected-(U1-IO_09{slash}SD2-Pad17)*%
X144701000Y-95432000D03*
%TO.P,U1,18,IO_13/TCK*%
%TO.N,unconnected-(U1-IO_13{slash}TCK-Pad18)*%
X147241000Y-95432000D03*
%TO.P,U1,19,CMD*%
%TO.N,unconnected-(U1-CMD-Pad19)*%
X144701000Y-97972000D03*
%TO.P,U1,20,IO_10/SD3*%
%TO.N,unconnected-(U1-IO_10{slash}SD3-Pad20)*%
X147241000Y-97972000D03*
%TO.P,U1,21,TXD*%
%TO.N,unconnected-(U1-TXD-Pad21)*%
X170101000Y-75112000D03*
%TO.P,U1,22,GND*%
%TO.N,GND*%
X172641000Y-75112000D03*
%TO.P,U1,23,RXD*%
%TO.N,unconnected-(U1-RXD-Pad23)*%
X170101000Y-77652000D03*
%TO.P,U1,24,IO_27*%
%TO.N,NSS*%
X172641000Y-77652000D03*
%TO.P,U1,25,IO_22/D1/SCL*%
%TO.N,unconnected-(U1-IO_22{slash}D1{slash}SCL-Pad25)*%
X170101000Y-80192000D03*
%TO.P,U1,26,IO_25*%
%TO.N,unconnected-(U1-IO_25-Pad26)*%
X172641000Y-80192000D03*
%TO.P,U1,27,IO_21/D2/SDA*%
%TO.N,DIO0*%
X170101000Y-82732000D03*
%TO.P,U1,28,IO_32*%
%TO.N,RESET*%
X172641000Y-82732000D03*
%TO.P,U1,29,IO_17/D3*%
%TO.N,SCL*%
X170101000Y-85272000D03*
%TO.P,U1,30,IO_12/TDI*%
%TO.N,unconnected-(U1-IO_12{slash}TDI-Pad30)*%
X172641000Y-85272000D03*
%TO.P,U1,31,IO_16/D4*%
%TO.N,SDA*%
X170101000Y-87812000D03*
%TO.P,U1,32,IO_04*%
%TO.N,unconnected-(U1-IO_04-Pad32)*%
X172641000Y-87812000D03*
%TO.P,U1,33,GND*%
%TO.N,GND*%
X170101000Y-90352000D03*
%TO.P,U1,34,IO_00*%
%TO.N,unconnected-(U1-IO_00-Pad34)*%
X172641000Y-90352000D03*
%TO.P,U1,35,VCC_(USB)*%
%TO.N,unconnected-(U1-VCC_(USB)-Pad35)*%
X170101000Y-92892000D03*
%TO.P,U1,36,IO_02*%
%TO.N,unconnected-(U1-IO_02-Pad36)*%
X172641000Y-92892000D03*
%TO.P,U1,37,TD0*%
%TO.N,unconnected-(U1-TD0-Pad37)*%
X170101000Y-95432000D03*
%TO.P,U1,38,SD1*%
%TO.N,unconnected-(U1-SD1-Pad38)*%
X172641000Y-95432000D03*
%TO.P,U1,39,SD0*%
%TO.N,unconnected-(U1-SD0-Pad39)*%
X170101000Y-97972000D03*
%TO.P,U1,40,CLK*%
%TO.N,unconnected-(U1-CLK-Pad40)*%
X172641000Y-97972000D03*
%TD*%
D11*
%TO.P,H4,1*%
%TO.N,N/C*%
X115631000Y-68762000D03*
X116333944Y-67064944D03*
X116333944Y-70459056D03*
X118031000Y-66362000D03*
D12*
X118031000Y-68762000D03*
D11*
X118031000Y-71162000D03*
X119728056Y-67064944D03*
X119728056Y-70459056D03*
X120431000Y-68762000D03*
%TD*%
D16*
%TO.P,U2,1,GND*%
%TO.N,GND*%
X140660500Y-94558000D03*
%TO.P,U2,2,MISO*%
%TO.N,MISO*%
X140660500Y-92558000D03*
%TO.P,U2,3,MOSI*%
%TO.N,MOSI*%
X140660500Y-90558000D03*
%TO.P,U2,4,SCK*%
%TO.N,SCK*%
X140660500Y-88558000D03*
%TO.P,U2,5,NSS*%
%TO.N,NSS*%
X140660500Y-86558000D03*
%TO.P,U2,6,RESET*%
%TO.N,RESET*%
X140660500Y-84558000D03*
%TO.P,U2,7,DIO5*%
%TO.N,unconnected-(U2-DIO5-Pad7)*%
X140660500Y-82558000D03*
%TO.P,U2,8,GND*%
%TO.N,GND*%
X140660500Y-80558000D03*
%TO.P,U2,9,ANT*%
%TO.N,Net-(J1-Pin_1)*%
X125260500Y-80558000D03*
%TO.P,U2,10,GND*%
%TO.N,GND*%
X125260500Y-82558000D03*
%TO.P,U2,11,DIO3*%
%TO.N,unconnected-(U2-DIO3-Pad11)*%
X125260500Y-84558000D03*
%TO.P,U2,12,DIO4*%
%TO.N,unconnected-(U2-DIO4-Pad12)*%
X125260500Y-86558000D03*
%TO.P,U2,13,3.3V*%
%TO.N,+3V3*%
X125260500Y-88558000D03*
%TO.P,U2,14,DIO0*%
%TO.N,DIO0*%
X125260500Y-90558000D03*
%TO.P,U2,15,DIO1*%
%TO.N,DIO1*%
X125260500Y-92558000D03*
%TO.P,U2,16,DIO2*%
%TO.N,unconnected-(U2-DIO2-Pad16)*%
X125260500Y-94558000D03*
%TD*%
D11*
%TO.P,H1,1*%
%TO.N,N/C*%
X115631000Y-106735000D03*
X116333944Y-105037944D03*
X116333944Y-108432056D03*
X118031000Y-104335000D03*
D12*
X118031000Y-106735000D03*
D11*
X118031000Y-109135000D03*
X119728056Y-105037944D03*
X119728056Y-108432056D03*
X120431000Y-106735000D03*
%TD*%
D17*
%TO.P,J2,1,Pin_1*%
%TO.N,+3V3*%
X126600000Y-101020000D03*
D18*
%TO.P,J2,2,Pin_2*%
%TO.N,GND*%
X129100000Y-101020000D03*
%TO.P,J2,3,Pin_3*%
%TO.N,SCL*%
X131600000Y-101020000D03*
%TO.P,J2,4,Pin_4*%
%TO.N,SDA*%
X134100000Y-101020000D03*
%TD*%
D19*
%TO.N,GND*%
X140637000Y-94670000D03*
%TO.N,DIO0*%
X133017000Y-90558000D03*
%TO.N,NSS*%
X141272000Y-86542000D03*
%TO.N,DIO1*%
X133017000Y-92511000D03*
%TD*%
D20*
%TO.N,Net-(J1-Pin_1)*%
X125260500Y-80558000D02*
X125245500Y-80573000D01*
X124381000Y-80573000D02*
X123492000Y-79684000D01*
X123492000Y-79684000D02*
X123492000Y-78676000D01*
X125245500Y-80573000D02*
X124381000Y-80573000D01*
%TO.N,GND*%
X171371000Y-89082000D02*
X170101000Y-90352000D01*
X138239000Y-80558000D02*
X140660500Y-80558000D01*
X172641000Y-75112000D02*
X173911000Y-76382000D01*
X142938000Y-80558000D02*
X140660500Y-80558000D01*
X125260500Y-82558000D02*
X125307500Y-82605000D01*
X136239000Y-82558000D02*
X138239000Y-80558000D01*
X135303000Y-83494000D02*
X136239000Y-82558000D01*
X144701000Y-75112000D02*
X143685000Y-75112000D01*
X173149000Y-89082000D02*
X171371000Y-89082000D01*
X173911000Y-76382000D02*
X173911000Y-88320000D01*
X125307500Y-82605000D02*
X136192000Y-82605000D01*
X143431000Y-75366000D02*
X143431000Y-80065000D01*
X140637000Y-94670000D02*
X139860500Y-94558000D01*
X135303000Y-90000500D02*
X135303000Y-83494000D01*
X143685000Y-75112000D02*
X143431000Y-75366000D01*
X136192000Y-82605000D02*
X136239000Y-82558000D01*
X139860500Y-94558000D02*
X135303000Y-90000500D01*
X144701000Y-75112000D02*
X145801000Y-76212000D01*
X143431000Y-80065000D02*
X142938000Y-80558000D01*
X145801000Y-76212000D02*
X171541000Y-76212000D01*
X173911000Y-88320000D02*
X173149000Y-89082000D01*
X140660500Y-94558000D02*
X140637000Y-94670000D01*
X171541000Y-76212000D02*
X172641000Y-75112000D01*
%TO.N,RESET*%
X142923000Y-82605000D02*
X143896000Y-81632000D01*
X140660500Y-84558000D02*
X142367000Y-84558000D01*
X142923000Y-84002000D02*
X142923000Y-82605000D01*
X142367000Y-84558000D02*
X142923000Y-84002000D01*
X171541000Y-81632000D02*
X172641000Y-82732000D01*
X143896000Y-81632000D02*
X171541000Y-81632000D01*
%TO.N,DIO0*%
X133017000Y-90558000D02*
X125260500Y-90558000D01*
%TO.N,+3V3*%
X122730000Y-88574000D02*
X122095000Y-89209000D01*
X126600000Y-99563000D02*
X126600000Y-101020000D01*
X125260500Y-88558000D02*
X124460500Y-88558000D01*
X122095000Y-89209000D02*
X122095000Y-100004000D01*
X124460500Y-88558000D02*
X124444500Y-88574000D01*
X123238000Y-101147000D02*
X126473000Y-101147000D01*
X126473000Y-101147000D02*
X126600000Y-101020000D01*
X122095000Y-100004000D02*
X123238000Y-101147000D01*
X146141000Y-95887635D02*
X145156635Y-96872000D01*
X147241000Y-92892000D02*
X146141000Y-93992000D01*
X146141000Y-93992000D02*
X146141000Y-95887635D01*
X129291000Y-96872000D02*
X126600000Y-99563000D01*
X124444500Y-88574000D02*
X122730000Y-88574000D01*
X145156635Y-96872000D02*
X129291000Y-96872000D01*
%TO.N,MOSI*%
X140660500Y-90558000D02*
X142336000Y-90558000D01*
X142336000Y-90558000D02*
X143939000Y-88955000D01*
X143939000Y-88955000D02*
X146098000Y-88955000D01*
X146098000Y-88955000D02*
X147241000Y-87812000D01*
%TO.N,MISO*%
X149146000Y-85653000D02*
X148765000Y-85272000D01*
X148257000Y-91622000D02*
X149146000Y-90733000D01*
X140660500Y-92558000D02*
X142622000Y-92558000D01*
X149146000Y-90733000D02*
X149146000Y-85653000D01*
X143558000Y-91622000D02*
X148257000Y-91622000D01*
X142622000Y-92558000D02*
X143558000Y-91622000D01*
X148765000Y-85272000D02*
X147241000Y-85272000D01*
%TO.N,DIO1*%
X133017000Y-92511000D02*
X125307500Y-92511000D01*
X125307500Y-92511000D02*
X125260500Y-92558000D01*
%TO.N,SCK*%
X140660500Y-88558000D02*
X141460500Y-88558000D01*
X143304000Y-86714500D02*
X143304000Y-84891000D01*
X145844000Y-84129000D02*
X147241000Y-82732000D01*
X143304000Y-84891000D02*
X144066000Y-84129000D01*
X141460500Y-88558000D02*
X143304000Y-86714500D01*
X144066000Y-84129000D02*
X145844000Y-84129000D01*
%TO.N,SCL*%
X165529000Y-100258000D02*
X166326000Y-99461000D01*
X136319000Y-99115000D02*
X137462000Y-100258000D01*
X131600000Y-100405000D02*
X132890000Y-99115000D01*
X166326000Y-99461000D02*
X166326000Y-89047000D01*
X132890000Y-99115000D02*
X136319000Y-99115000D01*
X137462000Y-100258000D02*
X165529000Y-100258000D01*
X131600000Y-101020000D02*
X131600000Y-100405000D01*
X166326000Y-89047000D02*
X170101000Y-85272000D01*
%TO.N,SDA*%
X166926000Y-90987000D02*
X170101000Y-87812000D01*
X166926000Y-99877000D02*
X166926000Y-90987000D01*
X165783000Y-101020000D02*
X166926000Y-99877000D01*
X134100000Y-101020000D02*
X165783000Y-101020000D01*
%TD*%
M02*
