%TF.GenerationSoftware,KiCad,Pcbnew,7.0.7*%
%TF.CreationDate,2023-11-15T17:54:30+01:00*%
%TF.ProjectId,Nodo_ESP32_bresser,4e6f646f-5f45-4535-9033-325f62726573,rev?*%
%TF.SameCoordinates,Original*%
%TF.FileFunction,Legend,Top*%
%TF.FilePolarity,Positive*%
%FSLAX46Y46*%
G04 Gerber Fmt 4.6, Leading zero omitted, Abs format (unit mm)*
G04 Created by KiCad (PCBNEW 7.0.7) date 2023-11-15 17:54:30*
%MOMM*%
%LPD*%
G01*
G04 APERTURE LIST*
%ADD10C,0.800000*%
%ADD11C,0.150000*%
%ADD12C,0.120000*%
%ADD13C,0.100000*%
%ADD14C,0.127000*%
%ADD15C,0.200000*%
G04 APERTURE END LIST*
D10*
X123492000Y-77144000D02*
X123492000Y-66730000D01*
X129461000Y-71810000D02*
X129461000Y-66730000D01*
X125524000Y-71810000D02*
X129461000Y-71810000D01*
X137462000Y-71810000D02*
X137462000Y-66730000D01*
X137462000Y-66730000D02*
X141526000Y-66730000D01*
X123492000Y-66730000D02*
X125524000Y-66730000D01*
X125524000Y-66730000D02*
X125524000Y-71810000D01*
X129461000Y-66730000D02*
X133525000Y-66730000D01*
X133525000Y-66730000D02*
X133525000Y-71810000D01*
X133525000Y-71810000D02*
X137462000Y-71810000D01*
D11*
X123047500Y-77779000D02*
X142351500Y-77779000D01*
X122349000Y-65841000D02*
X122349000Y-76890000D01*
X122349000Y-76890000D02*
X123047500Y-77779000D01*
X128397951Y-86885819D02*
X128397951Y-87600104D01*
X128397951Y-87600104D02*
X128350332Y-87742961D01*
X128350332Y-87742961D02*
X128255094Y-87838200D01*
X128255094Y-87838200D02*
X128112237Y-87885819D01*
X128112237Y-87885819D02*
X128016999Y-87885819D01*
X129350332Y-87885819D02*
X128874142Y-87885819D01*
X128874142Y-87885819D02*
X128874142Y-86885819D01*
X130255094Y-87790580D02*
X130207475Y-87838200D01*
X130207475Y-87838200D02*
X130064618Y-87885819D01*
X130064618Y-87885819D02*
X129969380Y-87885819D01*
X129969380Y-87885819D02*
X129826523Y-87838200D01*
X129826523Y-87838200D02*
X129731285Y-87742961D01*
X129731285Y-87742961D02*
X129683666Y-87647723D01*
X129683666Y-87647723D02*
X129636047Y-87457247D01*
X129636047Y-87457247D02*
X129636047Y-87314390D01*
X129636047Y-87314390D02*
X129683666Y-87123914D01*
X129683666Y-87123914D02*
X129731285Y-87028676D01*
X129731285Y-87028676D02*
X129826523Y-86933438D01*
X129826523Y-86933438D02*
X129969380Y-86885819D01*
X129969380Y-86885819D02*
X130064618Y-86885819D01*
X130064618Y-86885819D02*
X130207475Y-86933438D01*
X130207475Y-86933438D02*
X130255094Y-86981057D01*
X130969380Y-86885819D02*
X130969380Y-87600104D01*
X130969380Y-87600104D02*
X130921761Y-87742961D01*
X130921761Y-87742961D02*
X130826523Y-87838200D01*
X130826523Y-87838200D02*
X130683666Y-87885819D01*
X130683666Y-87885819D02*
X130588428Y-87885819D01*
X131921761Y-87885819D02*
X131445571Y-87885819D01*
X131445571Y-87885819D02*
X131445571Y-86885819D01*
X132826523Y-87790580D02*
X132778904Y-87838200D01*
X132778904Y-87838200D02*
X132636047Y-87885819D01*
X132636047Y-87885819D02*
X132540809Y-87885819D01*
X132540809Y-87885819D02*
X132397952Y-87838200D01*
X132397952Y-87838200D02*
X132302714Y-87742961D01*
X132302714Y-87742961D02*
X132255095Y-87647723D01*
X132255095Y-87647723D02*
X132207476Y-87457247D01*
X132207476Y-87457247D02*
X132207476Y-87314390D01*
X132207476Y-87314390D02*
X132255095Y-87123914D01*
X132255095Y-87123914D02*
X132302714Y-87028676D01*
X132302714Y-87028676D02*
X132397952Y-86933438D01*
X132397952Y-86933438D02*
X132540809Y-86885819D01*
X132540809Y-86885819D02*
X132636047Y-86885819D01*
X132636047Y-86885819D02*
X132778904Y-86933438D01*
X132778904Y-86933438D02*
X132826523Y-86981057D01*
X133540809Y-86885819D02*
X133540809Y-87600104D01*
X133540809Y-87600104D02*
X133493190Y-87742961D01*
X133493190Y-87742961D02*
X133397952Y-87838200D01*
X133397952Y-87838200D02*
X133255095Y-87885819D01*
X133255095Y-87885819D02*
X133159857Y-87885819D01*
X134493190Y-87885819D02*
X134017000Y-87885819D01*
X134017000Y-87885819D02*
X134017000Y-86885819D01*
X135397952Y-87790580D02*
X135350333Y-87838200D01*
X135350333Y-87838200D02*
X135207476Y-87885819D01*
X135207476Y-87885819D02*
X135112238Y-87885819D01*
X135112238Y-87885819D02*
X134969381Y-87838200D01*
X134969381Y-87838200D02*
X134874143Y-87742961D01*
X134874143Y-87742961D02*
X134826524Y-87647723D01*
X134826524Y-87647723D02*
X134778905Y-87457247D01*
X134778905Y-87457247D02*
X134778905Y-87314390D01*
X134778905Y-87314390D02*
X134826524Y-87123914D01*
X134826524Y-87123914D02*
X134874143Y-87028676D01*
X134874143Y-87028676D02*
X134969381Y-86933438D01*
X134969381Y-86933438D02*
X135112238Y-86885819D01*
X135112238Y-86885819D02*
X135207476Y-86885819D01*
X135207476Y-86885819D02*
X135350333Y-86933438D01*
X135350333Y-86933438D02*
X135397952Y-86981057D01*
X136112238Y-86885819D02*
X136112238Y-87600104D01*
X136112238Y-87600104D02*
X136064619Y-87742961D01*
X136064619Y-87742961D02*
X135969381Y-87838200D01*
X135969381Y-87838200D02*
X135826524Y-87885819D01*
X135826524Y-87885819D02*
X135731286Y-87885819D01*
X137064619Y-87885819D02*
X136588429Y-87885819D01*
X136588429Y-87885819D02*
X136588429Y-86885819D01*
X137969381Y-87790580D02*
X137921762Y-87838200D01*
X137921762Y-87838200D02*
X137778905Y-87885819D01*
X137778905Y-87885819D02*
X137683667Y-87885819D01*
X137683667Y-87885819D02*
X137540810Y-87838200D01*
X137540810Y-87838200D02*
X137445572Y-87742961D01*
X137445572Y-87742961D02*
X137397953Y-87647723D01*
X137397953Y-87647723D02*
X137350334Y-87457247D01*
X137350334Y-87457247D02*
X137350334Y-87314390D01*
X137350334Y-87314390D02*
X137397953Y-87123914D01*
X137397953Y-87123914D02*
X137445572Y-87028676D01*
X137445572Y-87028676D02*
X137540810Y-86933438D01*
X137540810Y-86933438D02*
X137683667Y-86885819D01*
X137683667Y-86885819D02*
X137778905Y-86885819D01*
X137778905Y-86885819D02*
X137921762Y-86933438D01*
X137921762Y-86933438D02*
X137969381Y-86981057D01*
X132077200Y-99079839D02*
X132124819Y-98936982D01*
X132124819Y-98936982D02*
X132124819Y-98698887D01*
X132124819Y-98698887D02*
X132077200Y-98603649D01*
X132077200Y-98603649D02*
X132029580Y-98556030D01*
X132029580Y-98556030D02*
X131934342Y-98508411D01*
X131934342Y-98508411D02*
X131839104Y-98508411D01*
X131839104Y-98508411D02*
X131743866Y-98556030D01*
X131743866Y-98556030D02*
X131696247Y-98603649D01*
X131696247Y-98603649D02*
X131648628Y-98698887D01*
X131648628Y-98698887D02*
X131601009Y-98889363D01*
X131601009Y-98889363D02*
X131553390Y-98984601D01*
X131553390Y-98984601D02*
X131505771Y-99032220D01*
X131505771Y-99032220D02*
X131410533Y-99079839D01*
X131410533Y-99079839D02*
X131315295Y-99079839D01*
X131315295Y-99079839D02*
X131220057Y-99032220D01*
X131220057Y-99032220D02*
X131172438Y-98984601D01*
X131172438Y-98984601D02*
X131124819Y-98889363D01*
X131124819Y-98889363D02*
X131124819Y-98651268D01*
X131124819Y-98651268D02*
X131172438Y-98508411D01*
X132029580Y-97508411D02*
X132077200Y-97556030D01*
X132077200Y-97556030D02*
X132124819Y-97698887D01*
X132124819Y-97698887D02*
X132124819Y-97794125D01*
X132124819Y-97794125D02*
X132077200Y-97936982D01*
X132077200Y-97936982D02*
X131981961Y-98032220D01*
X131981961Y-98032220D02*
X131886723Y-98079839D01*
X131886723Y-98079839D02*
X131696247Y-98127458D01*
X131696247Y-98127458D02*
X131553390Y-98127458D01*
X131553390Y-98127458D02*
X131362914Y-98079839D01*
X131362914Y-98079839D02*
X131267676Y-98032220D01*
X131267676Y-98032220D02*
X131172438Y-97936982D01*
X131172438Y-97936982D02*
X131124819Y-97794125D01*
X131124819Y-97794125D02*
X131124819Y-97698887D01*
X131124819Y-97698887D02*
X131172438Y-97556030D01*
X131172438Y-97556030D02*
X131220057Y-97508411D01*
X132124819Y-96603649D02*
X132124819Y-97079839D01*
X132124819Y-97079839D02*
X131124819Y-97079839D01*
X128759438Y-98635411D02*
X128711819Y-98730649D01*
X128711819Y-98730649D02*
X128711819Y-98873506D01*
X128711819Y-98873506D02*
X128759438Y-99016363D01*
X128759438Y-99016363D02*
X128854676Y-99111601D01*
X128854676Y-99111601D02*
X128949914Y-99159220D01*
X128949914Y-99159220D02*
X129140390Y-99206839D01*
X129140390Y-99206839D02*
X129283247Y-99206839D01*
X129283247Y-99206839D02*
X129473723Y-99159220D01*
X129473723Y-99159220D02*
X129568961Y-99111601D01*
X129568961Y-99111601D02*
X129664200Y-99016363D01*
X129664200Y-99016363D02*
X129711819Y-98873506D01*
X129711819Y-98873506D02*
X129711819Y-98778268D01*
X129711819Y-98778268D02*
X129664200Y-98635411D01*
X129664200Y-98635411D02*
X129616580Y-98587792D01*
X129616580Y-98587792D02*
X129283247Y-98587792D01*
X129283247Y-98587792D02*
X129283247Y-98778268D01*
X129711819Y-98159220D02*
X128711819Y-98159220D01*
X128711819Y-98159220D02*
X129711819Y-97587792D01*
X129711819Y-97587792D02*
X128711819Y-97587792D01*
X129711819Y-97111601D02*
X128711819Y-97111601D01*
X128711819Y-97111601D02*
X128711819Y-96873506D01*
X128711819Y-96873506D02*
X128759438Y-96730649D01*
X128759438Y-96730649D02*
X128854676Y-96635411D01*
X128854676Y-96635411D02*
X128949914Y-96587792D01*
X128949914Y-96587792D02*
X129140390Y-96540173D01*
X129140390Y-96540173D02*
X129283247Y-96540173D01*
X129283247Y-96540173D02*
X129473723Y-96587792D01*
X129473723Y-96587792D02*
X129568961Y-96635411D01*
X129568961Y-96635411D02*
X129664200Y-96730649D01*
X129664200Y-96730649D02*
X129711819Y-96873506D01*
X129711819Y-96873506D02*
X129711819Y-97111601D01*
X125495636Y-74918390D02*
X125400398Y-74870771D01*
X125400398Y-74870771D02*
X125352779Y-74823152D01*
X125352779Y-74823152D02*
X125305160Y-74727914D01*
X125305160Y-74727914D02*
X125305160Y-74680295D01*
X125305160Y-74680295D02*
X125352779Y-74585057D01*
X125352779Y-74585057D02*
X125400398Y-74537438D01*
X125400398Y-74537438D02*
X125495636Y-74489819D01*
X125495636Y-74489819D02*
X125686112Y-74489819D01*
X125686112Y-74489819D02*
X125781350Y-74537438D01*
X125781350Y-74537438D02*
X125828969Y-74585057D01*
X125828969Y-74585057D02*
X125876588Y-74680295D01*
X125876588Y-74680295D02*
X125876588Y-74727914D01*
X125876588Y-74727914D02*
X125828969Y-74823152D01*
X125828969Y-74823152D02*
X125781350Y-74870771D01*
X125781350Y-74870771D02*
X125686112Y-74918390D01*
X125686112Y-74918390D02*
X125495636Y-74918390D01*
X125495636Y-74918390D02*
X125400398Y-74966009D01*
X125400398Y-74966009D02*
X125352779Y-75013628D01*
X125352779Y-75013628D02*
X125305160Y-75108866D01*
X125305160Y-75108866D02*
X125305160Y-75299342D01*
X125305160Y-75299342D02*
X125352779Y-75394580D01*
X125352779Y-75394580D02*
X125400398Y-75442200D01*
X125400398Y-75442200D02*
X125495636Y-75489819D01*
X125495636Y-75489819D02*
X125686112Y-75489819D01*
X125686112Y-75489819D02*
X125781350Y-75442200D01*
X125781350Y-75442200D02*
X125828969Y-75394580D01*
X125828969Y-75394580D02*
X125876588Y-75299342D01*
X125876588Y-75299342D02*
X125876588Y-75108866D01*
X125876588Y-75108866D02*
X125828969Y-75013628D01*
X125828969Y-75013628D02*
X125781350Y-74966009D01*
X125781350Y-74966009D02*
X125686112Y-74918390D01*
X126733731Y-74489819D02*
X126543255Y-74489819D01*
X126543255Y-74489819D02*
X126448017Y-74537438D01*
X126448017Y-74537438D02*
X126400398Y-74585057D01*
X126400398Y-74585057D02*
X126305160Y-74727914D01*
X126305160Y-74727914D02*
X126257541Y-74918390D01*
X126257541Y-74918390D02*
X126257541Y-75299342D01*
X126257541Y-75299342D02*
X126305160Y-75394580D01*
X126305160Y-75394580D02*
X126352779Y-75442200D01*
X126352779Y-75442200D02*
X126448017Y-75489819D01*
X126448017Y-75489819D02*
X126638493Y-75489819D01*
X126638493Y-75489819D02*
X126733731Y-75442200D01*
X126733731Y-75442200D02*
X126781350Y-75394580D01*
X126781350Y-75394580D02*
X126828969Y-75299342D01*
X126828969Y-75299342D02*
X126828969Y-75061247D01*
X126828969Y-75061247D02*
X126781350Y-74966009D01*
X126781350Y-74966009D02*
X126733731Y-74918390D01*
X126733731Y-74918390D02*
X126638493Y-74870771D01*
X126638493Y-74870771D02*
X126448017Y-74870771D01*
X126448017Y-74870771D02*
X126352779Y-74918390D01*
X126352779Y-74918390D02*
X126305160Y-74966009D01*
X126305160Y-74966009D02*
X126257541Y-75061247D01*
X127400398Y-74918390D02*
X127305160Y-74870771D01*
X127305160Y-74870771D02*
X127257541Y-74823152D01*
X127257541Y-74823152D02*
X127209922Y-74727914D01*
X127209922Y-74727914D02*
X127209922Y-74680295D01*
X127209922Y-74680295D02*
X127257541Y-74585057D01*
X127257541Y-74585057D02*
X127305160Y-74537438D01*
X127305160Y-74537438D02*
X127400398Y-74489819D01*
X127400398Y-74489819D02*
X127590874Y-74489819D01*
X127590874Y-74489819D02*
X127686112Y-74537438D01*
X127686112Y-74537438D02*
X127733731Y-74585057D01*
X127733731Y-74585057D02*
X127781350Y-74680295D01*
X127781350Y-74680295D02*
X127781350Y-74727914D01*
X127781350Y-74727914D02*
X127733731Y-74823152D01*
X127733731Y-74823152D02*
X127686112Y-74870771D01*
X127686112Y-74870771D02*
X127590874Y-74918390D01*
X127590874Y-74918390D02*
X127400398Y-74918390D01*
X127400398Y-74918390D02*
X127305160Y-74966009D01*
X127305160Y-74966009D02*
X127257541Y-75013628D01*
X127257541Y-75013628D02*
X127209922Y-75108866D01*
X127209922Y-75108866D02*
X127209922Y-75299342D01*
X127209922Y-75299342D02*
X127257541Y-75394580D01*
X127257541Y-75394580D02*
X127305160Y-75442200D01*
X127305160Y-75442200D02*
X127400398Y-75489819D01*
X127400398Y-75489819D02*
X127590874Y-75489819D01*
X127590874Y-75489819D02*
X127686112Y-75442200D01*
X127686112Y-75442200D02*
X127733731Y-75394580D01*
X127733731Y-75394580D02*
X127781350Y-75299342D01*
X127781350Y-75299342D02*
X127781350Y-75108866D01*
X127781350Y-75108866D02*
X127733731Y-75013628D01*
X127733731Y-75013628D02*
X127686112Y-74966009D01*
X127686112Y-74966009D02*
X127590874Y-74918390D01*
X128209922Y-75489819D02*
X128209922Y-74489819D01*
X128209922Y-74489819D02*
X128543255Y-75204104D01*
X128543255Y-75204104D02*
X128876588Y-74489819D01*
X128876588Y-74489819D02*
X128876588Y-75489819D01*
X129352779Y-75489819D02*
X129352779Y-74489819D01*
X129352779Y-74966009D02*
X129924207Y-74966009D01*
X129924207Y-75489819D02*
X129924207Y-74489819D01*
X130305160Y-74823152D02*
X130828969Y-74823152D01*
X130828969Y-74823152D02*
X130305160Y-75489819D01*
X130305160Y-75489819D02*
X130828969Y-75489819D01*
X131924208Y-75442200D02*
X132019446Y-75489819D01*
X132019446Y-75489819D02*
X132209922Y-75489819D01*
X132209922Y-75489819D02*
X132305160Y-75442200D01*
X132305160Y-75442200D02*
X132352779Y-75346961D01*
X132352779Y-75346961D02*
X132352779Y-75299342D01*
X132352779Y-75299342D02*
X132305160Y-75204104D01*
X132305160Y-75204104D02*
X132209922Y-75156485D01*
X132209922Y-75156485D02*
X132067065Y-75156485D01*
X132067065Y-75156485D02*
X131971827Y-75108866D01*
X131971827Y-75108866D02*
X131924208Y-75013628D01*
X131924208Y-75013628D02*
X131924208Y-74966009D01*
X131924208Y-74966009D02*
X131971827Y-74870771D01*
X131971827Y-74870771D02*
X132067065Y-74823152D01*
X132067065Y-74823152D02*
X132209922Y-74823152D01*
X132209922Y-74823152D02*
X132305160Y-74870771D01*
X132638494Y-74823152D02*
X133019446Y-74823152D01*
X132781351Y-74489819D02*
X132781351Y-75346961D01*
X132781351Y-75346961D02*
X132828970Y-75442200D01*
X132828970Y-75442200D02*
X132924208Y-75489819D01*
X132924208Y-75489819D02*
X133019446Y-75489819D01*
X133781351Y-75489819D02*
X133781351Y-74966009D01*
X133781351Y-74966009D02*
X133733732Y-74870771D01*
X133733732Y-74870771D02*
X133638494Y-74823152D01*
X133638494Y-74823152D02*
X133448018Y-74823152D01*
X133448018Y-74823152D02*
X133352780Y-74870771D01*
X133781351Y-75442200D02*
X133686113Y-75489819D01*
X133686113Y-75489819D02*
X133448018Y-75489819D01*
X133448018Y-75489819D02*
X133352780Y-75442200D01*
X133352780Y-75442200D02*
X133305161Y-75346961D01*
X133305161Y-75346961D02*
X133305161Y-75251723D01*
X133305161Y-75251723D02*
X133352780Y-75156485D01*
X133352780Y-75156485D02*
X133448018Y-75108866D01*
X133448018Y-75108866D02*
X133686113Y-75108866D01*
X133686113Y-75108866D02*
X133781351Y-75061247D01*
X134114685Y-74823152D02*
X134495637Y-74823152D01*
X134257542Y-74489819D02*
X134257542Y-75346961D01*
X134257542Y-75346961D02*
X134305161Y-75442200D01*
X134305161Y-75442200D02*
X134400399Y-75489819D01*
X134400399Y-75489819D02*
X134495637Y-75489819D01*
X134828971Y-75489819D02*
X134828971Y-74823152D01*
X134828971Y-74489819D02*
X134781352Y-74537438D01*
X134781352Y-74537438D02*
X134828971Y-74585057D01*
X134828971Y-74585057D02*
X134876590Y-74537438D01*
X134876590Y-74537438D02*
X134828971Y-74489819D01*
X134828971Y-74489819D02*
X134828971Y-74585057D01*
X135448018Y-75489819D02*
X135352780Y-75442200D01*
X135352780Y-75442200D02*
X135305161Y-75394580D01*
X135305161Y-75394580D02*
X135257542Y-75299342D01*
X135257542Y-75299342D02*
X135257542Y-75013628D01*
X135257542Y-75013628D02*
X135305161Y-74918390D01*
X135305161Y-74918390D02*
X135352780Y-74870771D01*
X135352780Y-74870771D02*
X135448018Y-74823152D01*
X135448018Y-74823152D02*
X135590875Y-74823152D01*
X135590875Y-74823152D02*
X135686113Y-74870771D01*
X135686113Y-74870771D02*
X135733732Y-74918390D01*
X135733732Y-74918390D02*
X135781351Y-75013628D01*
X135781351Y-75013628D02*
X135781351Y-75299342D01*
X135781351Y-75299342D02*
X135733732Y-75394580D01*
X135733732Y-75394580D02*
X135686113Y-75442200D01*
X135686113Y-75442200D02*
X135590875Y-75489819D01*
X135590875Y-75489819D02*
X135448018Y-75489819D01*
X136209923Y-74823152D02*
X136209923Y-75489819D01*
X136209923Y-74918390D02*
X136257542Y-74870771D01*
X136257542Y-74870771D02*
X136352780Y-74823152D01*
X136352780Y-74823152D02*
X136495637Y-74823152D01*
X136495637Y-74823152D02*
X136590875Y-74870771D01*
X136590875Y-74870771D02*
X136638494Y-74966009D01*
X136638494Y-74966009D02*
X136638494Y-75489819D01*
X137067066Y-75442200D02*
X137162304Y-75489819D01*
X137162304Y-75489819D02*
X137352780Y-75489819D01*
X137352780Y-75489819D02*
X137448018Y-75442200D01*
X137448018Y-75442200D02*
X137495637Y-75346961D01*
X137495637Y-75346961D02*
X137495637Y-75299342D01*
X137495637Y-75299342D02*
X137448018Y-75204104D01*
X137448018Y-75204104D02*
X137352780Y-75156485D01*
X137352780Y-75156485D02*
X137209923Y-75156485D01*
X137209923Y-75156485D02*
X137114685Y-75108866D01*
X137114685Y-75108866D02*
X137067066Y-75013628D01*
X137067066Y-75013628D02*
X137067066Y-74966009D01*
X137067066Y-74966009D02*
X137114685Y-74870771D01*
X137114685Y-74870771D02*
X137209923Y-74823152D01*
X137209923Y-74823152D02*
X137352780Y-74823152D01*
X137352780Y-74823152D02*
X137448018Y-74870771D01*
X138828971Y-75489819D02*
X138733733Y-75442200D01*
X138733733Y-75442200D02*
X138686114Y-75394580D01*
X138686114Y-75394580D02*
X138638495Y-75299342D01*
X138638495Y-75299342D02*
X138638495Y-75013628D01*
X138638495Y-75013628D02*
X138686114Y-74918390D01*
X138686114Y-74918390D02*
X138733733Y-74870771D01*
X138733733Y-74870771D02*
X138828971Y-74823152D01*
X138828971Y-74823152D02*
X138971828Y-74823152D01*
X138971828Y-74823152D02*
X139067066Y-74870771D01*
X139067066Y-74870771D02*
X139114685Y-74918390D01*
X139114685Y-74918390D02*
X139162304Y-75013628D01*
X139162304Y-75013628D02*
X139162304Y-75299342D01*
X139162304Y-75299342D02*
X139114685Y-75394580D01*
X139114685Y-75394580D02*
X139067066Y-75442200D01*
X139067066Y-75442200D02*
X138971828Y-75489819D01*
X138971828Y-75489819D02*
X138828971Y-75489819D01*
X139590876Y-74823152D02*
X139590876Y-75489819D01*
X139590876Y-74918390D02*
X139638495Y-74870771D01*
X139638495Y-74870771D02*
X139733733Y-74823152D01*
X139733733Y-74823152D02*
X139876590Y-74823152D01*
X139876590Y-74823152D02*
X139971828Y-74870771D01*
X139971828Y-74870771D02*
X140019447Y-74966009D01*
X140019447Y-74966009D02*
X140019447Y-75489819D01*
X140638495Y-75489819D02*
X140543257Y-75442200D01*
X140543257Y-75442200D02*
X140495638Y-75346961D01*
X140495638Y-75346961D02*
X140495638Y-74489819D01*
X140924210Y-74823152D02*
X141162305Y-75489819D01*
X141400400Y-74823152D02*
X141162305Y-75489819D01*
X141162305Y-75489819D02*
X141067067Y-75727914D01*
X141067067Y-75727914D02*
X141019448Y-75775533D01*
X141019448Y-75775533D02*
X140924210Y-75823152D01*
X125225779Y-109906819D02*
X125225779Y-108906819D01*
X125654350Y-109002057D02*
X125701969Y-108954438D01*
X125701969Y-108954438D02*
X125797207Y-108906819D01*
X125797207Y-108906819D02*
X126035302Y-108906819D01*
X126035302Y-108906819D02*
X126130540Y-108954438D01*
X126130540Y-108954438D02*
X126178159Y-109002057D01*
X126178159Y-109002057D02*
X126225778Y-109097295D01*
X126225778Y-109097295D02*
X126225778Y-109192533D01*
X126225778Y-109192533D02*
X126178159Y-109335390D01*
X126178159Y-109335390D02*
X125606731Y-109906819D01*
X125606731Y-109906819D02*
X126225778Y-109906819D01*
X127225778Y-109811580D02*
X127178159Y-109859200D01*
X127178159Y-109859200D02*
X127035302Y-109906819D01*
X127035302Y-109906819D02*
X126940064Y-109906819D01*
X126940064Y-109906819D02*
X126797207Y-109859200D01*
X126797207Y-109859200D02*
X126701969Y-109763961D01*
X126701969Y-109763961D02*
X126654350Y-109668723D01*
X126654350Y-109668723D02*
X126606731Y-109478247D01*
X126606731Y-109478247D02*
X126606731Y-109335390D01*
X126606731Y-109335390D02*
X126654350Y-109144914D01*
X126654350Y-109144914D02*
X126701969Y-109049676D01*
X126701969Y-109049676D02*
X126797207Y-108954438D01*
X126797207Y-108954438D02*
X126940064Y-108906819D01*
X126940064Y-108906819D02*
X127035302Y-108906819D01*
X127035302Y-108906819D02*
X127178159Y-108954438D01*
X127178159Y-108954438D02*
X127225778Y-109002057D01*
X128797207Y-109859200D02*
X128701969Y-109906819D01*
X128701969Y-109906819D02*
X128511493Y-109906819D01*
X128511493Y-109906819D02*
X128416255Y-109859200D01*
X128416255Y-109859200D02*
X128368636Y-109763961D01*
X128368636Y-109763961D02*
X128368636Y-109383009D01*
X128368636Y-109383009D02*
X128416255Y-109287771D01*
X128416255Y-109287771D02*
X128511493Y-109240152D01*
X128511493Y-109240152D02*
X128701969Y-109240152D01*
X128701969Y-109240152D02*
X128797207Y-109287771D01*
X128797207Y-109287771D02*
X128844826Y-109383009D01*
X128844826Y-109383009D02*
X128844826Y-109478247D01*
X128844826Y-109478247D02*
X128368636Y-109573485D01*
X129178160Y-109906819D02*
X129701969Y-109240152D01*
X129178160Y-109240152D02*
X129701969Y-109906819D01*
X130082922Y-109240152D02*
X130082922Y-110240152D01*
X130082922Y-109287771D02*
X130178160Y-109240152D01*
X130178160Y-109240152D02*
X130368636Y-109240152D01*
X130368636Y-109240152D02*
X130463874Y-109287771D01*
X130463874Y-109287771D02*
X130511493Y-109335390D01*
X130511493Y-109335390D02*
X130559112Y-109430628D01*
X130559112Y-109430628D02*
X130559112Y-109716342D01*
X130559112Y-109716342D02*
X130511493Y-109811580D01*
X130511493Y-109811580D02*
X130463874Y-109859200D01*
X130463874Y-109859200D02*
X130368636Y-109906819D01*
X130368636Y-109906819D02*
X130178160Y-109906819D01*
X130178160Y-109906819D02*
X130082922Y-109859200D01*
X131416255Y-109906819D02*
X131416255Y-109383009D01*
X131416255Y-109383009D02*
X131368636Y-109287771D01*
X131368636Y-109287771D02*
X131273398Y-109240152D01*
X131273398Y-109240152D02*
X131082922Y-109240152D01*
X131082922Y-109240152D02*
X130987684Y-109287771D01*
X131416255Y-109859200D02*
X131321017Y-109906819D01*
X131321017Y-109906819D02*
X131082922Y-109906819D01*
X131082922Y-109906819D02*
X130987684Y-109859200D01*
X130987684Y-109859200D02*
X130940065Y-109763961D01*
X130940065Y-109763961D02*
X130940065Y-109668723D01*
X130940065Y-109668723D02*
X130987684Y-109573485D01*
X130987684Y-109573485D02*
X131082922Y-109525866D01*
X131082922Y-109525866D02*
X131321017Y-109525866D01*
X131321017Y-109525866D02*
X131416255Y-109478247D01*
X131892446Y-109240152D02*
X131892446Y-109906819D01*
X131892446Y-109335390D02*
X131940065Y-109287771D01*
X131940065Y-109287771D02*
X132035303Y-109240152D01*
X132035303Y-109240152D02*
X132178160Y-109240152D01*
X132178160Y-109240152D02*
X132273398Y-109287771D01*
X132273398Y-109287771D02*
X132321017Y-109383009D01*
X132321017Y-109383009D02*
X132321017Y-109906819D01*
X132749589Y-109859200D02*
X132844827Y-109906819D01*
X132844827Y-109906819D02*
X133035303Y-109906819D01*
X133035303Y-109906819D02*
X133130541Y-109859200D01*
X133130541Y-109859200D02*
X133178160Y-109763961D01*
X133178160Y-109763961D02*
X133178160Y-109716342D01*
X133178160Y-109716342D02*
X133130541Y-109621104D01*
X133130541Y-109621104D02*
X133035303Y-109573485D01*
X133035303Y-109573485D02*
X132892446Y-109573485D01*
X132892446Y-109573485D02*
X132797208Y-109525866D01*
X132797208Y-109525866D02*
X132749589Y-109430628D01*
X132749589Y-109430628D02*
X132749589Y-109383009D01*
X132749589Y-109383009D02*
X132797208Y-109287771D01*
X132797208Y-109287771D02*
X132892446Y-109240152D01*
X132892446Y-109240152D02*
X133035303Y-109240152D01*
X133035303Y-109240152D02*
X133130541Y-109287771D01*
X133606732Y-109906819D02*
X133606732Y-109240152D01*
X133606732Y-108906819D02*
X133559113Y-108954438D01*
X133559113Y-108954438D02*
X133606732Y-109002057D01*
X133606732Y-109002057D02*
X133654351Y-108954438D01*
X133654351Y-108954438D02*
X133606732Y-108906819D01*
X133606732Y-108906819D02*
X133606732Y-109002057D01*
X134225779Y-109906819D02*
X134130541Y-109859200D01*
X134130541Y-109859200D02*
X134082922Y-109811580D01*
X134082922Y-109811580D02*
X134035303Y-109716342D01*
X134035303Y-109716342D02*
X134035303Y-109430628D01*
X134035303Y-109430628D02*
X134082922Y-109335390D01*
X134082922Y-109335390D02*
X134130541Y-109287771D01*
X134130541Y-109287771D02*
X134225779Y-109240152D01*
X134225779Y-109240152D02*
X134368636Y-109240152D01*
X134368636Y-109240152D02*
X134463874Y-109287771D01*
X134463874Y-109287771D02*
X134511493Y-109335390D01*
X134511493Y-109335390D02*
X134559112Y-109430628D01*
X134559112Y-109430628D02*
X134559112Y-109716342D01*
X134559112Y-109716342D02*
X134511493Y-109811580D01*
X134511493Y-109811580D02*
X134463874Y-109859200D01*
X134463874Y-109859200D02*
X134368636Y-109906819D01*
X134368636Y-109906819D02*
X134225779Y-109906819D01*
X134987684Y-109240152D02*
X134987684Y-109906819D01*
X134987684Y-109335390D02*
X135035303Y-109287771D01*
X135035303Y-109287771D02*
X135130541Y-109240152D01*
X135130541Y-109240152D02*
X135273398Y-109240152D01*
X135273398Y-109240152D02*
X135368636Y-109287771D01*
X135368636Y-109287771D02*
X135416255Y-109383009D01*
X135416255Y-109383009D02*
X135416255Y-109906819D01*
X116249819Y-102588220D02*
X115249819Y-102588220D01*
X115249819Y-102588220D02*
X115964104Y-102254887D01*
X115964104Y-102254887D02*
X115249819Y-101921554D01*
X115249819Y-101921554D02*
X116249819Y-101921554D01*
X116249819Y-101016792D02*
X115726009Y-101016792D01*
X115726009Y-101016792D02*
X115630771Y-101064411D01*
X115630771Y-101064411D02*
X115583152Y-101159649D01*
X115583152Y-101159649D02*
X115583152Y-101350125D01*
X115583152Y-101350125D02*
X115630771Y-101445363D01*
X116202200Y-101016792D02*
X116249819Y-101112030D01*
X116249819Y-101112030D02*
X116249819Y-101350125D01*
X116249819Y-101350125D02*
X116202200Y-101445363D01*
X116202200Y-101445363D02*
X116106961Y-101492982D01*
X116106961Y-101492982D02*
X116011723Y-101492982D01*
X116011723Y-101492982D02*
X115916485Y-101445363D01*
X115916485Y-101445363D02*
X115868866Y-101350125D01*
X115868866Y-101350125D02*
X115868866Y-101112030D01*
X115868866Y-101112030D02*
X115821247Y-101016792D01*
X116249819Y-100112030D02*
X115249819Y-100112030D01*
X116202200Y-100112030D02*
X116249819Y-100207268D01*
X116249819Y-100207268D02*
X116249819Y-100397744D01*
X116249819Y-100397744D02*
X116202200Y-100492982D01*
X116202200Y-100492982D02*
X116154580Y-100540601D01*
X116154580Y-100540601D02*
X116059342Y-100588220D01*
X116059342Y-100588220D02*
X115773628Y-100588220D01*
X115773628Y-100588220D02*
X115678390Y-100540601D01*
X115678390Y-100540601D02*
X115630771Y-100492982D01*
X115630771Y-100492982D02*
X115583152Y-100397744D01*
X115583152Y-100397744D02*
X115583152Y-100207268D01*
X115583152Y-100207268D02*
X115630771Y-100112030D01*
X116202200Y-99254887D02*
X116249819Y-99350125D01*
X116249819Y-99350125D02*
X116249819Y-99540601D01*
X116249819Y-99540601D02*
X116202200Y-99635839D01*
X116202200Y-99635839D02*
X116106961Y-99683458D01*
X116106961Y-99683458D02*
X115726009Y-99683458D01*
X115726009Y-99683458D02*
X115630771Y-99635839D01*
X115630771Y-99635839D02*
X115583152Y-99540601D01*
X115583152Y-99540601D02*
X115583152Y-99350125D01*
X115583152Y-99350125D02*
X115630771Y-99254887D01*
X115630771Y-99254887D02*
X115726009Y-99207268D01*
X115726009Y-99207268D02*
X115821247Y-99207268D01*
X115821247Y-99207268D02*
X115916485Y-99683458D01*
X116249819Y-98016791D02*
X115249819Y-98016791D01*
X115630771Y-98016791D02*
X115583152Y-97921553D01*
X115583152Y-97921553D02*
X115583152Y-97731077D01*
X115583152Y-97731077D02*
X115630771Y-97635839D01*
X115630771Y-97635839D02*
X115678390Y-97588220D01*
X115678390Y-97588220D02*
X115773628Y-97540601D01*
X115773628Y-97540601D02*
X116059342Y-97540601D01*
X116059342Y-97540601D02*
X116154580Y-97588220D01*
X116154580Y-97588220D02*
X116202200Y-97635839D01*
X116202200Y-97635839D02*
X116249819Y-97731077D01*
X116249819Y-97731077D02*
X116249819Y-97921553D01*
X116249819Y-97921553D02*
X116202200Y-98016791D01*
X115583152Y-97207267D02*
X116249819Y-96969172D01*
X115583152Y-96731077D02*
X116249819Y-96969172D01*
X116249819Y-96969172D02*
X116487914Y-97064410D01*
X116487914Y-97064410D02*
X116535533Y-97112029D01*
X116535533Y-97112029D02*
X116583152Y-97207267D01*
X134490200Y-99079839D02*
X134537819Y-98936982D01*
X134537819Y-98936982D02*
X134537819Y-98698887D01*
X134537819Y-98698887D02*
X134490200Y-98603649D01*
X134490200Y-98603649D02*
X134442580Y-98556030D01*
X134442580Y-98556030D02*
X134347342Y-98508411D01*
X134347342Y-98508411D02*
X134252104Y-98508411D01*
X134252104Y-98508411D02*
X134156866Y-98556030D01*
X134156866Y-98556030D02*
X134109247Y-98603649D01*
X134109247Y-98603649D02*
X134061628Y-98698887D01*
X134061628Y-98698887D02*
X134014009Y-98889363D01*
X134014009Y-98889363D02*
X133966390Y-98984601D01*
X133966390Y-98984601D02*
X133918771Y-99032220D01*
X133918771Y-99032220D02*
X133823533Y-99079839D01*
X133823533Y-99079839D02*
X133728295Y-99079839D01*
X133728295Y-99079839D02*
X133633057Y-99032220D01*
X133633057Y-99032220D02*
X133585438Y-98984601D01*
X133585438Y-98984601D02*
X133537819Y-98889363D01*
X133537819Y-98889363D02*
X133537819Y-98651268D01*
X133537819Y-98651268D02*
X133585438Y-98508411D01*
X134537819Y-98079839D02*
X133537819Y-98079839D01*
X133537819Y-98079839D02*
X133537819Y-97841744D01*
X133537819Y-97841744D02*
X133585438Y-97698887D01*
X133585438Y-97698887D02*
X133680676Y-97603649D01*
X133680676Y-97603649D02*
X133775914Y-97556030D01*
X133775914Y-97556030D02*
X133966390Y-97508411D01*
X133966390Y-97508411D02*
X134109247Y-97508411D01*
X134109247Y-97508411D02*
X134299723Y-97556030D01*
X134299723Y-97556030D02*
X134394961Y-97603649D01*
X134394961Y-97603649D02*
X134490200Y-97698887D01*
X134490200Y-97698887D02*
X134537819Y-97841744D01*
X134537819Y-97841744D02*
X134537819Y-98079839D01*
X134252104Y-97127458D02*
X134252104Y-96651268D01*
X134537819Y-97222696D02*
X133537819Y-96889363D01*
X133537819Y-96889363D02*
X134537819Y-96556030D01*
X126663866Y-99794220D02*
X126663866Y-99032316D01*
X127044819Y-99413268D02*
X126282914Y-99413268D01*
X126044819Y-98651363D02*
X126044819Y-98032316D01*
X126044819Y-98032316D02*
X126425771Y-98365649D01*
X126425771Y-98365649D02*
X126425771Y-98222792D01*
X126425771Y-98222792D02*
X126473390Y-98127554D01*
X126473390Y-98127554D02*
X126521009Y-98079935D01*
X126521009Y-98079935D02*
X126616247Y-98032316D01*
X126616247Y-98032316D02*
X126854342Y-98032316D01*
X126854342Y-98032316D02*
X126949580Y-98079935D01*
X126949580Y-98079935D02*
X126997200Y-98127554D01*
X126997200Y-98127554D02*
X127044819Y-98222792D01*
X127044819Y-98222792D02*
X127044819Y-98508506D01*
X127044819Y-98508506D02*
X126997200Y-98603744D01*
X126997200Y-98603744D02*
X126949580Y-98651363D01*
X126949580Y-97603744D02*
X126997200Y-97556125D01*
X126997200Y-97556125D02*
X127044819Y-97603744D01*
X127044819Y-97603744D02*
X126997200Y-97651363D01*
X126997200Y-97651363D02*
X126949580Y-97603744D01*
X126949580Y-97603744D02*
X127044819Y-97603744D01*
X126044819Y-97222792D02*
X126044819Y-96603745D01*
X126044819Y-96603745D02*
X126425771Y-96937078D01*
X126425771Y-96937078D02*
X126425771Y-96794221D01*
X126425771Y-96794221D02*
X126473390Y-96698983D01*
X126473390Y-96698983D02*
X126521009Y-96651364D01*
X126521009Y-96651364D02*
X126616247Y-96603745D01*
X126616247Y-96603745D02*
X126854342Y-96603745D01*
X126854342Y-96603745D02*
X126949580Y-96651364D01*
X126949580Y-96651364D02*
X126997200Y-96698983D01*
X126997200Y-96698983D02*
X127044819Y-96794221D01*
X127044819Y-96794221D02*
X127044819Y-97079935D01*
X127044819Y-97079935D02*
X126997200Y-97175173D01*
X126997200Y-97175173D02*
X126949580Y-97222792D01*
X126044819Y-96318030D02*
X127044819Y-95984697D01*
X127044819Y-95984697D02*
X126044819Y-95651364D01*
X125559112Y-73569009D02*
X125701969Y-73616628D01*
X125701969Y-73616628D02*
X125749588Y-73664247D01*
X125749588Y-73664247D02*
X125797207Y-73759485D01*
X125797207Y-73759485D02*
X125797207Y-73902342D01*
X125797207Y-73902342D02*
X125749588Y-73997580D01*
X125749588Y-73997580D02*
X125701969Y-74045200D01*
X125701969Y-74045200D02*
X125606731Y-74092819D01*
X125606731Y-74092819D02*
X125225779Y-74092819D01*
X125225779Y-74092819D02*
X125225779Y-73092819D01*
X125225779Y-73092819D02*
X125559112Y-73092819D01*
X125559112Y-73092819D02*
X125654350Y-73140438D01*
X125654350Y-73140438D02*
X125701969Y-73188057D01*
X125701969Y-73188057D02*
X125749588Y-73283295D01*
X125749588Y-73283295D02*
X125749588Y-73378533D01*
X125749588Y-73378533D02*
X125701969Y-73473771D01*
X125701969Y-73473771D02*
X125654350Y-73521390D01*
X125654350Y-73521390D02*
X125559112Y-73569009D01*
X125559112Y-73569009D02*
X125225779Y-73569009D01*
X126178160Y-74045200D02*
X126321017Y-74092819D01*
X126321017Y-74092819D02*
X126559112Y-74092819D01*
X126559112Y-74092819D02*
X126654350Y-74045200D01*
X126654350Y-74045200D02*
X126701969Y-73997580D01*
X126701969Y-73997580D02*
X126749588Y-73902342D01*
X126749588Y-73902342D02*
X126749588Y-73807104D01*
X126749588Y-73807104D02*
X126701969Y-73711866D01*
X126701969Y-73711866D02*
X126654350Y-73664247D01*
X126654350Y-73664247D02*
X126559112Y-73616628D01*
X126559112Y-73616628D02*
X126368636Y-73569009D01*
X126368636Y-73569009D02*
X126273398Y-73521390D01*
X126273398Y-73521390D02*
X126225779Y-73473771D01*
X126225779Y-73473771D02*
X126178160Y-73378533D01*
X126178160Y-73378533D02*
X126178160Y-73283295D01*
X126178160Y-73283295D02*
X126225779Y-73188057D01*
X126225779Y-73188057D02*
X126273398Y-73140438D01*
X126273398Y-73140438D02*
X126368636Y-73092819D01*
X126368636Y-73092819D02*
X126606731Y-73092819D01*
X126606731Y-73092819D02*
X126749588Y-73140438D01*
X127701969Y-73140438D02*
X127606731Y-73092819D01*
X127606731Y-73092819D02*
X127463874Y-73092819D01*
X127463874Y-73092819D02*
X127321017Y-73140438D01*
X127321017Y-73140438D02*
X127225779Y-73235676D01*
X127225779Y-73235676D02*
X127178160Y-73330914D01*
X127178160Y-73330914D02*
X127130541Y-73521390D01*
X127130541Y-73521390D02*
X127130541Y-73664247D01*
X127130541Y-73664247D02*
X127178160Y-73854723D01*
X127178160Y-73854723D02*
X127225779Y-73949961D01*
X127225779Y-73949961D02*
X127321017Y-74045200D01*
X127321017Y-74045200D02*
X127463874Y-74092819D01*
X127463874Y-74092819D02*
X127559112Y-74092819D01*
X127559112Y-74092819D02*
X127701969Y-74045200D01*
X127701969Y-74045200D02*
X127749588Y-73997580D01*
X127749588Y-73997580D02*
X127749588Y-73664247D01*
X127749588Y-73664247D02*
X127559112Y-73664247D01*
X129273398Y-73569009D02*
X129416255Y-73616628D01*
X129416255Y-73616628D02*
X129463874Y-73664247D01*
X129463874Y-73664247D02*
X129511493Y-73759485D01*
X129511493Y-73759485D02*
X129511493Y-73902342D01*
X129511493Y-73902342D02*
X129463874Y-73997580D01*
X129463874Y-73997580D02*
X129416255Y-74045200D01*
X129416255Y-74045200D02*
X129321017Y-74092819D01*
X129321017Y-74092819D02*
X128940065Y-74092819D01*
X128940065Y-74092819D02*
X128940065Y-73092819D01*
X128940065Y-73092819D02*
X129273398Y-73092819D01*
X129273398Y-73092819D02*
X129368636Y-73140438D01*
X129368636Y-73140438D02*
X129416255Y-73188057D01*
X129416255Y-73188057D02*
X129463874Y-73283295D01*
X129463874Y-73283295D02*
X129463874Y-73378533D01*
X129463874Y-73378533D02*
X129416255Y-73473771D01*
X129416255Y-73473771D02*
X129368636Y-73521390D01*
X129368636Y-73521390D02*
X129273398Y-73569009D01*
X129273398Y-73569009D02*
X128940065Y-73569009D01*
X130082922Y-74092819D02*
X129987684Y-74045200D01*
X129987684Y-74045200D02*
X129940065Y-73997580D01*
X129940065Y-73997580D02*
X129892446Y-73902342D01*
X129892446Y-73902342D02*
X129892446Y-73616628D01*
X129892446Y-73616628D02*
X129940065Y-73521390D01*
X129940065Y-73521390D02*
X129987684Y-73473771D01*
X129987684Y-73473771D02*
X130082922Y-73426152D01*
X130082922Y-73426152D02*
X130225779Y-73426152D01*
X130225779Y-73426152D02*
X130321017Y-73473771D01*
X130321017Y-73473771D02*
X130368636Y-73521390D01*
X130368636Y-73521390D02*
X130416255Y-73616628D01*
X130416255Y-73616628D02*
X130416255Y-73902342D01*
X130416255Y-73902342D02*
X130368636Y-73997580D01*
X130368636Y-73997580D02*
X130321017Y-74045200D01*
X130321017Y-74045200D02*
X130225779Y-74092819D01*
X130225779Y-74092819D02*
X130082922Y-74092819D01*
X131273398Y-74092819D02*
X131273398Y-73569009D01*
X131273398Y-73569009D02*
X131225779Y-73473771D01*
X131225779Y-73473771D02*
X131130541Y-73426152D01*
X131130541Y-73426152D02*
X130940065Y-73426152D01*
X130940065Y-73426152D02*
X130844827Y-73473771D01*
X131273398Y-74045200D02*
X131178160Y-74092819D01*
X131178160Y-74092819D02*
X130940065Y-74092819D01*
X130940065Y-74092819D02*
X130844827Y-74045200D01*
X130844827Y-74045200D02*
X130797208Y-73949961D01*
X130797208Y-73949961D02*
X130797208Y-73854723D01*
X130797208Y-73854723D02*
X130844827Y-73759485D01*
X130844827Y-73759485D02*
X130940065Y-73711866D01*
X130940065Y-73711866D02*
X131178160Y-73711866D01*
X131178160Y-73711866D02*
X131273398Y-73664247D01*
X131749589Y-74092819D02*
X131749589Y-73426152D01*
X131749589Y-73616628D02*
X131797208Y-73521390D01*
X131797208Y-73521390D02*
X131844827Y-73473771D01*
X131844827Y-73473771D02*
X131940065Y-73426152D01*
X131940065Y-73426152D02*
X132035303Y-73426152D01*
X132797208Y-74092819D02*
X132797208Y-73092819D01*
X132797208Y-74045200D02*
X132701970Y-74092819D01*
X132701970Y-74092819D02*
X132511494Y-74092819D01*
X132511494Y-74092819D02*
X132416256Y-74045200D01*
X132416256Y-74045200D02*
X132368637Y-73997580D01*
X132368637Y-73997580D02*
X132321018Y-73902342D01*
X132321018Y-73902342D02*
X132321018Y-73616628D01*
X132321018Y-73616628D02*
X132368637Y-73521390D01*
X132368637Y-73521390D02*
X132416256Y-73473771D01*
X132416256Y-73473771D02*
X132511494Y-73426152D01*
X132511494Y-73426152D02*
X132701970Y-73426152D01*
X132701970Y-73426152D02*
X132797208Y-73473771D01*
X133940066Y-73426152D02*
X134178161Y-74092819D01*
X134178161Y-74092819D02*
X134416256Y-73426152D01*
X135321018Y-74092819D02*
X134749590Y-74092819D01*
X135035304Y-74092819D02*
X135035304Y-73092819D01*
X135035304Y-73092819D02*
X134940066Y-73235676D01*
X134940066Y-73235676D02*
X134844828Y-73330914D01*
X134844828Y-73330914D02*
X134749590Y-73378533D01*
X135749590Y-73997580D02*
X135797209Y-74045200D01*
X135797209Y-74045200D02*
X135749590Y-74092819D01*
X135749590Y-74092819D02*
X135701971Y-74045200D01*
X135701971Y-74045200D02*
X135749590Y-73997580D01*
X135749590Y-73997580D02*
X135749590Y-74092819D01*
X136416256Y-73092819D02*
X136511494Y-73092819D01*
X136511494Y-73092819D02*
X136606732Y-73140438D01*
X136606732Y-73140438D02*
X136654351Y-73188057D01*
X136654351Y-73188057D02*
X136701970Y-73283295D01*
X136701970Y-73283295D02*
X136749589Y-73473771D01*
X136749589Y-73473771D02*
X136749589Y-73711866D01*
X136749589Y-73711866D02*
X136701970Y-73902342D01*
X136701970Y-73902342D02*
X136654351Y-73997580D01*
X136654351Y-73997580D02*
X136606732Y-74045200D01*
X136606732Y-74045200D02*
X136511494Y-74092819D01*
X136511494Y-74092819D02*
X136416256Y-74092819D01*
X136416256Y-74092819D02*
X136321018Y-74045200D01*
X136321018Y-74045200D02*
X136273399Y-73997580D01*
X136273399Y-73997580D02*
X136225780Y-73902342D01*
X136225780Y-73902342D02*
X136178161Y-73711866D01*
X136178161Y-73711866D02*
X136178161Y-73473771D01*
X136178161Y-73473771D02*
X136225780Y-73283295D01*
X136225780Y-73283295D02*
X136273399Y-73188057D01*
X136273399Y-73188057D02*
X136321018Y-73140438D01*
X136321018Y-73140438D02*
X136416256Y-73092819D01*
X116630819Y-88364220D02*
X115630819Y-88364220D01*
X115964152Y-87888030D02*
X116630819Y-87888030D01*
X116059390Y-87888030D02*
X116011771Y-87840411D01*
X116011771Y-87840411D02*
X115964152Y-87745173D01*
X115964152Y-87745173D02*
X115964152Y-87602316D01*
X115964152Y-87602316D02*
X116011771Y-87507078D01*
X116011771Y-87507078D02*
X116107009Y-87459459D01*
X116107009Y-87459459D02*
X116630819Y-87459459D01*
X116583200Y-85792792D02*
X116630819Y-85888030D01*
X116630819Y-85888030D02*
X116630819Y-86078506D01*
X116630819Y-86078506D02*
X116583200Y-86173744D01*
X116583200Y-86173744D02*
X116535580Y-86221363D01*
X116535580Y-86221363D02*
X116440342Y-86268982D01*
X116440342Y-86268982D02*
X116154628Y-86268982D01*
X116154628Y-86268982D02*
X116059390Y-86221363D01*
X116059390Y-86221363D02*
X116011771Y-86173744D01*
X116011771Y-86173744D02*
X115964152Y-86078506D01*
X115964152Y-86078506D02*
X115964152Y-85888030D01*
X115964152Y-85888030D02*
X116011771Y-85792792D01*
X116630819Y-85221363D02*
X116583200Y-85316601D01*
X116583200Y-85316601D02*
X116535580Y-85364220D01*
X116535580Y-85364220D02*
X116440342Y-85411839D01*
X116440342Y-85411839D02*
X116154628Y-85411839D01*
X116154628Y-85411839D02*
X116059390Y-85364220D01*
X116059390Y-85364220D02*
X116011771Y-85316601D01*
X116011771Y-85316601D02*
X115964152Y-85221363D01*
X115964152Y-85221363D02*
X115964152Y-85078506D01*
X115964152Y-85078506D02*
X116011771Y-84983268D01*
X116011771Y-84983268D02*
X116059390Y-84935649D01*
X116059390Y-84935649D02*
X116154628Y-84888030D01*
X116154628Y-84888030D02*
X116440342Y-84888030D01*
X116440342Y-84888030D02*
X116535580Y-84935649D01*
X116535580Y-84935649D02*
X116583200Y-84983268D01*
X116583200Y-84983268D02*
X116630819Y-85078506D01*
X116630819Y-85078506D02*
X116630819Y-85221363D01*
X116630819Y-84316601D02*
X116583200Y-84411839D01*
X116583200Y-84411839D02*
X116487961Y-84459458D01*
X116487961Y-84459458D02*
X115630819Y-84459458D01*
X116630819Y-83792791D02*
X116583200Y-83888029D01*
X116583200Y-83888029D02*
X116487961Y-83935648D01*
X116487961Y-83935648D02*
X115630819Y-83935648D01*
X116630819Y-82983267D02*
X116107009Y-82983267D01*
X116107009Y-82983267D02*
X116011771Y-83030886D01*
X116011771Y-83030886D02*
X115964152Y-83126124D01*
X115964152Y-83126124D02*
X115964152Y-83316600D01*
X115964152Y-83316600D02*
X116011771Y-83411838D01*
X116583200Y-82983267D02*
X116630819Y-83078505D01*
X116630819Y-83078505D02*
X116630819Y-83316600D01*
X116630819Y-83316600D02*
X116583200Y-83411838D01*
X116583200Y-83411838D02*
X116487961Y-83459457D01*
X116487961Y-83459457D02*
X116392723Y-83459457D01*
X116392723Y-83459457D02*
X116297485Y-83411838D01*
X116297485Y-83411838D02*
X116249866Y-83316600D01*
X116249866Y-83316600D02*
X116249866Y-83078505D01*
X116249866Y-83078505D02*
X116202247Y-82983267D01*
X116630819Y-82507076D02*
X115630819Y-82507076D01*
X116011771Y-82507076D02*
X115964152Y-82411838D01*
X115964152Y-82411838D02*
X115964152Y-82221362D01*
X115964152Y-82221362D02*
X116011771Y-82126124D01*
X116011771Y-82126124D02*
X116059390Y-82078505D01*
X116059390Y-82078505D02*
X116154628Y-82030886D01*
X116154628Y-82030886D02*
X116440342Y-82030886D01*
X116440342Y-82030886D02*
X116535580Y-82078505D01*
X116535580Y-82078505D02*
X116583200Y-82126124D01*
X116583200Y-82126124D02*
X116630819Y-82221362D01*
X116630819Y-82221362D02*
X116630819Y-82411838D01*
X116630819Y-82411838D02*
X116583200Y-82507076D01*
X116630819Y-81459457D02*
X116583200Y-81554695D01*
X116583200Y-81554695D02*
X116535580Y-81602314D01*
X116535580Y-81602314D02*
X116440342Y-81649933D01*
X116440342Y-81649933D02*
X116154628Y-81649933D01*
X116154628Y-81649933D02*
X116059390Y-81602314D01*
X116059390Y-81602314D02*
X116011771Y-81554695D01*
X116011771Y-81554695D02*
X115964152Y-81459457D01*
X115964152Y-81459457D02*
X115964152Y-81316600D01*
X115964152Y-81316600D02*
X116011771Y-81221362D01*
X116011771Y-81221362D02*
X116059390Y-81173743D01*
X116059390Y-81173743D02*
X116154628Y-81126124D01*
X116154628Y-81126124D02*
X116440342Y-81126124D01*
X116440342Y-81126124D02*
X116535580Y-81173743D01*
X116535580Y-81173743D02*
X116583200Y-81221362D01*
X116583200Y-81221362D02*
X116630819Y-81316600D01*
X116630819Y-81316600D02*
X116630819Y-81459457D01*
X116630819Y-80697552D02*
X115964152Y-80697552D01*
X116154628Y-80697552D02*
X116059390Y-80649933D01*
X116059390Y-80649933D02*
X116011771Y-80602314D01*
X116011771Y-80602314D02*
X115964152Y-80507076D01*
X115964152Y-80507076D02*
X115964152Y-80411838D01*
X116630819Y-79649933D02*
X116107009Y-79649933D01*
X116107009Y-79649933D02*
X116011771Y-79697552D01*
X116011771Y-79697552D02*
X115964152Y-79792790D01*
X115964152Y-79792790D02*
X115964152Y-79983266D01*
X115964152Y-79983266D02*
X116011771Y-80078504D01*
X116583200Y-79649933D02*
X116630819Y-79745171D01*
X116630819Y-79745171D02*
X116630819Y-79983266D01*
X116630819Y-79983266D02*
X116583200Y-80078504D01*
X116583200Y-80078504D02*
X116487961Y-80126123D01*
X116487961Y-80126123D02*
X116392723Y-80126123D01*
X116392723Y-80126123D02*
X116297485Y-80078504D01*
X116297485Y-80078504D02*
X116249866Y-79983266D01*
X116249866Y-79983266D02*
X116249866Y-79745171D01*
X116249866Y-79745171D02*
X116202247Y-79649933D01*
X115964152Y-79316599D02*
X115964152Y-78935647D01*
X115630819Y-79173742D02*
X116487961Y-79173742D01*
X116487961Y-79173742D02*
X116583200Y-79126123D01*
X116583200Y-79126123D02*
X116630819Y-79030885D01*
X116630819Y-79030885D02*
X116630819Y-78935647D01*
X116630819Y-78602313D02*
X115964152Y-78602313D01*
X115630819Y-78602313D02*
X115678438Y-78649932D01*
X115678438Y-78649932D02*
X115726057Y-78602313D01*
X115726057Y-78602313D02*
X115678438Y-78554694D01*
X115678438Y-78554694D02*
X115630819Y-78602313D01*
X115630819Y-78602313D02*
X115726057Y-78602313D01*
X116630819Y-77983266D02*
X116583200Y-78078504D01*
X116583200Y-78078504D02*
X116535580Y-78126123D01*
X116535580Y-78126123D02*
X116440342Y-78173742D01*
X116440342Y-78173742D02*
X116154628Y-78173742D01*
X116154628Y-78173742D02*
X116059390Y-78126123D01*
X116059390Y-78126123D02*
X116011771Y-78078504D01*
X116011771Y-78078504D02*
X115964152Y-77983266D01*
X115964152Y-77983266D02*
X115964152Y-77840409D01*
X115964152Y-77840409D02*
X116011771Y-77745171D01*
X116011771Y-77745171D02*
X116059390Y-77697552D01*
X116059390Y-77697552D02*
X116154628Y-77649933D01*
X116154628Y-77649933D02*
X116440342Y-77649933D01*
X116440342Y-77649933D02*
X116535580Y-77697552D01*
X116535580Y-77697552D02*
X116583200Y-77745171D01*
X116583200Y-77745171D02*
X116630819Y-77840409D01*
X116630819Y-77840409D02*
X116630819Y-77983266D01*
X115964152Y-77221361D02*
X116630819Y-77221361D01*
X116059390Y-77221361D02*
X116011771Y-77173742D01*
X116011771Y-77173742D02*
X115964152Y-77078504D01*
X115964152Y-77078504D02*
X115964152Y-76935647D01*
X115964152Y-76935647D02*
X116011771Y-76840409D01*
X116011771Y-76840409D02*
X116107009Y-76792790D01*
X116107009Y-76792790D02*
X116630819Y-76792790D01*
X115964152Y-75649932D02*
X116630819Y-75459456D01*
X116630819Y-75459456D02*
X116154628Y-75268980D01*
X116154628Y-75268980D02*
X116630819Y-75078504D01*
X116630819Y-75078504D02*
X115964152Y-74888028D01*
X116630819Y-74507075D02*
X115964152Y-74507075D01*
X115630819Y-74507075D02*
X115678438Y-74554694D01*
X115678438Y-74554694D02*
X115726057Y-74507075D01*
X115726057Y-74507075D02*
X115678438Y-74459456D01*
X115678438Y-74459456D02*
X115630819Y-74507075D01*
X115630819Y-74507075D02*
X115726057Y-74507075D01*
X115964152Y-74173742D02*
X115964152Y-73792790D01*
X115630819Y-74030885D02*
X116487961Y-74030885D01*
X116487961Y-74030885D02*
X116583200Y-73983266D01*
X116583200Y-73983266D02*
X116630819Y-73888028D01*
X116630819Y-73888028D02*
X116630819Y-73792790D01*
X116630819Y-73459456D02*
X115630819Y-73459456D01*
X116630819Y-73030885D02*
X116107009Y-73030885D01*
X116107009Y-73030885D02*
X116011771Y-73078504D01*
X116011771Y-73078504D02*
X115964152Y-73173742D01*
X115964152Y-73173742D02*
X115964152Y-73316599D01*
X115964152Y-73316599D02*
X116011771Y-73411837D01*
X116011771Y-73411837D02*
X116059390Y-73459456D01*
X123539666Y-78630819D02*
X123539666Y-79345104D01*
X123539666Y-79345104D02*
X123492047Y-79487961D01*
X123492047Y-79487961D02*
X123396809Y-79583200D01*
X123396809Y-79583200D02*
X123253952Y-79630819D01*
X123253952Y-79630819D02*
X123158714Y-79630819D01*
X124539666Y-79630819D02*
X123968238Y-79630819D01*
X124253952Y-79630819D02*
X124253952Y-78630819D01*
X124253952Y-78630819D02*
X124158714Y-78773676D01*
X124158714Y-78773676D02*
X124063476Y-78868914D01*
X124063476Y-78868914D02*
X123968238Y-78916533D01*
X154099095Y-87266819D02*
X154099095Y-88076342D01*
X154099095Y-88076342D02*
X154146714Y-88171580D01*
X154146714Y-88171580D02*
X154194333Y-88219200D01*
X154194333Y-88219200D02*
X154289571Y-88266819D01*
X154289571Y-88266819D02*
X154480047Y-88266819D01*
X154480047Y-88266819D02*
X154575285Y-88219200D01*
X154575285Y-88219200D02*
X154622904Y-88171580D01*
X154622904Y-88171580D02*
X154670523Y-88076342D01*
X154670523Y-88076342D02*
X154670523Y-87266819D01*
X155670523Y-88266819D02*
X155099095Y-88266819D01*
X155384809Y-88266819D02*
X155384809Y-87266819D01*
X155384809Y-87266819D02*
X155289571Y-87409676D01*
X155289571Y-87409676D02*
X155194333Y-87504914D01*
X155194333Y-87504914D02*
X155099095Y-87552533D01*
X151694810Y-84726819D02*
X151932905Y-85726819D01*
X151932905Y-85726819D02*
X152123381Y-85012533D01*
X152123381Y-85012533D02*
X152313857Y-85726819D01*
X152313857Y-85726819D02*
X152551953Y-84726819D01*
X153313857Y-85679200D02*
X153218619Y-85726819D01*
X153218619Y-85726819D02*
X153028143Y-85726819D01*
X153028143Y-85726819D02*
X152932905Y-85679200D01*
X152932905Y-85679200D02*
X152885286Y-85583961D01*
X152885286Y-85583961D02*
X152885286Y-85203009D01*
X152885286Y-85203009D02*
X152932905Y-85107771D01*
X152932905Y-85107771D02*
X153028143Y-85060152D01*
X153028143Y-85060152D02*
X153218619Y-85060152D01*
X153218619Y-85060152D02*
X153313857Y-85107771D01*
X153313857Y-85107771D02*
X153361476Y-85203009D01*
X153361476Y-85203009D02*
X153361476Y-85298247D01*
X153361476Y-85298247D02*
X152885286Y-85393485D01*
X153790048Y-85726819D02*
X153790048Y-85060152D01*
X153790048Y-85155390D02*
X153837667Y-85107771D01*
X153837667Y-85107771D02*
X153932905Y-85060152D01*
X153932905Y-85060152D02*
X154075762Y-85060152D01*
X154075762Y-85060152D02*
X154171000Y-85107771D01*
X154171000Y-85107771D02*
X154218619Y-85203009D01*
X154218619Y-85203009D02*
X154218619Y-85726819D01*
X154218619Y-85203009D02*
X154266238Y-85107771D01*
X154266238Y-85107771D02*
X154361476Y-85060152D01*
X154361476Y-85060152D02*
X154504333Y-85060152D01*
X154504333Y-85060152D02*
X154599572Y-85107771D01*
X154599572Y-85107771D02*
X154647191Y-85203009D01*
X154647191Y-85203009D02*
X154647191Y-85726819D01*
X155266238Y-85726819D02*
X155171000Y-85679200D01*
X155171000Y-85679200D02*
X155123381Y-85631580D01*
X155123381Y-85631580D02*
X155075762Y-85536342D01*
X155075762Y-85536342D02*
X155075762Y-85250628D01*
X155075762Y-85250628D02*
X155123381Y-85155390D01*
X155123381Y-85155390D02*
X155171000Y-85107771D01*
X155171000Y-85107771D02*
X155266238Y-85060152D01*
X155266238Y-85060152D02*
X155409095Y-85060152D01*
X155409095Y-85060152D02*
X155504333Y-85107771D01*
X155504333Y-85107771D02*
X155551952Y-85155390D01*
X155551952Y-85155390D02*
X155599571Y-85250628D01*
X155599571Y-85250628D02*
X155599571Y-85536342D01*
X155599571Y-85536342D02*
X155551952Y-85631580D01*
X155551952Y-85631580D02*
X155504333Y-85679200D01*
X155504333Y-85679200D02*
X155409095Y-85726819D01*
X155409095Y-85726819D02*
X155266238Y-85726819D01*
X155980524Y-85679200D02*
X156075762Y-85726819D01*
X156075762Y-85726819D02*
X156266238Y-85726819D01*
X156266238Y-85726819D02*
X156361476Y-85679200D01*
X156361476Y-85679200D02*
X156409095Y-85583961D01*
X156409095Y-85583961D02*
X156409095Y-85536342D01*
X156409095Y-85536342D02*
X156361476Y-85441104D01*
X156361476Y-85441104D02*
X156266238Y-85393485D01*
X156266238Y-85393485D02*
X156123381Y-85393485D01*
X156123381Y-85393485D02*
X156028143Y-85345866D01*
X156028143Y-85345866D02*
X155980524Y-85250628D01*
X155980524Y-85250628D02*
X155980524Y-85203009D01*
X155980524Y-85203009D02*
X156028143Y-85107771D01*
X156028143Y-85107771D02*
X156123381Y-85060152D01*
X156123381Y-85060152D02*
X156266238Y-85060152D01*
X156266238Y-85060152D02*
X156361476Y-85107771D01*
X156599572Y-85822057D02*
X157361476Y-85822057D01*
X157980524Y-85679200D02*
X157885286Y-85726819D01*
X157885286Y-85726819D02*
X157694810Y-85726819D01*
X157694810Y-85726819D02*
X157599572Y-85679200D01*
X157599572Y-85679200D02*
X157551953Y-85583961D01*
X157551953Y-85583961D02*
X157551953Y-85203009D01*
X157551953Y-85203009D02*
X157599572Y-85107771D01*
X157599572Y-85107771D02*
X157694810Y-85060152D01*
X157694810Y-85060152D02*
X157885286Y-85060152D01*
X157885286Y-85060152D02*
X157980524Y-85107771D01*
X157980524Y-85107771D02*
X158028143Y-85203009D01*
X158028143Y-85203009D02*
X158028143Y-85298247D01*
X158028143Y-85298247D02*
X157551953Y-85393485D01*
X158409096Y-85679200D02*
X158504334Y-85726819D01*
X158504334Y-85726819D02*
X158694810Y-85726819D01*
X158694810Y-85726819D02*
X158790048Y-85679200D01*
X158790048Y-85679200D02*
X158837667Y-85583961D01*
X158837667Y-85583961D02*
X158837667Y-85536342D01*
X158837667Y-85536342D02*
X158790048Y-85441104D01*
X158790048Y-85441104D02*
X158694810Y-85393485D01*
X158694810Y-85393485D02*
X158551953Y-85393485D01*
X158551953Y-85393485D02*
X158456715Y-85345866D01*
X158456715Y-85345866D02*
X158409096Y-85250628D01*
X158409096Y-85250628D02*
X158409096Y-85203009D01*
X158409096Y-85203009D02*
X158456715Y-85107771D01*
X158456715Y-85107771D02*
X158551953Y-85060152D01*
X158551953Y-85060152D02*
X158694810Y-85060152D01*
X158694810Y-85060152D02*
X158790048Y-85107771D01*
X159266239Y-85060152D02*
X159266239Y-86060152D01*
X159266239Y-85107771D02*
X159361477Y-85060152D01*
X159361477Y-85060152D02*
X159551953Y-85060152D01*
X159551953Y-85060152D02*
X159647191Y-85107771D01*
X159647191Y-85107771D02*
X159694810Y-85155390D01*
X159694810Y-85155390D02*
X159742429Y-85250628D01*
X159742429Y-85250628D02*
X159742429Y-85536342D01*
X159742429Y-85536342D02*
X159694810Y-85631580D01*
X159694810Y-85631580D02*
X159647191Y-85679200D01*
X159647191Y-85679200D02*
X159551953Y-85726819D01*
X159551953Y-85726819D02*
X159361477Y-85726819D01*
X159361477Y-85726819D02*
X159266239Y-85679200D01*
X160075763Y-84726819D02*
X160694810Y-84726819D01*
X160694810Y-84726819D02*
X160361477Y-85107771D01*
X160361477Y-85107771D02*
X160504334Y-85107771D01*
X160504334Y-85107771D02*
X160599572Y-85155390D01*
X160599572Y-85155390D02*
X160647191Y-85203009D01*
X160647191Y-85203009D02*
X160694810Y-85298247D01*
X160694810Y-85298247D02*
X160694810Y-85536342D01*
X160694810Y-85536342D02*
X160647191Y-85631580D01*
X160647191Y-85631580D02*
X160599572Y-85679200D01*
X160599572Y-85679200D02*
X160504334Y-85726819D01*
X160504334Y-85726819D02*
X160218620Y-85726819D01*
X160218620Y-85726819D02*
X160123382Y-85679200D01*
X160123382Y-85679200D02*
X160075763Y-85631580D01*
X161075763Y-84822057D02*
X161123382Y-84774438D01*
X161123382Y-84774438D02*
X161218620Y-84726819D01*
X161218620Y-84726819D02*
X161456715Y-84726819D01*
X161456715Y-84726819D02*
X161551953Y-84774438D01*
X161551953Y-84774438D02*
X161599572Y-84822057D01*
X161599572Y-84822057D02*
X161647191Y-84917295D01*
X161647191Y-84917295D02*
X161647191Y-85012533D01*
X161647191Y-85012533D02*
X161599572Y-85155390D01*
X161599572Y-85155390D02*
X161028144Y-85726819D01*
X161028144Y-85726819D02*
X161647191Y-85726819D01*
X161837668Y-85822057D02*
X162599572Y-85822057D01*
X162837668Y-85726819D02*
X162837668Y-85060152D01*
X162837668Y-85155390D02*
X162885287Y-85107771D01*
X162885287Y-85107771D02*
X162980525Y-85060152D01*
X162980525Y-85060152D02*
X163123382Y-85060152D01*
X163123382Y-85060152D02*
X163218620Y-85107771D01*
X163218620Y-85107771D02*
X163266239Y-85203009D01*
X163266239Y-85203009D02*
X163266239Y-85726819D01*
X163266239Y-85203009D02*
X163313858Y-85107771D01*
X163313858Y-85107771D02*
X163409096Y-85060152D01*
X163409096Y-85060152D02*
X163551953Y-85060152D01*
X163551953Y-85060152D02*
X163647192Y-85107771D01*
X163647192Y-85107771D02*
X163694811Y-85203009D01*
X163694811Y-85203009D02*
X163694811Y-85726819D01*
X164171001Y-85726819D02*
X164171001Y-85060152D01*
X164171001Y-84726819D02*
X164123382Y-84774438D01*
X164123382Y-84774438D02*
X164171001Y-84822057D01*
X164171001Y-84822057D02*
X164218620Y-84774438D01*
X164218620Y-84774438D02*
X164171001Y-84726819D01*
X164171001Y-84726819D02*
X164171001Y-84822057D01*
X164647191Y-85060152D02*
X164647191Y-85726819D01*
X164647191Y-85155390D02*
X164694810Y-85107771D01*
X164694810Y-85107771D02*
X164790048Y-85060152D01*
X164790048Y-85060152D02*
X164932905Y-85060152D01*
X164932905Y-85060152D02*
X165028143Y-85107771D01*
X165028143Y-85107771D02*
X165075762Y-85203009D01*
X165075762Y-85203009D02*
X165075762Y-85726819D01*
X165551953Y-85726819D02*
X165551953Y-85060152D01*
X165551953Y-84726819D02*
X165504334Y-84774438D01*
X165504334Y-84774438D02*
X165551953Y-84822057D01*
X165551953Y-84822057D02*
X165599572Y-84774438D01*
X165599572Y-84774438D02*
X165551953Y-84726819D01*
X165551953Y-84726819D02*
X165551953Y-84822057D01*
X146693380Y-102236819D02*
X146360047Y-101760628D01*
X146121952Y-102236819D02*
X146121952Y-101236819D01*
X146121952Y-101236819D02*
X146502904Y-101236819D01*
X146502904Y-101236819D02*
X146598142Y-101284438D01*
X146598142Y-101284438D02*
X146645761Y-101332057D01*
X146645761Y-101332057D02*
X146693380Y-101427295D01*
X146693380Y-101427295D02*
X146693380Y-101570152D01*
X146693380Y-101570152D02*
X146645761Y-101665390D01*
X146645761Y-101665390D02*
X146598142Y-101713009D01*
X146598142Y-101713009D02*
X146502904Y-101760628D01*
X146502904Y-101760628D02*
X146121952Y-101760628D01*
X147074333Y-102189200D02*
X147217190Y-102236819D01*
X147217190Y-102236819D02*
X147455285Y-102236819D01*
X147455285Y-102236819D02*
X147550523Y-102189200D01*
X147550523Y-102189200D02*
X147598142Y-102141580D01*
X147598142Y-102141580D02*
X147645761Y-102046342D01*
X147645761Y-102046342D02*
X147645761Y-101951104D01*
X147645761Y-101951104D02*
X147598142Y-101855866D01*
X147598142Y-101855866D02*
X147550523Y-101808247D01*
X147550523Y-101808247D02*
X147455285Y-101760628D01*
X147455285Y-101760628D02*
X147264809Y-101713009D01*
X147264809Y-101713009D02*
X147169571Y-101665390D01*
X147169571Y-101665390D02*
X147121952Y-101617771D01*
X147121952Y-101617771D02*
X147074333Y-101522533D01*
X147074333Y-101522533D02*
X147074333Y-101427295D01*
X147074333Y-101427295D02*
X147121952Y-101332057D01*
X147121952Y-101332057D02*
X147169571Y-101284438D01*
X147169571Y-101284438D02*
X147264809Y-101236819D01*
X147264809Y-101236819D02*
X147502904Y-101236819D01*
X147502904Y-101236819D02*
X147645761Y-101284438D01*
X147931476Y-101236819D02*
X148502904Y-101236819D01*
X148217190Y-102236819D02*
X148217190Y-101236819D01*
X157409095Y-106316819D02*
X157409095Y-107126342D01*
X157409095Y-107126342D02*
X157456714Y-107221580D01*
X157456714Y-107221580D02*
X157504333Y-107269200D01*
X157504333Y-107269200D02*
X157599571Y-107316819D01*
X157599571Y-107316819D02*
X157790047Y-107316819D01*
X157790047Y-107316819D02*
X157885285Y-107269200D01*
X157885285Y-107269200D02*
X157932904Y-107221580D01*
X157932904Y-107221580D02*
X157980523Y-107126342D01*
X157980523Y-107126342D02*
X157980523Y-106316819D01*
X158409095Y-107269200D02*
X158551952Y-107316819D01*
X158551952Y-107316819D02*
X158790047Y-107316819D01*
X158790047Y-107316819D02*
X158885285Y-107269200D01*
X158885285Y-107269200D02*
X158932904Y-107221580D01*
X158932904Y-107221580D02*
X158980523Y-107126342D01*
X158980523Y-107126342D02*
X158980523Y-107031104D01*
X158980523Y-107031104D02*
X158932904Y-106935866D01*
X158932904Y-106935866D02*
X158885285Y-106888247D01*
X158885285Y-106888247D02*
X158790047Y-106840628D01*
X158790047Y-106840628D02*
X158599571Y-106793009D01*
X158599571Y-106793009D02*
X158504333Y-106745390D01*
X158504333Y-106745390D02*
X158456714Y-106697771D01*
X158456714Y-106697771D02*
X158409095Y-106602533D01*
X158409095Y-106602533D02*
X158409095Y-106507295D01*
X158409095Y-106507295D02*
X158456714Y-106412057D01*
X158456714Y-106412057D02*
X158504333Y-106364438D01*
X158504333Y-106364438D02*
X158599571Y-106316819D01*
X158599571Y-106316819D02*
X158837666Y-106316819D01*
X158837666Y-106316819D02*
X158980523Y-106364438D01*
X159742428Y-106793009D02*
X159885285Y-106840628D01*
X159885285Y-106840628D02*
X159932904Y-106888247D01*
X159932904Y-106888247D02*
X159980523Y-106983485D01*
X159980523Y-106983485D02*
X159980523Y-107126342D01*
X159980523Y-107126342D02*
X159932904Y-107221580D01*
X159932904Y-107221580D02*
X159885285Y-107269200D01*
X159885285Y-107269200D02*
X159790047Y-107316819D01*
X159790047Y-107316819D02*
X159409095Y-107316819D01*
X159409095Y-107316819D02*
X159409095Y-106316819D01*
X159409095Y-106316819D02*
X159742428Y-106316819D01*
X159742428Y-106316819D02*
X159837666Y-106364438D01*
X159837666Y-106364438D02*
X159885285Y-106412057D01*
X159885285Y-106412057D02*
X159932904Y-106507295D01*
X159932904Y-106507295D02*
X159932904Y-106602533D01*
X159932904Y-106602533D02*
X159885285Y-106697771D01*
X159885285Y-106697771D02*
X159837666Y-106745390D01*
X159837666Y-106745390D02*
X159742428Y-106793009D01*
X159742428Y-106793009D02*
X159409095Y-106793009D01*
X139494095Y-96029819D02*
X139494095Y-96839342D01*
X139494095Y-96839342D02*
X139541714Y-96934580D01*
X139541714Y-96934580D02*
X139589333Y-96982200D01*
X139589333Y-96982200D02*
X139684571Y-97029819D01*
X139684571Y-97029819D02*
X139875047Y-97029819D01*
X139875047Y-97029819D02*
X139970285Y-96982200D01*
X139970285Y-96982200D02*
X140017904Y-96934580D01*
X140017904Y-96934580D02*
X140065523Y-96839342D01*
X140065523Y-96839342D02*
X140065523Y-96029819D01*
X140494095Y-96125057D02*
X140541714Y-96077438D01*
X140541714Y-96077438D02*
X140636952Y-96029819D01*
X140636952Y-96029819D02*
X140875047Y-96029819D01*
X140875047Y-96029819D02*
X140970285Y-96077438D01*
X140970285Y-96077438D02*
X141017904Y-96125057D01*
X141017904Y-96125057D02*
X141065523Y-96220295D01*
X141065523Y-96220295D02*
X141065523Y-96315533D01*
X141065523Y-96315533D02*
X141017904Y-96458390D01*
X141017904Y-96458390D02*
X140446476Y-97029819D01*
X140446476Y-97029819D02*
X141065523Y-97029819D01*
X127294714Y-79249819D02*
X126961381Y-78773628D01*
X126723286Y-79249819D02*
X126723286Y-78249819D01*
X126723286Y-78249819D02*
X127104238Y-78249819D01*
X127104238Y-78249819D02*
X127199476Y-78297438D01*
X127199476Y-78297438D02*
X127247095Y-78345057D01*
X127247095Y-78345057D02*
X127294714Y-78440295D01*
X127294714Y-78440295D02*
X127294714Y-78583152D01*
X127294714Y-78583152D02*
X127247095Y-78678390D01*
X127247095Y-78678390D02*
X127199476Y-78726009D01*
X127199476Y-78726009D02*
X127104238Y-78773628D01*
X127104238Y-78773628D02*
X126723286Y-78773628D01*
X128056619Y-78726009D02*
X127723286Y-78726009D01*
X127723286Y-79249819D02*
X127723286Y-78249819D01*
X127723286Y-78249819D02*
X128199476Y-78249819D01*
X128580429Y-79249819D02*
X128580429Y-78249819D01*
X128580429Y-78249819D02*
X128913762Y-78964104D01*
X128913762Y-78964104D02*
X129247095Y-78249819D01*
X129247095Y-78249819D02*
X129247095Y-79249819D01*
X129770905Y-79249819D02*
X129961381Y-79249819D01*
X129961381Y-79249819D02*
X130056619Y-79202200D01*
X130056619Y-79202200D02*
X130104238Y-79154580D01*
X130104238Y-79154580D02*
X130199476Y-79011723D01*
X130199476Y-79011723D02*
X130247095Y-78821247D01*
X130247095Y-78821247D02*
X130247095Y-78440295D01*
X130247095Y-78440295D02*
X130199476Y-78345057D01*
X130199476Y-78345057D02*
X130151857Y-78297438D01*
X130151857Y-78297438D02*
X130056619Y-78249819D01*
X130056619Y-78249819D02*
X129866143Y-78249819D01*
X129866143Y-78249819D02*
X129770905Y-78297438D01*
X129770905Y-78297438D02*
X129723286Y-78345057D01*
X129723286Y-78345057D02*
X129675667Y-78440295D01*
X129675667Y-78440295D02*
X129675667Y-78678390D01*
X129675667Y-78678390D02*
X129723286Y-78773628D01*
X129723286Y-78773628D02*
X129770905Y-78821247D01*
X129770905Y-78821247D02*
X129866143Y-78868866D01*
X129866143Y-78868866D02*
X130056619Y-78868866D01*
X130056619Y-78868866D02*
X130151857Y-78821247D01*
X130151857Y-78821247D02*
X130199476Y-78773628D01*
X130199476Y-78773628D02*
X130247095Y-78678390D01*
X131151857Y-78249819D02*
X130675667Y-78249819D01*
X130675667Y-78249819D02*
X130628048Y-78726009D01*
X130628048Y-78726009D02*
X130675667Y-78678390D01*
X130675667Y-78678390D02*
X130770905Y-78630771D01*
X130770905Y-78630771D02*
X131009000Y-78630771D01*
X131009000Y-78630771D02*
X131104238Y-78678390D01*
X131104238Y-78678390D02*
X131151857Y-78726009D01*
X131151857Y-78726009D02*
X131199476Y-78821247D01*
X131199476Y-78821247D02*
X131199476Y-79059342D01*
X131199476Y-79059342D02*
X131151857Y-79154580D01*
X131151857Y-79154580D02*
X131104238Y-79202200D01*
X131104238Y-79202200D02*
X131009000Y-79249819D01*
X131009000Y-79249819D02*
X130770905Y-79249819D01*
X130770905Y-79249819D02*
X130675667Y-79202200D01*
X130675667Y-79202200D02*
X130628048Y-79154580D01*
X131532810Y-78249819D02*
X131770905Y-79249819D01*
X131770905Y-79249819D02*
X131961381Y-78535533D01*
X131961381Y-78535533D02*
X132151857Y-79249819D01*
X132151857Y-79249819D02*
X132389953Y-78249819D01*
X132770905Y-78868866D02*
X133532810Y-78868866D01*
X134056619Y-79249819D02*
X134247095Y-79249819D01*
X134247095Y-79249819D02*
X134342333Y-79202200D01*
X134342333Y-79202200D02*
X134389952Y-79154580D01*
X134389952Y-79154580D02*
X134485190Y-79011723D01*
X134485190Y-79011723D02*
X134532809Y-78821247D01*
X134532809Y-78821247D02*
X134532809Y-78440295D01*
X134532809Y-78440295D02*
X134485190Y-78345057D01*
X134485190Y-78345057D02*
X134437571Y-78297438D01*
X134437571Y-78297438D02*
X134342333Y-78249819D01*
X134342333Y-78249819D02*
X134151857Y-78249819D01*
X134151857Y-78249819D02*
X134056619Y-78297438D01*
X134056619Y-78297438D02*
X134009000Y-78345057D01*
X134009000Y-78345057D02*
X133961381Y-78440295D01*
X133961381Y-78440295D02*
X133961381Y-78678390D01*
X133961381Y-78678390D02*
X134009000Y-78773628D01*
X134009000Y-78773628D02*
X134056619Y-78821247D01*
X134056619Y-78821247D02*
X134151857Y-78868866D01*
X134151857Y-78868866D02*
X134342333Y-78868866D01*
X134342333Y-78868866D02*
X134437571Y-78821247D01*
X134437571Y-78821247D02*
X134485190Y-78773628D01*
X134485190Y-78773628D02*
X134532809Y-78678390D01*
X135485190Y-79249819D02*
X134913762Y-79249819D01*
X135199476Y-79249819D02*
X135199476Y-78249819D01*
X135199476Y-78249819D02*
X135104238Y-78392676D01*
X135104238Y-78392676D02*
X135009000Y-78487914D01*
X135009000Y-78487914D02*
X134913762Y-78535533D01*
X136389952Y-78249819D02*
X135913762Y-78249819D01*
X135913762Y-78249819D02*
X135866143Y-78726009D01*
X135866143Y-78726009D02*
X135913762Y-78678390D01*
X135913762Y-78678390D02*
X136009000Y-78630771D01*
X136009000Y-78630771D02*
X136247095Y-78630771D01*
X136247095Y-78630771D02*
X136342333Y-78678390D01*
X136342333Y-78678390D02*
X136389952Y-78726009D01*
X136389952Y-78726009D02*
X136437571Y-78821247D01*
X136437571Y-78821247D02*
X136437571Y-79059342D01*
X136437571Y-79059342D02*
X136389952Y-79154580D01*
X136389952Y-79154580D02*
X136342333Y-79202200D01*
X136342333Y-79202200D02*
X136247095Y-79249819D01*
X136247095Y-79249819D02*
X136009000Y-79249819D01*
X136009000Y-79249819D02*
X135913762Y-79202200D01*
X135913762Y-79202200D02*
X135866143Y-79154580D01*
X136818524Y-79202200D02*
X136961381Y-79249819D01*
X136961381Y-79249819D02*
X137199476Y-79249819D01*
X137199476Y-79249819D02*
X137294714Y-79202200D01*
X137294714Y-79202200D02*
X137342333Y-79154580D01*
X137342333Y-79154580D02*
X137389952Y-79059342D01*
X137389952Y-79059342D02*
X137389952Y-78964104D01*
X137389952Y-78964104D02*
X137342333Y-78868866D01*
X137342333Y-78868866D02*
X137294714Y-78821247D01*
X137294714Y-78821247D02*
X137199476Y-78773628D01*
X137199476Y-78773628D02*
X137009000Y-78726009D01*
X137009000Y-78726009D02*
X136913762Y-78678390D01*
X136913762Y-78678390D02*
X136866143Y-78630771D01*
X136866143Y-78630771D02*
X136818524Y-78535533D01*
X136818524Y-78535533D02*
X136818524Y-78440295D01*
X136818524Y-78440295D02*
X136866143Y-78345057D01*
X136866143Y-78345057D02*
X136913762Y-78297438D01*
X136913762Y-78297438D02*
X137009000Y-78249819D01*
X137009000Y-78249819D02*
X137247095Y-78249819D01*
X137247095Y-78249819D02*
X137389952Y-78297438D01*
X137770905Y-78345057D02*
X137818524Y-78297438D01*
X137818524Y-78297438D02*
X137913762Y-78249819D01*
X137913762Y-78249819D02*
X138151857Y-78249819D01*
X138151857Y-78249819D02*
X138247095Y-78297438D01*
X138247095Y-78297438D02*
X138294714Y-78345057D01*
X138294714Y-78345057D02*
X138342333Y-78440295D01*
X138342333Y-78440295D02*
X138342333Y-78535533D01*
X138342333Y-78535533D02*
X138294714Y-78678390D01*
X138294714Y-78678390D02*
X137723286Y-79249819D01*
X137723286Y-79249819D02*
X138342333Y-79249819D01*
X122523666Y-107840819D02*
X122523666Y-108555104D01*
X122523666Y-108555104D02*
X122476047Y-108697961D01*
X122476047Y-108697961D02*
X122380809Y-108793200D01*
X122380809Y-108793200D02*
X122237952Y-108840819D01*
X122237952Y-108840819D02*
X122142714Y-108840819D01*
X122952238Y-107936057D02*
X122999857Y-107888438D01*
X122999857Y-107888438D02*
X123095095Y-107840819D01*
X123095095Y-107840819D02*
X123333190Y-107840819D01*
X123333190Y-107840819D02*
X123428428Y-107888438D01*
X123428428Y-107888438D02*
X123476047Y-107936057D01*
X123476047Y-107936057D02*
X123523666Y-108031295D01*
X123523666Y-108031295D02*
X123523666Y-108126533D01*
X123523666Y-108126533D02*
X123476047Y-108269390D01*
X123476047Y-108269390D02*
X122904619Y-108840819D01*
X122904619Y-108840819D02*
X123523666Y-108840819D01*
%TO.C,G\u002A\u002A\u002A*%
G36*
X122522286Y-94975259D02*
G01*
X121709409Y-94975259D01*
X121709409Y-94755305D01*
X122369274Y-94755305D01*
X122369274Y-94391901D01*
X122522286Y-94391901D01*
X122522286Y-94975259D01*
G37*
G36*
X118677858Y-100808844D02*
G01*
X116831827Y-100808844D01*
X116834380Y-100562590D01*
X116836932Y-100316336D01*
X117580475Y-100313887D01*
X118324018Y-100311437D01*
X118324018Y-99498678D01*
X118677858Y-99498678D01*
X118677858Y-100808844D01*
G37*
G36*
X121852858Y-93971118D02*
G01*
X122388400Y-93971118D01*
X122388400Y-93846795D01*
X122522286Y-93846795D01*
X122522286Y-94315395D01*
X122388400Y-94315395D01*
X122388400Y-94191073D01*
X121852858Y-94191073D01*
X121852858Y-94315395D01*
X121709409Y-94315395D01*
X121709409Y-93846795D01*
X121852858Y-93846795D01*
X121852858Y-93971118D01*
G37*
G36*
X121862421Y-96706208D02*
G01*
X122005870Y-96706208D01*
X122005870Y-96352368D01*
X122158451Y-96352368D01*
X122161057Y-96526897D01*
X122163664Y-96701426D01*
X122364492Y-96701426D01*
X122369678Y-96323678D01*
X122522286Y-96323678D01*
X122522286Y-96916600D01*
X121709409Y-96916600D01*
X121709409Y-96323678D01*
X121862421Y-96323678D01*
X121862421Y-96706208D01*
G37*
G36*
X122522286Y-93155772D02*
G01*
X122238331Y-93324364D01*
X121954376Y-93492955D01*
X122522286Y-93492955D01*
X122522286Y-93693783D01*
X121709409Y-93693783D01*
X121710001Y-93421231D01*
X121941614Y-93282564D01*
X122173227Y-93143896D01*
X121941318Y-93141336D01*
X121709409Y-93138775D01*
X121709409Y-92938286D01*
X122522286Y-92938286D01*
X122522286Y-93155772D01*
G37*
G36*
X121852858Y-100149282D02*
G01*
X122118238Y-100146740D01*
X122383619Y-100144198D01*
X122386466Y-100084427D01*
X122389313Y-100024657D01*
X122522286Y-100024657D01*
X122522286Y-100493256D01*
X122388400Y-100493256D01*
X122388400Y-100368934D01*
X121852858Y-100368934D01*
X121852858Y-100493256D01*
X121709409Y-100493256D01*
X121709409Y-100024657D01*
X121852858Y-100024657D01*
X121852858Y-100149282D01*
G37*
G36*
X122522286Y-97315965D02*
G01*
X122242566Y-97482077D01*
X121962847Y-97648189D01*
X122242566Y-97650724D01*
X122522286Y-97653259D01*
X122522286Y-97853798D01*
X121709409Y-97853798D01*
X121710001Y-97581246D01*
X121941614Y-97442579D01*
X122173227Y-97303911D01*
X121941318Y-97301351D01*
X121709409Y-97298790D01*
X121709409Y-97098301D01*
X122522286Y-97098301D01*
X122522286Y-97315965D01*
G37*
G36*
X122521999Y-90339472D02*
G01*
X122521712Y-90447059D01*
X122238253Y-90614416D01*
X121954795Y-90781773D01*
X122238540Y-90784306D01*
X122522286Y-90786839D01*
X122522286Y-90987383D01*
X121709409Y-90987383D01*
X121709409Y-90712615D01*
X121939136Y-90575056D01*
X122168863Y-90437496D01*
X121709409Y-90432374D01*
X121709409Y-90231886D01*
X122522286Y-90231886D01*
X122521999Y-90339472D01*
G37*
G36*
X120038529Y-96533374D02*
G01*
X120077255Y-96545630D01*
X120083395Y-96548912D01*
X120113465Y-96571092D01*
X120134599Y-96599083D01*
X120148299Y-96636456D01*
X120156072Y-96686780D01*
X120158632Y-96727490D01*
X120162387Y-96820967D01*
X119851232Y-96820967D01*
X119857396Y-96720214D01*
X119862691Y-96660077D01*
X119870911Y-96615592D01*
X119883244Y-96583360D01*
X119900879Y-96559986D01*
X119918225Y-96546273D01*
X119951390Y-96533574D01*
X119994033Y-96529315D01*
X120038529Y-96533374D01*
G37*
G36*
X122522286Y-99192351D02*
G01*
X122258198Y-99194893D01*
X121994110Y-99197436D01*
X122162328Y-99273942D01*
X122330545Y-99350448D01*
X122330783Y-99427182D01*
X122331021Y-99503917D01*
X122164039Y-99580194D01*
X121997058Y-99656472D01*
X122522286Y-99661556D01*
X122522286Y-99871645D01*
X121709409Y-99871645D01*
X121709409Y-99616550D01*
X121905456Y-99522470D01*
X121961590Y-99495285D01*
X122011452Y-99470664D01*
X122052613Y-99449845D01*
X122082640Y-99434069D01*
X122099106Y-99424574D01*
X122101503Y-99422506D01*
X122093267Y-99416861D01*
X122070178Y-99404260D01*
X122034665Y-99385946D01*
X121989156Y-99363158D01*
X121936081Y-99337138D01*
X121905456Y-99322338D01*
X121709409Y-99228055D01*
X121709409Y-98972699D01*
X122522286Y-98972699D01*
X122522286Y-99192351D01*
G37*
G36*
X120286912Y-95213695D02*
G01*
X120327215Y-95215803D01*
X120359935Y-95220318D01*
X120390831Y-95227979D01*
X120418352Y-95236953D01*
X120489348Y-95266198D01*
X120542971Y-95299343D01*
X120580863Y-95338207D01*
X120604662Y-95384608D01*
X120616011Y-95440365D01*
X120617156Y-95457341D01*
X120617037Y-95504284D01*
X120611431Y-95537568D01*
X120604730Y-95553836D01*
X120565342Y-95608678D01*
X120512196Y-95651593D01*
X120444924Y-95682721D01*
X120363158Y-95702205D01*
X120266532Y-95710186D01*
X120201088Y-95709506D01*
X120106772Y-95701088D01*
X120028448Y-95683687D01*
X119964951Y-95656772D01*
X119915114Y-95619811D01*
X119877770Y-95572271D01*
X119870192Y-95558559D01*
X119854174Y-95523470D01*
X119846898Y-95493461D01*
X119846128Y-95457947D01*
X119846673Y-95447262D01*
X119858813Y-95382759D01*
X119887019Y-95328629D01*
X119931287Y-95284875D01*
X119991611Y-95251500D01*
X120067986Y-95228507D01*
X120160407Y-95215899D01*
X120233264Y-95213257D01*
X120286912Y-95213695D01*
G37*
G36*
X118677858Y-96740833D02*
G01*
X118412478Y-96897100D01*
X118344038Y-96937391D01*
X118262711Y-96985253D01*
X118172102Y-97038564D01*
X118075815Y-97095206D01*
X117977452Y-97153059D01*
X117880618Y-97210002D01*
X117788917Y-97263916D01*
X117771299Y-97274272D01*
X117395501Y-97495176D01*
X118036679Y-97497635D01*
X118677858Y-97500093D01*
X118677858Y-97949431D01*
X116832150Y-97949431D01*
X116832379Y-97645798D01*
X116832607Y-97342164D01*
X117164702Y-97146318D01*
X117246174Y-97098269D01*
X117330232Y-97048692D01*
X117413661Y-96999482D01*
X117493244Y-96952538D01*
X117565765Y-96909756D01*
X117628008Y-96873034D01*
X117673717Y-96846062D01*
X117726835Y-96814503D01*
X117774902Y-96785546D01*
X117815270Y-96760817D01*
X117845292Y-96741944D01*
X117862320Y-96730554D01*
X117864640Y-96728712D01*
X117865289Y-96725866D01*
X117859687Y-96723456D01*
X117846497Y-96721448D01*
X117824380Y-96719808D01*
X117792000Y-96718502D01*
X117748017Y-96717496D01*
X117691093Y-96716756D01*
X117619892Y-96716249D01*
X117533075Y-96715939D01*
X117429304Y-96715794D01*
X117355397Y-96715771D01*
X116832150Y-96715771D01*
X116832150Y-96266298D01*
X118677858Y-96266298D01*
X118677858Y-96740833D01*
G37*
G36*
X118525582Y-98276714D02*
G01*
X118673076Y-98279363D01*
X118678020Y-99336103D01*
X118517755Y-99336121D01*
X118357489Y-99336139D01*
X118360470Y-99219583D01*
X118361191Y-99172253D01*
X118360934Y-99130219D01*
X118359785Y-99098132D01*
X118357897Y-99080897D01*
X118352343Y-99058768D01*
X117147738Y-99058768D01*
X117147738Y-99336103D01*
X116822425Y-99336103D01*
X116827369Y-98279363D01*
X117142956Y-98279363D01*
X117145602Y-98420421D01*
X117148249Y-98561479D01*
X117749455Y-98561479D01*
X117871913Y-98561451D01*
X117976640Y-98561342D01*
X118065030Y-98561114D01*
X118138478Y-98560730D01*
X118198380Y-98560152D01*
X118246128Y-98559343D01*
X118283120Y-98558265D01*
X118310749Y-98556882D01*
X118330411Y-98555155D01*
X118343499Y-98553047D01*
X118351410Y-98550521D01*
X118355538Y-98547539D01*
X118356922Y-98545163D01*
X118359220Y-98529638D01*
X118360879Y-98499329D01*
X118361748Y-98458571D01*
X118361673Y-98411698D01*
X118361657Y-98410435D01*
X118361762Y-98364342D01*
X118363162Y-98325109D01*
X118365623Y-98296749D01*
X118368910Y-98283273D01*
X118369109Y-98283044D01*
X118381524Y-98280008D01*
X118409765Y-98277797D01*
X118450546Y-98276546D01*
X118500579Y-98276388D01*
X118525582Y-98276714D01*
G37*
G36*
X122099455Y-101682519D02*
G01*
X122125452Y-101692222D01*
X122164931Y-101707380D01*
X122215756Y-101727162D01*
X122275792Y-101750740D01*
X122342902Y-101777282D01*
X122390606Y-101796250D01*
X122684629Y-101913399D01*
X122684745Y-101993093D01*
X122683957Y-102028934D01*
X122681755Y-102055605D01*
X122678554Y-102068906D01*
X122677201Y-102069599D01*
X122665386Y-102064732D01*
X122640438Y-102054482D01*
X122606917Y-102040723D01*
X122592440Y-102034783D01*
X122515339Y-102003155D01*
X122310812Y-102085647D01*
X122251816Y-102109455D01*
X122198405Y-102131034D01*
X122153256Y-102149301D01*
X122119046Y-102163173D01*
X122098450Y-102171567D01*
X122093924Y-102173442D01*
X122087816Y-102172027D01*
X122084487Y-102159384D01*
X122083579Y-102132724D01*
X122084361Y-102099251D01*
X122087158Y-102019756D01*
X122218748Y-101972251D01*
X122264608Y-101955203D01*
X122302740Y-101940081D01*
X122330155Y-101928147D01*
X122343860Y-101920664D01*
X122344747Y-101919073D01*
X122334142Y-101914002D01*
X122308894Y-101903998D01*
X122272438Y-101890365D01*
X122228211Y-101874409D01*
X122213157Y-101869089D01*
X122087158Y-101824778D01*
X122084365Y-101751939D01*
X122083944Y-101717386D01*
X122085354Y-101691702D01*
X122088294Y-101679512D01*
X122089077Y-101679100D01*
X122099455Y-101682519D01*
G37*
G36*
X122315177Y-102206713D02*
G01*
X122382695Y-102218830D01*
X122440693Y-102245220D01*
X122486599Y-102284582D01*
X122497849Y-102299040D01*
X122519395Y-102343755D01*
X122529950Y-102396607D01*
X122528752Y-102449990D01*
X122517171Y-102491817D01*
X122508762Y-102516749D01*
X122511623Y-102528223D01*
X122512246Y-102528476D01*
X122517375Y-102539237D01*
X122520910Y-102564890D01*
X122522284Y-102601229D01*
X122522286Y-102602751D01*
X122522286Y-102673678D01*
X122352860Y-102673678D01*
X121910238Y-102673678D01*
X121910238Y-102530229D01*
X122015433Y-102530229D01*
X122057706Y-102529867D01*
X122091869Y-102528884D01*
X122114061Y-102527437D01*
X122120629Y-102525954D01*
X122116510Y-102515814D01*
X122105931Y-102494366D01*
X122096721Y-102476713D01*
X122093163Y-102467095D01*
X122174958Y-102467095D01*
X122180179Y-102488082D01*
X122192404Y-102525448D01*
X122304942Y-102528144D01*
X122352860Y-102529131D01*
X122385134Y-102529003D01*
X122405240Y-102527210D01*
X122416653Y-102523206D01*
X122422847Y-102516441D01*
X122426242Y-102509017D01*
X122435014Y-102464504D01*
X122426788Y-102421587D01*
X122423988Y-102415470D01*
X122400941Y-102389097D01*
X122364840Y-102370190D01*
X122320663Y-102359829D01*
X122273388Y-102359098D01*
X122227991Y-102369078D01*
X122221783Y-102371510D01*
X122191515Y-102393403D01*
X122175571Y-102426205D01*
X122174958Y-102467095D01*
X122093163Y-102467095D01*
X122079466Y-102430070D01*
X122072685Y-102379030D01*
X122076769Y-102330743D01*
X122087148Y-102300731D01*
X122118144Y-102260989D01*
X122163569Y-102231264D01*
X122220980Y-102212564D01*
X122287934Y-102205895D01*
X122315177Y-102206713D01*
G37*
G36*
X122519070Y-95070309D02*
G01*
X122520623Y-95094924D01*
X122521733Y-95131679D01*
X122522261Y-95177083D01*
X122522286Y-95189851D01*
X122522286Y-95318373D01*
X122359962Y-95436105D01*
X122311636Y-95471367D01*
X122269020Y-95502866D01*
X122234393Y-95528886D01*
X122210032Y-95547710D01*
X122198213Y-95557621D01*
X122197452Y-95558618D01*
X122204454Y-95566479D01*
X122222142Y-95580222D01*
X122228873Y-95584917D01*
X122242876Y-95593486D01*
X122257848Y-95599430D01*
X122277477Y-95603221D01*
X122305453Y-95605336D01*
X122345465Y-95606249D01*
X122396164Y-95606434D01*
X122531849Y-95606434D01*
X122531849Y-95816826D01*
X121709409Y-95816826D01*
X121709409Y-95606434D01*
X121887126Y-95606434D01*
X121946479Y-95605988D01*
X121995974Y-95604731D01*
X122033211Y-95602782D01*
X122055791Y-95600261D01*
X122061656Y-95597720D01*
X122053487Y-95589604D01*
X122032318Y-95571596D01*
X122000317Y-95545457D01*
X121959653Y-95512944D01*
X121912494Y-95475817D01*
X121883939Y-95453574D01*
X121709409Y-95318142D01*
X121709409Y-95194517D01*
X121709772Y-95148408D01*
X121710765Y-95110110D01*
X121712244Y-95083184D01*
X121714064Y-95071190D01*
X121714412Y-95070892D01*
X121722823Y-95076766D01*
X121743847Y-95093288D01*
X121775450Y-95118804D01*
X121815598Y-95151663D01*
X121862258Y-95190212D01*
X121902348Y-95223571D01*
X121953698Y-95265841D01*
X122000121Y-95302931D01*
X122039595Y-95333311D01*
X122070095Y-95355451D01*
X122089599Y-95367823D01*
X122095782Y-95369779D01*
X122106009Y-95362529D01*
X122129435Y-95345422D01*
X122163924Y-95320033D01*
X122207341Y-95287938D01*
X122257552Y-95250712D01*
X122309210Y-95212319D01*
X122363483Y-95172073D01*
X122412660Y-95135868D01*
X122454684Y-95105198D01*
X122487496Y-95081556D01*
X122509038Y-95066437D01*
X122517211Y-95061329D01*
X122519070Y-95070309D01*
G37*
G36*
X122515249Y-92008137D02*
G01*
X122518651Y-92019794D01*
X122520740Y-92044187D01*
X122521722Y-92083534D01*
X122521832Y-92132018D01*
X122521378Y-92264077D01*
X122369297Y-92373195D01*
X122321595Y-92407371D01*
X122278727Y-92437989D01*
X122243303Y-92463192D01*
X122217937Y-92481121D01*
X122205239Y-92489919D01*
X122204785Y-92490213D01*
X122200311Y-92498784D01*
X122210223Y-92512288D01*
X122221043Y-92521809D01*
X122233056Y-92531012D01*
X122245421Y-92537471D01*
X122261632Y-92541683D01*
X122285185Y-92544142D01*
X122319574Y-92545343D01*
X122368294Y-92545781D01*
X122390791Y-92545849D01*
X122531849Y-92546193D01*
X122531849Y-92766148D01*
X121709409Y-92766148D01*
X121709409Y-92546193D01*
X121886329Y-92546193D01*
X121942079Y-92545826D01*
X121990562Y-92544804D01*
X122028814Y-92543249D01*
X122053869Y-92541280D01*
X122062762Y-92539021D01*
X122055363Y-92531356D01*
X122034919Y-92513886D01*
X122003613Y-92488380D01*
X121963629Y-92456603D01*
X121917149Y-92420325D01*
X121894996Y-92403232D01*
X121845701Y-92365149D01*
X121801293Y-92330500D01*
X121764109Y-92301134D01*
X121736485Y-92278903D01*
X121720756Y-92265657D01*
X121718270Y-92263231D01*
X121714648Y-92249253D01*
X121712208Y-92219641D01*
X121711125Y-92177860D01*
X121711506Y-92130444D01*
X121714191Y-92009042D01*
X121899435Y-92162858D01*
X121950087Y-92204810D01*
X121995724Y-92242403D01*
X122034341Y-92274003D01*
X122063931Y-92297974D01*
X122082488Y-92312678D01*
X122088067Y-92316675D01*
X122096327Y-92311203D01*
X122117878Y-92295778D01*
X122150685Y-92271890D01*
X122192712Y-92241029D01*
X122241923Y-92204683D01*
X122294916Y-92165358D01*
X122349743Y-92124650D01*
X122399878Y-92087554D01*
X122443172Y-92055650D01*
X122477472Y-92030521D01*
X122500628Y-92013748D01*
X122510332Y-92007000D01*
X122515249Y-92008137D01*
G37*
G36*
X122161314Y-91120496D02*
G01*
X122228426Y-91128039D01*
X122260781Y-91135449D01*
X122336137Y-91166129D01*
X122403334Y-91211323D01*
X122458925Y-91268264D01*
X122493893Y-91322680D01*
X122519313Y-91389426D01*
X122534599Y-91467132D01*
X122539211Y-91550210D01*
X122532608Y-91633073D01*
X122526910Y-91663972D01*
X122501823Y-91739991D01*
X122462383Y-91808774D01*
X122411086Y-91867285D01*
X122350425Y-91912488D01*
X122304919Y-91934144D01*
X122209685Y-91960987D01*
X122133317Y-91967750D01*
X122115595Y-91969319D01*
X122019995Y-91959372D01*
X122019441Y-91959263D01*
X121944809Y-91940100D01*
X121883872Y-91913612D01*
X121831825Y-91877329D01*
X121799361Y-91846125D01*
X121752412Y-91784305D01*
X121719584Y-91713274D01*
X121699449Y-91629928D01*
X121699186Y-91628244D01*
X121693238Y-91546833D01*
X121843295Y-91546833D01*
X121851558Y-91605471D01*
X121876442Y-91654740D01*
X121897106Y-91677821D01*
X121943498Y-91709870D01*
X122001113Y-91732090D01*
X122065776Y-91744512D01*
X122133317Y-91747169D01*
X122199564Y-91740093D01*
X122260343Y-91723316D01*
X122311484Y-91696871D01*
X122337678Y-91674409D01*
X122369499Y-91626970D01*
X122385217Y-91572543D01*
X122384158Y-91515440D01*
X122369814Y-91468569D01*
X122339544Y-91424534D01*
X122293787Y-91389726D01*
X122234207Y-91364909D01*
X122162468Y-91350846D01*
X122106284Y-91347808D01*
X122057746Y-91348845D01*
X122021575Y-91352976D01*
X121991123Y-91361243D01*
X121972399Y-91368814D01*
X121914707Y-91401786D01*
X121874381Y-91442099D01*
X121850789Y-91490626D01*
X121843295Y-91546833D01*
X121693238Y-91546833D01*
X121692271Y-91533597D01*
X121700871Y-91444492D01*
X121724057Y-91362700D01*
X121760895Y-91289991D01*
X121810457Y-91228133D01*
X121871809Y-91178897D01*
X121944021Y-91144053D01*
X121956066Y-91140073D01*
X122017494Y-91126629D01*
X122088457Y-91120065D01*
X122161314Y-91120496D01*
G37*
G36*
X122158533Y-97992065D02*
G01*
X122241331Y-98005431D01*
X122318094Y-98031341D01*
X122385304Y-98069319D01*
X122423626Y-98101666D01*
X122471669Y-98162668D01*
X122507657Y-98235935D01*
X122530783Y-98318261D01*
X122540238Y-98406442D01*
X122535217Y-98497273D01*
X122530496Y-98525985D01*
X122506535Y-98605248D01*
X122467581Y-98676469D01*
X122415696Y-98736754D01*
X122352941Y-98783206D01*
X122343653Y-98788311D01*
X122287331Y-98813635D01*
X122229715Y-98829582D01*
X122165402Y-98837148D01*
X122125053Y-98837245D01*
X122088985Y-98837332D01*
X122080172Y-98836969D01*
X122030722Y-98834029D01*
X121994039Y-98829490D01*
X121963767Y-98822040D01*
X121933547Y-98810369D01*
X121918987Y-98803727D01*
X121858878Y-98771145D01*
X121812254Y-98734898D01*
X121773497Y-98690435D01*
X121765920Y-98679757D01*
X121729874Y-98611975D01*
X121705838Y-98533570D01*
X121694126Y-98449052D01*
X121694453Y-98418683D01*
X121843463Y-98418683D01*
X121848297Y-98469472D01*
X121861020Y-98504249D01*
X121892922Y-98544914D01*
X121938767Y-98577216D01*
X121995063Y-98600663D01*
X122058322Y-98614763D01*
X122125053Y-98619024D01*
X122191768Y-98612956D01*
X122254975Y-98596067D01*
X122311186Y-98567864D01*
X122311436Y-98567699D01*
X122348861Y-98532151D01*
X122374558Y-98485539D01*
X122387043Y-98432952D01*
X122384830Y-98379479D01*
X122375480Y-98348240D01*
X122350144Y-98309446D01*
X122309507Y-98273697D01*
X122257394Y-98244119D01*
X122238563Y-98236334D01*
X122207728Y-98225975D01*
X122178962Y-98220159D01*
X122145614Y-98218122D01*
X122101031Y-98219100D01*
X122091939Y-98219508D01*
X122020181Y-98227048D01*
X121962569Y-98242948D01*
X121915529Y-98268372D01*
X121897266Y-98282868D01*
X121868935Y-98319349D01*
X121850671Y-98366631D01*
X121843463Y-98418683D01*
X121694453Y-98418683D01*
X121695052Y-98362933D01*
X121708930Y-98279722D01*
X121733228Y-98210004D01*
X121766544Y-98154211D01*
X121812052Y-98101657D01*
X121864308Y-98057853D01*
X121909107Y-98031996D01*
X121988903Y-98004871D01*
X122073218Y-97991719D01*
X122158533Y-97992065D01*
G37*
G36*
X118673336Y-100990160D02*
G01*
X118674634Y-101016156D01*
X118675723Y-101056660D01*
X118676561Y-101109364D01*
X118677105Y-101171958D01*
X118677313Y-101242135D01*
X118677286Y-101275052D01*
X118676715Y-101569122D01*
X118304543Y-101832112D01*
X118229897Y-101884983D01*
X118160240Y-101934560D01*
X118097090Y-101979744D01*
X118041967Y-102019436D01*
X117996392Y-102052539D01*
X117961884Y-102077952D01*
X117939964Y-102094578D01*
X117932150Y-102101317D01*
X117932148Y-102101335D01*
X117939173Y-102109591D01*
X117957980Y-102125824D01*
X117984823Y-102146841D01*
X117991099Y-102151542D01*
X118050274Y-102195515D01*
X118677858Y-102195515D01*
X118677858Y-102692805D01*
X116832150Y-102692805D01*
X116832150Y-102195515D01*
X117234371Y-102195515D01*
X117319764Y-102195331D01*
X117398740Y-102194804D01*
X117469358Y-102193973D01*
X117529675Y-102192878D01*
X117577751Y-102191559D01*
X117611644Y-102190055D01*
X117629412Y-102188405D01*
X117631612Y-102187457D01*
X117623278Y-102180243D01*
X117601188Y-102162514D01*
X117566771Y-102135381D01*
X117521455Y-102099958D01*
X117466670Y-102057356D01*
X117403844Y-102008689D01*
X117334406Y-101955070D01*
X117259786Y-101897611D01*
X117229405Y-101874260D01*
X116832179Y-101569122D01*
X116832165Y-101288600D01*
X116832478Y-101199438D01*
X116833414Y-101126844D01*
X116834954Y-101071374D01*
X116837080Y-101033581D01*
X116839772Y-101014020D01*
X116841651Y-101011266D01*
X116851946Y-101018375D01*
X116876906Y-101037707D01*
X116916506Y-101069239D01*
X116970716Y-101112948D01*
X117039509Y-101168813D01*
X117122858Y-101236811D01*
X117220736Y-101316919D01*
X117333115Y-101409116D01*
X117459967Y-101513379D01*
X117490152Y-101538212D01*
X117685036Y-101698566D01*
X117729583Y-101666063D01*
X117749272Y-101651669D01*
X117781807Y-101627848D01*
X117824616Y-101596487D01*
X117875124Y-101559471D01*
X117930757Y-101518688D01*
X117984522Y-101479262D01*
X118114364Y-101384083D01*
X118229302Y-101299929D01*
X118329811Y-101226455D01*
X118416368Y-101163315D01*
X118489449Y-101110166D01*
X118549528Y-101066661D01*
X118597083Y-101032456D01*
X118632589Y-101007206D01*
X118656522Y-100990566D01*
X118669359Y-100982191D01*
X118671872Y-100980982D01*
X118673336Y-100990160D01*
G37*
G36*
X118673076Y-90684865D02*
G01*
X118319236Y-90893128D01*
X118229769Y-90945771D01*
X118132968Y-91002701D01*
X118032860Y-91061553D01*
X117933472Y-91119958D01*
X117838834Y-91175550D01*
X117752971Y-91225963D01*
X117685671Y-91265452D01*
X117619511Y-91304495D01*
X117558933Y-91340707D01*
X117505842Y-91372913D01*
X117462142Y-91399939D01*
X117429739Y-91420608D01*
X117410538Y-91433747D01*
X117405945Y-91437965D01*
X117415275Y-91439478D01*
X117442330Y-91440891D01*
X117485709Y-91442185D01*
X117544012Y-91443341D01*
X117615837Y-91444342D01*
X117699784Y-91445167D01*
X117794451Y-91445799D01*
X117898437Y-91446220D01*
X118010342Y-91446410D01*
X118041902Y-91446419D01*
X118677858Y-91446419D01*
X118677858Y-91886329D01*
X117390511Y-91886329D01*
X117280218Y-91886330D01*
X117179329Y-91886330D01*
X117089166Y-91886331D01*
X117011053Y-91886331D01*
X116946316Y-91886332D01*
X116896277Y-91886333D01*
X116862261Y-91886334D01*
X116845590Y-91886334D01*
X116844104Y-91886335D01*
X116842270Y-91877154D01*
X116840450Y-91851130D01*
X116838718Y-91810549D01*
X116837148Y-91757693D01*
X116835814Y-91694847D01*
X116834789Y-91624295D01*
X116834408Y-91585866D01*
X116831884Y-91285390D01*
X116887006Y-91252451D01*
X116909696Y-91238941D01*
X116946127Y-91217312D01*
X116993577Y-91189175D01*
X117049320Y-91156147D01*
X117110636Y-91119840D01*
X117174799Y-91081869D01*
X117181209Y-91078077D01*
X117247931Y-91038598D01*
X117314269Y-90999333D01*
X117377001Y-90962188D01*
X117432906Y-90929072D01*
X117478764Y-90901892D01*
X117511141Y-90882682D01*
X117552769Y-90857975D01*
X117605117Y-90826932D01*
X117662445Y-90792957D01*
X117719013Y-90759451D01*
X117738268Y-90748051D01*
X117783657Y-90720761D01*
X117822640Y-90696517D01*
X117852488Y-90677082D01*
X117870473Y-90664218D01*
X117874545Y-90660025D01*
X117865271Y-90658644D01*
X117838604Y-90657348D01*
X117796279Y-90656161D01*
X117740030Y-90655107D01*
X117671590Y-90654210D01*
X117592693Y-90653496D01*
X117505075Y-90652989D01*
X117410468Y-90652713D01*
X117353171Y-90652669D01*
X116831798Y-90652669D01*
X116834365Y-90430323D01*
X116836932Y-90207978D01*
X117757559Y-90205642D01*
X118678186Y-90203307D01*
X118673076Y-90684865D01*
G37*
G36*
X122326582Y-100584418D02*
G01*
X122383719Y-100605233D01*
X122427108Y-100634531D01*
X122470133Y-100683392D01*
X122503320Y-100746643D01*
X122526186Y-100821995D01*
X122538249Y-100907157D01*
X122539027Y-100999839D01*
X122528036Y-101097748D01*
X122526507Y-101106438D01*
X122517445Y-101149737D01*
X122506434Y-101192842D01*
X122496009Y-101225979D01*
X122478700Y-101272661D01*
X122388982Y-101275431D01*
X122348897Y-101275712D01*
X122315910Y-101274162D01*
X122294781Y-101271093D01*
X122290058Y-101268996D01*
X122288400Y-101254446D01*
X122299929Y-101232754D01*
X122334906Y-101175066D01*
X122361789Y-101114200D01*
X122380559Y-101052561D01*
X122391192Y-100992556D01*
X122393668Y-100936592D01*
X122387965Y-100887075D01*
X122374060Y-100846412D01*
X122351934Y-100817009D01*
X122321564Y-100801273D01*
X122303810Y-100799280D01*
X122280844Y-100806486D01*
X122260105Y-100828832D01*
X122240996Y-100867414D01*
X122222919Y-100923329D01*
X122211665Y-100968507D01*
X122188779Y-101056237D01*
X122163627Y-101126405D01*
X122134848Y-101180554D01*
X122101086Y-101220226D01*
X122060980Y-101246963D01*
X122013172Y-101262310D01*
X121956305Y-101267808D01*
X121948010Y-101267880D01*
X121886327Y-101258969D01*
X121831678Y-101232408D01*
X121784381Y-101188456D01*
X121744754Y-101127374D01*
X121726768Y-101087637D01*
X121717860Y-101062975D01*
X121711754Y-101038554D01*
X121707939Y-101009944D01*
X121705901Y-100972712D01*
X121705130Y-100922429D01*
X121705064Y-100899695D01*
X121705560Y-100840047D01*
X121707564Y-100794051D01*
X121711646Y-100756255D01*
X121718378Y-100721209D01*
X121727344Y-100686912D01*
X121749758Y-100608015D01*
X121838996Y-100608015D01*
X121878480Y-100608945D01*
X121910338Y-100611437D01*
X121930018Y-100615050D01*
X121933939Y-100617244D01*
X121932508Y-100630037D01*
X121922330Y-100651803D01*
X121915272Y-100663297D01*
X121886235Y-100717582D01*
X121864107Y-100779693D01*
X121850106Y-100843973D01*
X121845448Y-100904764D01*
X121851350Y-100956409D01*
X121851827Y-100958216D01*
X121869686Y-101004421D01*
X121893375Y-101034012D01*
X121922059Y-101046081D01*
X121932555Y-101046058D01*
X121957433Y-101037938D01*
X121978311Y-101017672D01*
X121996269Y-100983374D01*
X122012382Y-100933158D01*
X122023158Y-100887447D01*
X122041860Y-100808884D01*
X122061377Y-100746540D01*
X122082815Y-100697508D01*
X122107277Y-100658884D01*
X122112586Y-100652206D01*
X122156545Y-100613015D01*
X122209316Y-100588516D01*
X122267222Y-100578915D01*
X122326582Y-100584418D01*
G37*
G36*
X118669302Y-94152843D02*
G01*
X118672243Y-94159219D01*
X118674420Y-94172970D01*
X118675949Y-94195982D01*
X118676943Y-94230142D01*
X118677517Y-94277336D01*
X118677783Y-94339452D01*
X118677856Y-94418376D01*
X118677858Y-94439004D01*
X118677858Y-94735836D01*
X118307282Y-94999824D01*
X118232882Y-95053000D01*
X118163470Y-95102949D01*
X118100562Y-95148557D01*
X118045677Y-95188706D01*
X118000332Y-95222281D01*
X117966043Y-95248166D01*
X117944329Y-95265244D01*
X117936706Y-95272399D01*
X117936706Y-95272407D01*
X117943838Y-95281899D01*
X117962683Y-95299092D01*
X117989412Y-95320540D01*
X117994086Y-95324077D01*
X118051465Y-95367152D01*
X118364662Y-95367252D01*
X118677858Y-95367353D01*
X118677858Y-95864642D01*
X116832150Y-95864642D01*
X116832150Y-95367353D01*
X117236198Y-95366964D01*
X117640245Y-95366575D01*
X117606774Y-95337934D01*
X117592577Y-95326450D01*
X117564827Y-95304609D01*
X117525162Y-95273678D01*
X117475217Y-95234926D01*
X117416629Y-95189618D01*
X117351033Y-95139023D01*
X117280068Y-95084408D01*
X117205368Y-95027040D01*
X117202873Y-95025126D01*
X116832443Y-94740960D01*
X116832297Y-94461234D01*
X116832511Y-94390306D01*
X116833187Y-94325995D01*
X116834262Y-94270669D01*
X116835673Y-94226695D01*
X116837355Y-94196440D01*
X116839245Y-94182271D01*
X116839811Y-94181509D01*
X116848943Y-94187343D01*
X116870824Y-94203796D01*
X116903462Y-94229296D01*
X116944870Y-94262272D01*
X116993056Y-94301152D01*
X117046031Y-94344365D01*
X117047812Y-94345824D01*
X117121610Y-94406328D01*
X117196598Y-94467761D01*
X117271258Y-94528886D01*
X117344076Y-94588462D01*
X117413533Y-94645253D01*
X117478114Y-94698018D01*
X117536302Y-94745519D01*
X117586580Y-94786518D01*
X117627432Y-94819775D01*
X117657342Y-94844052D01*
X117674793Y-94858110D01*
X117678498Y-94861012D01*
X117688800Y-94857788D01*
X117711826Y-94844635D01*
X117745060Y-94823185D01*
X117785985Y-94795067D01*
X117832085Y-94761910D01*
X117836292Y-94758816D01*
X117889102Y-94719947D01*
X117942750Y-94680544D01*
X117992963Y-94643739D01*
X118035473Y-94612664D01*
X118061028Y-94594057D01*
X118097605Y-94567436D01*
X118144183Y-94533427D01*
X118195359Y-94495981D01*
X118245729Y-94459048D01*
X118257075Y-94450717D01*
X118306683Y-94414284D01*
X118360802Y-94374553D01*
X118416978Y-94333324D01*
X118472753Y-94292400D01*
X118525673Y-94253582D01*
X118573279Y-94218672D01*
X118613117Y-94189472D01*
X118642729Y-94167783D01*
X118659661Y-94155407D01*
X118660676Y-94154668D01*
X118665484Y-94151955D01*
X118669302Y-94152843D01*
G37*
G36*
X117931391Y-92197560D02*
G01*
X118053754Y-92220876D01*
X118168849Y-92256333D01*
X118273723Y-92303876D01*
X118329087Y-92337221D01*
X118428738Y-92415036D01*
X118514072Y-92505311D01*
X118584573Y-92607264D01*
X118639722Y-92720109D01*
X118679002Y-92843064D01*
X118687119Y-92879357D01*
X118695994Y-92933369D01*
X118703362Y-92998173D01*
X118708877Y-93068053D01*
X118712192Y-93137296D01*
X118712962Y-93200187D01*
X118710840Y-93251013D01*
X118710101Y-93258655D01*
X118687621Y-93398115D01*
X118651739Y-93524281D01*
X118602098Y-93637842D01*
X118538347Y-93739488D01*
X118460130Y-93829908D01*
X118381397Y-93898928D01*
X118293274Y-93959319D01*
X118199933Y-94007074D01*
X118098389Y-94043255D01*
X117985657Y-94068921D01*
X117858753Y-94085136D01*
X117857106Y-94085279D01*
X117755004Y-94088740D01*
X117725873Y-94089727D01*
X117596042Y-94080781D01*
X117471461Y-94059042D01*
X117355975Y-94025114D01*
X117285739Y-93995925D01*
X117171932Y-93932497D01*
X117073051Y-93857115D01*
X116989110Y-93769805D01*
X116920122Y-93670588D01*
X116866101Y-93559490D01*
X116827060Y-93436533D01*
X116803014Y-93301743D01*
X116793975Y-93155141D01*
X116793897Y-93139547D01*
X116794130Y-93134342D01*
X117139103Y-93134342D01*
X117140050Y-93175709D01*
X117153782Y-93258367D01*
X117184708Y-93333095D01*
X117232436Y-93399494D01*
X117296578Y-93457164D01*
X117376744Y-93505706D01*
X117472545Y-93544720D01*
X117511141Y-93556455D01*
X117538516Y-93563023D01*
X117568991Y-93567795D01*
X117606085Y-93571025D01*
X117653315Y-93572964D01*
X117714199Y-93573868D01*
X117755004Y-93574016D01*
X117821115Y-93573849D01*
X117871935Y-93572987D01*
X117911295Y-93571105D01*
X117943028Y-93567879D01*
X117970966Y-93562983D01*
X117998940Y-93556094D01*
X118012876Y-93552165D01*
X118096924Y-93521866D01*
X118172341Y-93482815D01*
X118236468Y-93436895D01*
X118286644Y-93385988D01*
X118318381Y-93335978D01*
X118352534Y-93245852D01*
X118368134Y-93160298D01*
X118365189Y-93079265D01*
X118357941Y-93044735D01*
X118325720Y-92958623D01*
X118278110Y-92883649D01*
X118215621Y-92820318D01*
X118138765Y-92769134D01*
X118048051Y-92730604D01*
X118037164Y-92727134D01*
X117983248Y-92714474D01*
X117915829Y-92704779D01*
X117840357Y-92698443D01*
X117762283Y-92695857D01*
X117687056Y-92697414D01*
X117655101Y-92699613D01*
X117537408Y-92716181D01*
X117434395Y-92744022D01*
X117346320Y-92782895D01*
X117273442Y-92832559D01*
X117216023Y-92892776D01*
X117174320Y-92963305D01*
X117148593Y-93043907D01*
X117139103Y-93134342D01*
X116794130Y-93134342D01*
X116800242Y-92998011D01*
X116819614Y-92869290D01*
X116852520Y-92751742D01*
X116899468Y-92643724D01*
X116960963Y-92543593D01*
X116989400Y-92505819D01*
X117032151Y-92458292D01*
X117085665Y-92408141D01*
X117143438Y-92360971D01*
X117198967Y-92322386D01*
X117209899Y-92315802D01*
X117313876Y-92265082D01*
X117428298Y-92226842D01*
X117550213Y-92201027D01*
X117676668Y-92187579D01*
X117804711Y-92186442D01*
X117931391Y-92197560D01*
G37*
G36*
X121412948Y-102721494D02*
G01*
X120848717Y-102721494D01*
X118974319Y-102721494D01*
X118974319Y-101277443D01*
X119615057Y-101277443D01*
X119615057Y-102080756D01*
X120848717Y-102080756D01*
X120848717Y-101277443D01*
X120590509Y-101277443D01*
X120590509Y-101774732D01*
X120313174Y-101774732D01*
X120313174Y-101315696D01*
X120054967Y-101315696D01*
X120054967Y-101775425D01*
X119868483Y-101769951D01*
X119863379Y-101277443D01*
X119615057Y-101277443D01*
X118974319Y-101277443D01*
X118974319Y-101095741D01*
X119615057Y-101095741D01*
X120848717Y-101095741D01*
X120848717Y-100292428D01*
X120590509Y-100292428D01*
X120590509Y-100780154D01*
X119615057Y-100780154D01*
X119615057Y-101095741D01*
X118974319Y-101095741D01*
X118974319Y-99364792D01*
X119615057Y-99364792D01*
X119615057Y-100177669D01*
X120848717Y-100177669D01*
X120848717Y-99364792D01*
X120590509Y-99364792D01*
X120590509Y-99862082D01*
X120313521Y-99862082D01*
X120310957Y-99634954D01*
X120308393Y-99407827D01*
X120195084Y-99405441D01*
X120181680Y-99405159D01*
X120054967Y-99402490D01*
X120054967Y-99862082D01*
X119863701Y-99862082D01*
X119863701Y-99364792D01*
X119615057Y-99364792D01*
X118974319Y-99364792D01*
X118974319Y-98677854D01*
X119589175Y-98677854D01*
X119597812Y-98777711D01*
X119619535Y-98872084D01*
X119653563Y-98957163D01*
X119682737Y-99006895D01*
X119735799Y-99070302D01*
X119803414Y-99128579D01*
X119881125Y-99178712D01*
X119964478Y-99217686D01*
X120021495Y-99236115D01*
X120103264Y-99251250D01*
X120195084Y-99257601D01*
X120291192Y-99255495D01*
X120385825Y-99245261D01*
X120473221Y-99227225D01*
X120535340Y-99206887D01*
X120620763Y-99162530D01*
X120696510Y-99103032D01*
X120760592Y-99030762D01*
X120811020Y-98948093D01*
X120845805Y-98857396D01*
X120853106Y-98827999D01*
X120864016Y-98752451D01*
X120867045Y-98668622D01*
X120862321Y-98584816D01*
X120849973Y-98509340D01*
X120848041Y-98501453D01*
X120833514Y-98452534D01*
X120814301Y-98398222D01*
X120794508Y-98350107D01*
X120794112Y-98349238D01*
X120759986Y-98274582D01*
X120608304Y-98274582D01*
X120551412Y-98274680D01*
X120510876Y-98275217D01*
X120483929Y-98276557D01*
X120467800Y-98279066D01*
X120459721Y-98283108D01*
X120456923Y-98289048D01*
X120456623Y-98294556D01*
X120462694Y-98311596D01*
X120478584Y-98336825D01*
X120500104Y-98363889D01*
X120526556Y-98398064D01*
X120554571Y-98440751D01*
X120578202Y-98482872D01*
X120578753Y-98483976D01*
X120597062Y-98522983D01*
X120607711Y-98553719D01*
X120612729Y-98584402D01*
X120614145Y-98623250D01*
X120614165Y-98627424D01*
X120606365Y-98704307D01*
X120582820Y-98770827D01*
X120544130Y-98826549D01*
X120490899Y-98871036D01*
X120423728Y-98903852D01*
X120343221Y-98924562D01*
X120249980Y-98932729D01*
X120193634Y-98931725D01*
X120102032Y-98920326D01*
X120022768Y-98896604D01*
X119956703Y-98861268D01*
X119904695Y-98815031D01*
X119867604Y-98758603D01*
X119846290Y-98692696D01*
X119841199Y-98640086D01*
X119844793Y-98581312D01*
X119858384Y-98526612D01*
X119883719Y-98471445D01*
X119922544Y-98411273D01*
X119936570Y-98392246D01*
X119964556Y-98352902D01*
X119985120Y-98319438D01*
X119996220Y-98295336D01*
X119997587Y-98288182D01*
X119997587Y-98265018D01*
X119863701Y-98265018D01*
X119700845Y-98265018D01*
X119681919Y-98296099D01*
X119659399Y-98340911D01*
X119637338Y-98398630D01*
X119617660Y-98463092D01*
X119602291Y-98528132D01*
X119594405Y-98576322D01*
X119589175Y-98677854D01*
X118974319Y-98677854D01*
X118974319Y-97232187D01*
X119615057Y-97232187D01*
X119615057Y-98236329D01*
X119863701Y-98236329D01*
X119863701Y-97892051D01*
X120848717Y-97892051D01*
X120848717Y-97576464D01*
X119863701Y-97576464D01*
X119863701Y-97232187D01*
X119615057Y-97232187D01*
X118974319Y-97232187D01*
X118974319Y-97136555D01*
X119615057Y-97136555D01*
X120225511Y-97136555D01*
X120331841Y-97136457D01*
X120432485Y-97136176D01*
X120525820Y-97135729D01*
X120610220Y-97135132D01*
X120684060Y-97134402D01*
X120745716Y-97133555D01*
X120793563Y-97132609D01*
X120825975Y-97131581D01*
X120841329Y-97130486D01*
X120842341Y-97130179D01*
X120844514Y-97118897D01*
X120846369Y-97091890D01*
X120847768Y-97052558D01*
X120848574Y-97004302D01*
X120848717Y-96972385D01*
X120848717Y-96820967D01*
X120398196Y-96820967D01*
X120401110Y-96775715D01*
X120404025Y-96730463D01*
X120626281Y-96567715D01*
X120848537Y-96404966D01*
X120848627Y-96216091D01*
X120848309Y-96158365D01*
X120847372Y-96107790D01*
X120845922Y-96067241D01*
X120844069Y-96039594D01*
X120841919Y-96027724D01*
X120841544Y-96027481D01*
X120832531Y-96033187D01*
X120810228Y-96049267D01*
X120776445Y-96074359D01*
X120732995Y-96107099D01*
X120681689Y-96146125D01*
X120624338Y-96190075D01*
X120580945Y-96223518D01*
X120512389Y-96276437D01*
X120457366Y-96318693D01*
X120414280Y-96351322D01*
X120381538Y-96375363D01*
X120357543Y-96391854D01*
X120340700Y-96401834D01*
X120329415Y-96406340D01*
X120322092Y-96406412D01*
X120317135Y-96403087D01*
X120313203Y-96397783D01*
X120289558Y-96367045D01*
X120272206Y-96347841D01*
X120257818Y-96331917D01*
X120223492Y-96297988D01*
X120192088Y-96270844D01*
X120178365Y-96261025D01*
X120123450Y-96235115D01*
X120056956Y-96217587D01*
X119984784Y-96209061D01*
X119912834Y-96210156D01*
X119847009Y-96221493D01*
X119835202Y-96225010D01*
X119785824Y-96248668D01*
X119736450Y-96285750D01*
X119692775Y-96331415D01*
X119667925Y-96367115D01*
X119654320Y-96392577D01*
X119643228Y-96419434D01*
X119634401Y-96449885D01*
X119627593Y-96486129D01*
X119622559Y-96530365D01*
X119619051Y-96584792D01*
X119616824Y-96651608D01*
X119615632Y-96733014D01*
X119615228Y-96831207D01*
X119615223Y-96837703D01*
X119615057Y-97136555D01*
X118974319Y-97136555D01*
X118974319Y-95474297D01*
X119591866Y-95474297D01*
X119594709Y-95540295D01*
X119601879Y-95598163D01*
X119608957Y-95628736D01*
X119647075Y-95725745D01*
X119699409Y-95810364D01*
X119765248Y-95882166D01*
X119843884Y-95940722D01*
X119934608Y-95985604D01*
X120036708Y-96016384D01*
X120149478Y-96032633D01*
X120272206Y-96033925D01*
X120279703Y-96033527D01*
X120392109Y-96021128D01*
X120491070Y-95996891D01*
X120578819Y-95959934D01*
X120657589Y-95909374D01*
X120710976Y-95863107D01*
X120767609Y-95800634D01*
X120809507Y-95735465D01*
X120840648Y-95660960D01*
X120849636Y-95631823D01*
X120859473Y-95582449D01*
X120865416Y-95520918D01*
X120867396Y-95453813D01*
X120865345Y-95387716D01*
X120859196Y-95329210D01*
X120853069Y-95298755D01*
X120825119Y-95216007D01*
X120785522Y-95143244D01*
X120730880Y-95074398D01*
X120722290Y-95065204D01*
X120657745Y-95006334D01*
X120587000Y-94960307D01*
X120506985Y-94925704D01*
X120414627Y-94901104D01*
X120341316Y-94889119D01*
X120225511Y-94881358D01*
X120222156Y-94881133D01*
X120109307Y-94888381D01*
X120004072Y-94910149D01*
X119907750Y-94945723D01*
X119821644Y-94994388D01*
X119747056Y-95055430D01*
X119685285Y-95128135D01*
X119637636Y-95211790D01*
X119609241Y-95290847D01*
X119599137Y-95343240D01*
X119593343Y-95406501D01*
X119591866Y-95474297D01*
X118974319Y-95474297D01*
X118974319Y-93703206D01*
X119615057Y-93703206D01*
X119615057Y-93999553D01*
X120257141Y-94004589D01*
X119936391Y-94176728D01*
X119615642Y-94348866D01*
X119615349Y-94542522D01*
X119615057Y-94736178D01*
X120225511Y-94736178D01*
X120331841Y-94736081D01*
X120432485Y-94735800D01*
X120525820Y-94735353D01*
X120610220Y-94734755D01*
X120684060Y-94734025D01*
X120745716Y-94733179D01*
X120793563Y-94732233D01*
X120825975Y-94731204D01*
X120841329Y-94730110D01*
X120842341Y-94729803D01*
X120844583Y-94718464D01*
X120846479Y-94691528D01*
X120847879Y-94652522D01*
X120848630Y-94604973D01*
X120848717Y-94581677D01*
X120848717Y-94439927D01*
X120449451Y-94437431D01*
X120050185Y-94434936D01*
X120843935Y-94010440D01*
X120843935Y-93708128D01*
X119615057Y-93703206D01*
X118974319Y-93703206D01*
X118974319Y-92890470D01*
X119615057Y-92890470D01*
X119615057Y-93540771D01*
X119843830Y-93540771D01*
X119846593Y-93457093D01*
X119849357Y-93373414D01*
X120229496Y-93370914D01*
X120609635Y-93368413D01*
X120609635Y-93540771D01*
X120848717Y-93540771D01*
X120848717Y-92890470D01*
X120609635Y-92890470D01*
X120609635Y-93062828D01*
X120256754Y-93060507D01*
X120229496Y-93060328D01*
X119849357Y-93057827D01*
X119846593Y-92974149D01*
X119843830Y-92890470D01*
X119615057Y-92890470D01*
X118974319Y-92890470D01*
X118974319Y-92192353D01*
X119592464Y-92192353D01*
X119592522Y-92248079D01*
X119594413Y-92290522D01*
X119598777Y-92325487D01*
X119606251Y-92358777D01*
X119613496Y-92383618D01*
X119652827Y-92481025D01*
X119706323Y-92565657D01*
X119773681Y-92637249D01*
X119854599Y-92695534D01*
X119948773Y-92740248D01*
X120055869Y-92771119D01*
X120113095Y-92779476D01*
X120182303Y-92783945D01*
X120256754Y-92784543D01*
X120329706Y-92781286D01*
X120394418Y-92774188D01*
X120416382Y-92770297D01*
X120518211Y-92740758D01*
X120609344Y-92696262D01*
X120688643Y-92637891D01*
X120754971Y-92566728D01*
X120807191Y-92483856D01*
X120844165Y-92390357D01*
X120853539Y-92354239D01*
X120862022Y-92296957D01*
X120865312Y-92228450D01*
X120863667Y-92155368D01*
X120857346Y-92084360D01*
X120846605Y-92022076D01*
X120839664Y-91996306D01*
X120823747Y-91950363D01*
X120804171Y-91899894D01*
X120789165Y-91864811D01*
X120769140Y-91820767D01*
X120759816Y-91800259D01*
X120608219Y-91800259D01*
X120551334Y-91800363D01*
X120510807Y-91800913D01*
X120483869Y-91802269D01*
X120467752Y-91804790D01*
X120459688Y-91808834D01*
X120456908Y-91814762D01*
X120456623Y-91819922D01*
X120462420Y-91836384D01*
X120477775Y-91862214D01*
X120499630Y-91892401D01*
X120504754Y-91898819D01*
X120559669Y-91976323D01*
X120596018Y-92051118D01*
X120614045Y-92123951D01*
X120613995Y-92195571D01*
X120609867Y-92219951D01*
X120585849Y-92290103D01*
X120546346Y-92349534D01*
X120492310Y-92397305D01*
X120424693Y-92432475D01*
X120380430Y-92446527D01*
X120325071Y-92456098D01*
X120260414Y-92460131D01*
X120192292Y-92458904D01*
X120126539Y-92452696D01*
X120068988Y-92441784D01*
X120033059Y-92429978D01*
X119961377Y-92390871D01*
X119906382Y-92342455D01*
X119868099Y-92284768D01*
X119846555Y-92217846D01*
X119841387Y-92158881D01*
X119846137Y-92102863D01*
X119861441Y-92048550D01*
X119888878Y-91992152D01*
X119930028Y-91929881D01*
X119945529Y-91909168D01*
X119968952Y-91876366D01*
X119986909Y-91847029D01*
X119996627Y-91825869D01*
X119997587Y-91820708D01*
X119996929Y-91813077D01*
X119993116Y-91807628D01*
X119983395Y-91803993D01*
X119965009Y-91801807D01*
X119935204Y-91800700D01*
X119891224Y-91800307D01*
X119844175Y-91800259D01*
X119690763Y-91800259D01*
X119661626Y-91864811D01*
X119630139Y-91943291D01*
X119609115Y-92018529D01*
X119597070Y-92097549D01*
X119592522Y-92187372D01*
X119592464Y-92192353D01*
X118974319Y-92192353D01*
X118974319Y-91188211D01*
X119600889Y-91188211D01*
X119601024Y-91248002D01*
X119601886Y-91292752D01*
X119603925Y-91326544D01*
X119607591Y-91353460D01*
X119613337Y-91377585D01*
X119621612Y-91403001D01*
X119625940Y-91415013D01*
X119665332Y-91500593D01*
X119715179Y-91572169D01*
X119774203Y-91628877D01*
X119841129Y-91669852D01*
X119914679Y-91694227D01*
X119993577Y-91701137D01*
X120041565Y-91696759D01*
X120111280Y-91680626D01*
X120171433Y-91654560D01*
X120223199Y-91617134D01*
X120267754Y-91566921D01*
X120306275Y-91502492D01*
X120339937Y-91422419D01*
X120369916Y-91325276D01*
X120380031Y-91285862D01*
X120393187Y-91236144D01*
X120406975Y-91190613D01*
X120419893Y-91153840D01*
X120430438Y-91130397D01*
X120431885Y-91128069D01*
X120462796Y-91094204D01*
X120497471Y-91079035D01*
X120536160Y-91082455D01*
X120538021Y-91083052D01*
X120573553Y-91103507D01*
X120599526Y-91138841D01*
X120616656Y-91190152D01*
X120620275Y-91209426D01*
X120624742Y-91295164D01*
X120611900Y-91384986D01*
X120582442Y-91476505D01*
X120537057Y-91567334D01*
X120500470Y-91623309D01*
X120482047Y-91652386D01*
X120469602Y-91678533D01*
X120466186Y-91692642D01*
X120466694Y-91700725D01*
X120470065Y-91706482D01*
X120479074Y-91710308D01*
X120496497Y-91712597D01*
X120525107Y-91713744D01*
X120567679Y-91714143D01*
X120617663Y-91714190D01*
X120769140Y-91714190D01*
X120781382Y-91687891D01*
X120799165Y-91644761D01*
X120818181Y-91590723D01*
X120835896Y-91533619D01*
X120849774Y-91481294D01*
X120853259Y-91465545D01*
X120860854Y-91412724D01*
X120865215Y-91348175D01*
X120866338Y-91278457D01*
X120864219Y-91210127D01*
X120858852Y-91149744D01*
X120853507Y-91117324D01*
X120824432Y-91022155D01*
X120780007Y-90937620D01*
X120728064Y-90872275D01*
X120664962Y-90817854D01*
X120595352Y-90780670D01*
X120517989Y-90760305D01*
X120431629Y-90756343D01*
X120392031Y-90759508D01*
X120326272Y-90773799D01*
X120268269Y-90801455D01*
X120217319Y-90843380D01*
X120172721Y-90900476D01*
X120133773Y-90973645D01*
X120099772Y-91063789D01*
X120070018Y-91171811D01*
X120069465Y-91174145D01*
X120053056Y-91239591D01*
X120038230Y-91288621D01*
X120023786Y-91323742D01*
X120008525Y-91347460D01*
X119991245Y-91362282D01*
X119976070Y-91369124D01*
X119936388Y-91374056D01*
X119902115Y-91362332D01*
X119874075Y-91335868D01*
X119853094Y-91296576D01*
X119839997Y-91246370D01*
X119835611Y-91187165D01*
X119840759Y-91120875D01*
X119849457Y-91075542D01*
X119870346Y-91007582D01*
X119901125Y-90944013D01*
X119936571Y-90889337D01*
X119954442Y-90860160D01*
X119966182Y-90833226D01*
X119968897Y-90819755D01*
X119968897Y-90795620D01*
X119823121Y-90798259D01*
X119677344Y-90800899D01*
X119660784Y-90836096D01*
X119636645Y-90896076D01*
X119619244Y-90960697D01*
X119607938Y-91033736D01*
X119602085Y-91118969D01*
X119600889Y-91188211D01*
X118974319Y-91188211D01*
X118974319Y-90126690D01*
X121412948Y-90126690D01*
X121412948Y-102721494D01*
G37*
D12*
%TO.C,U1*%
X143431000Y-70032000D02*
X143431000Y-99242000D01*
X143431000Y-99242000D02*
X145971000Y-99242000D01*
X145971000Y-67492000D02*
X143431000Y-70032000D01*
X145971000Y-67492000D02*
X147241000Y-67492000D01*
X145971000Y-99242000D02*
X145971000Y-104322000D01*
X145971000Y-104322000D02*
X173911000Y-104322000D01*
X153591000Y-101782000D02*
X163751000Y-101782000D01*
X153591000Y-104322000D02*
X153591000Y-101782000D01*
X153591000Y-104322000D02*
X153591000Y-110672000D01*
X153591000Y-110672000D02*
X163751000Y-110672000D01*
X163751000Y-101782000D02*
X163751000Y-104322000D01*
X163751000Y-110672000D02*
X163751000Y-104322000D01*
X171371000Y-67492000D02*
X147241000Y-67492000D01*
X171371000Y-67492000D02*
X173911000Y-70032000D01*
X173911000Y-70032000D02*
X173911000Y-104322000D01*
D13*
X145971000Y-103052000D02*
X144701000Y-103052000D01*
X144701000Y-100512000D01*
X145971000Y-100512000D01*
X145971000Y-103052000D01*
G36*
X145971000Y-103052000D02*
G01*
X144701000Y-103052000D01*
X144701000Y-100512000D01*
X145971000Y-100512000D01*
X145971000Y-103052000D01*
G37*
D14*
%TO.C,U2*%
X140960500Y-95558000D02*
X124960500Y-95558000D01*
X140960500Y-79558000D02*
X124960500Y-79558000D01*
D15*
X143210500Y-94608000D02*
G75*
G03*
X143210500Y-94608000I-100000J0D01*
G01*
%TO.C,G\u002A\u002A\u002A*%
G36*
X119834705Y-83157222D02*
G01*
X119834705Y-83483980D01*
X119251986Y-83483980D01*
X118669267Y-83483980D01*
X118669267Y-83342385D01*
X118669267Y-83200789D01*
X119143066Y-83200789D01*
X119616866Y-83200789D01*
X119616866Y-83015626D01*
X119616866Y-82830463D01*
X119725785Y-82830463D01*
X119834705Y-82830463D01*
X119834705Y-83157222D01*
G37*
G36*
X119834705Y-79230773D02*
G01*
X119834705Y-79508613D01*
X119254709Y-79505795D01*
X118674713Y-79502976D01*
X118671493Y-79429456D01*
X118668272Y-79355935D01*
X119191583Y-79355935D01*
X119714893Y-79355935D01*
X119714893Y-79154434D01*
X119714893Y-78952933D01*
X119774799Y-78952933D01*
X119834705Y-78952933D01*
X119834705Y-79230773D01*
G37*
G36*
X120328560Y-84076871D02*
G01*
X120333653Y-84093760D01*
X120335614Y-84126874D01*
X120335734Y-84142942D01*
X120334643Y-84182653D01*
X120330746Y-84204725D01*
X120323104Y-84213221D01*
X120319396Y-84213740D01*
X120310232Y-84209013D01*
X120305138Y-84192124D01*
X120303178Y-84159010D01*
X120303058Y-84142942D01*
X120304149Y-84103231D01*
X120308046Y-84081159D01*
X120315688Y-84072663D01*
X120319396Y-84072144D01*
X120328560Y-84076871D01*
G37*
G36*
X120328883Y-79589685D02*
G01*
X120333976Y-79607476D01*
X120335702Y-79642143D01*
X120335734Y-79650018D01*
X120334479Y-79687964D01*
X120330031Y-79708338D01*
X120321364Y-79715240D01*
X120319396Y-79715369D01*
X120309909Y-79710350D01*
X120304816Y-79692559D01*
X120303090Y-79657892D01*
X120303058Y-79650018D01*
X120304313Y-79612071D01*
X120308761Y-79591697D01*
X120317427Y-79584795D01*
X120319396Y-79584666D01*
X120328883Y-79589685D01*
G37*
G36*
X120439974Y-83635371D02*
G01*
X120443918Y-83660417D01*
X120444653Y-83680035D01*
X120444653Y-83734494D01*
X120324842Y-83734494D01*
X120270782Y-83733548D01*
X120231222Y-83730876D01*
X120208944Y-83726732D01*
X120205030Y-83723602D01*
X120215386Y-83718543D01*
X120244359Y-83714884D01*
X120288813Y-83712942D01*
X120313950Y-83712710D01*
X120422869Y-83712710D01*
X120422869Y-83669143D01*
X120425285Y-83641860D01*
X120431320Y-83626686D01*
X120433761Y-83625575D01*
X120439974Y-83635371D01*
G37*
G36*
X120439726Y-85312781D02*
G01*
X120443682Y-85338185D01*
X120444653Y-85362839D01*
X120444653Y-85422745D01*
X120324842Y-85422745D01*
X120271213Y-85422278D01*
X120235901Y-85420564D01*
X120215454Y-85417132D01*
X120206419Y-85411511D01*
X120205030Y-85406407D01*
X120208630Y-85398788D01*
X120221816Y-85393897D01*
X120248173Y-85391195D01*
X120291283Y-85390146D01*
X120313950Y-85390069D01*
X120422869Y-85390069D01*
X120422869Y-85346501D01*
X120425285Y-85319219D01*
X120431320Y-85304044D01*
X120433761Y-85302933D01*
X120439726Y-85312781D01*
G37*
G36*
X120378471Y-82166522D02*
G01*
X120413783Y-82168236D01*
X120434230Y-82171668D01*
X120443265Y-82177289D01*
X120444653Y-82182393D01*
X120441231Y-82189706D01*
X120428662Y-82194521D01*
X120403495Y-82197310D01*
X120362275Y-82198542D01*
X120324842Y-82198731D01*
X120271213Y-82198264D01*
X120235901Y-82196550D01*
X120215454Y-82193119D01*
X120206419Y-82187498D01*
X120205030Y-82182393D01*
X120208453Y-82175080D01*
X120221021Y-82170265D01*
X120246189Y-82167477D01*
X120287408Y-82166245D01*
X120324842Y-82166055D01*
X120378471Y-82166522D01*
G37*
G36*
X120223570Y-82992415D02*
G01*
X120226814Y-83015220D01*
X120226814Y-83015626D01*
X120226814Y-83048302D01*
X120335734Y-83048302D01*
X120386525Y-83048842D01*
X120419134Y-83050820D01*
X120437144Y-83054774D01*
X120444138Y-83061240D01*
X120444653Y-83064640D01*
X120441054Y-83072259D01*
X120427867Y-83077150D01*
X120401511Y-83079852D01*
X120358401Y-83080901D01*
X120335734Y-83080978D01*
X120226814Y-83080978D01*
X120226814Y-83113654D01*
X120223659Y-83136597D01*
X120216058Y-83146327D01*
X120215922Y-83146330D01*
X120210434Y-83136193D01*
X120206609Y-83108755D01*
X120205041Y-83068471D01*
X120205030Y-83064640D01*
X120206382Y-83023479D01*
X120210040Y-82994789D01*
X120215412Y-82983027D01*
X120215922Y-82982951D01*
X120223570Y-82992415D01*
G37*
G36*
X120223570Y-80062484D02*
G01*
X120226814Y-80085289D01*
X120226814Y-80085695D01*
X120226814Y-80118371D01*
X120335734Y-80118371D01*
X120386525Y-80118911D01*
X120419134Y-80120889D01*
X120437144Y-80124842D01*
X120444138Y-80131309D01*
X120444653Y-80134709D01*
X120441054Y-80142327D01*
X120427867Y-80147219D01*
X120401511Y-80149920D01*
X120358401Y-80150969D01*
X120335734Y-80151047D01*
X120226814Y-80151047D01*
X120226814Y-80183722D01*
X120223659Y-80206665D01*
X120216058Y-80216396D01*
X120215922Y-80216398D01*
X120210434Y-80206262D01*
X120206609Y-80178824D01*
X120205041Y-80138540D01*
X120205030Y-80134709D01*
X120206382Y-80093547D01*
X120210040Y-80064858D01*
X120215412Y-80053096D01*
X120215922Y-80053019D01*
X120223570Y-80062484D01*
G37*
G36*
X120363677Y-80721904D02*
G01*
X120412402Y-80734596D01*
X120441125Y-80755701D01*
X120449908Y-80785259D01*
X120444455Y-80810387D01*
X120429513Y-80835811D01*
X120409953Y-80852304D01*
X120392198Y-80854672D01*
X120390671Y-80853872D01*
X120379760Y-80840046D01*
X120389263Y-80827650D01*
X120401085Y-80823191D01*
X120418513Y-80809508D01*
X120422013Y-80786786D01*
X120410326Y-80763709D01*
X120409799Y-80763174D01*
X120391267Y-80756148D01*
X120353996Y-80751674D01*
X120300915Y-80750103D01*
X120300880Y-80750103D01*
X120253666Y-80749443D01*
X120224457Y-80747038D01*
X120209501Y-80742246D01*
X120205046Y-80734430D01*
X120205030Y-80733765D01*
X120209034Y-80725503D01*
X120223604Y-80720515D01*
X120252578Y-80718111D01*
X120294889Y-80717588D01*
X120363677Y-80721904D01*
G37*
G36*
X120439563Y-83798875D02*
G01*
X120443496Y-83824792D01*
X120444653Y-83854306D01*
X120444653Y-83919657D01*
X120324842Y-83919657D01*
X120205030Y-83919657D01*
X120205030Y-83854306D01*
X120206684Y-83819496D01*
X120211004Y-83795896D01*
X120215922Y-83788954D01*
X120222418Y-83798689D01*
X120226315Y-83823320D01*
X120226814Y-83837968D01*
X120226814Y-83886981D01*
X120270382Y-83886981D01*
X120313950Y-83886981D01*
X120313950Y-83843414D01*
X120316366Y-83816132D01*
X120322400Y-83800957D01*
X120324842Y-83799846D01*
X120331662Y-83809509D01*
X120335456Y-83833648D01*
X120335734Y-83843414D01*
X120335734Y-83886981D01*
X120379301Y-83886981D01*
X120422869Y-83886981D01*
X120422869Y-83837968D01*
X120425033Y-83808737D01*
X120430506Y-83791203D01*
X120433761Y-83788954D01*
X120439563Y-83798875D01*
G37*
G36*
X120381946Y-78755050D02*
G01*
X120408217Y-78771903D01*
X120424480Y-78788350D01*
X120434219Y-78807230D01*
X120439631Y-78835129D01*
X120442729Y-78875377D01*
X120447111Y-78952933D01*
X120326071Y-78952933D01*
X120223853Y-78952933D01*
X120205030Y-78952933D01*
X120205030Y-78920258D01*
X120223853Y-78920258D01*
X120323361Y-78920258D01*
X120422869Y-78920258D01*
X120422869Y-78878159D01*
X120414691Y-78833503D01*
X120400295Y-78807361D01*
X120379859Y-78787885D01*
X120353773Y-78779752D01*
X120330704Y-78778662D01*
X120284554Y-78785062D01*
X120253703Y-78805721D01*
X120235712Y-78842832D01*
X120230740Y-78868521D01*
X120223853Y-78920258D01*
X120205030Y-78920258D01*
X120205030Y-78891985D01*
X120211668Y-78831174D01*
X120231964Y-78787136D01*
X120266497Y-78759226D01*
X120315842Y-78746800D01*
X120335639Y-78745987D01*
X120381946Y-78755050D01*
G37*
G36*
X120439563Y-83461225D02*
G01*
X120443496Y-83487142D01*
X120444653Y-83516656D01*
X120444653Y-83582007D01*
X120324842Y-83582007D01*
X120205030Y-83582007D01*
X120205030Y-83516656D01*
X120207146Y-83477679D01*
X120212344Y-83456380D01*
X120218907Y-83453739D01*
X120225115Y-83470734D01*
X120228941Y-83503041D01*
X120231784Y-83534288D01*
X120238318Y-83549924D01*
X120253461Y-83556086D01*
X120273105Y-83558158D01*
X120313950Y-83561538D01*
X120313950Y-83511867D01*
X120316688Y-83477799D01*
X120323154Y-83463742D01*
X120330723Y-83470068D01*
X120336769Y-83497148D01*
X120337830Y-83508487D01*
X120341129Y-83537632D01*
X120349277Y-83551564D01*
X120368100Y-83556833D01*
X120382024Y-83558158D01*
X120422869Y-83561538D01*
X120422869Y-83506421D01*
X120424806Y-83475140D01*
X120429765Y-83455168D01*
X120433761Y-83451304D01*
X120439563Y-83461225D01*
G37*
G36*
X120439563Y-80531294D02*
G01*
X120443496Y-80557211D01*
X120444653Y-80586724D01*
X120444653Y-80652076D01*
X120324842Y-80652076D01*
X120205030Y-80652076D01*
X120205030Y-80586724D01*
X120207146Y-80547747D01*
X120212344Y-80526448D01*
X120218907Y-80523807D01*
X120225115Y-80540802D01*
X120228941Y-80573109D01*
X120231784Y-80604356D01*
X120238318Y-80619992D01*
X120253461Y-80626155D01*
X120273105Y-80628226D01*
X120313950Y-80631607D01*
X120313950Y-80581936D01*
X120316688Y-80547867D01*
X120323154Y-80533810D01*
X120330723Y-80540136D01*
X120336769Y-80567217D01*
X120337830Y-80578555D01*
X120341129Y-80607700D01*
X120349277Y-80621633D01*
X120368100Y-80626902D01*
X120382024Y-80628226D01*
X120422869Y-80631607D01*
X120422869Y-80576490D01*
X120424806Y-80545209D01*
X120429765Y-80525237D01*
X120433761Y-80521373D01*
X120439563Y-80531294D01*
G37*
G36*
X120270063Y-84783848D02*
G01*
X120263821Y-84806307D01*
X120248598Y-84831608D01*
X120229454Y-84869220D01*
X120232015Y-84906548D01*
X120249070Y-84936180D01*
X120282713Y-84962699D01*
X120324928Y-84972761D01*
X120368541Y-84964959D01*
X120376658Y-84961204D01*
X120408086Y-84934338D01*
X120423119Y-84898470D01*
X120420633Y-84859804D01*
X120401085Y-84826197D01*
X120385130Y-84803652D01*
X120379301Y-84785930D01*
X120384982Y-84776251D01*
X120398641Y-84780455D01*
X120415205Y-84794984D01*
X120429602Y-84816281D01*
X120432712Y-84823386D01*
X120445955Y-84863244D01*
X120449447Y-84892229D01*
X120443727Y-84918670D01*
X120439563Y-84929062D01*
X120411063Y-84969574D01*
X120368987Y-84994087D01*
X120324842Y-85000930D01*
X120275907Y-84991784D01*
X120238075Y-84967235D01*
X120213226Y-84931614D01*
X120203238Y-84889251D01*
X120209991Y-84844478D01*
X120235363Y-84801625D01*
X120237387Y-84799353D01*
X120257467Y-84778952D01*
X120267343Y-84774388D01*
X120270063Y-84783848D01*
G37*
G36*
X120385126Y-82254314D02*
G01*
X120424537Y-82258565D01*
X120443392Y-82267267D01*
X120442013Y-82281745D01*
X120420718Y-82303322D01*
X120379827Y-82333321D01*
X120349141Y-82353863D01*
X120254044Y-82416413D01*
X120349349Y-82416491D01*
X120396416Y-82417198D01*
X120425484Y-82419654D01*
X120440308Y-82424506D01*
X120444644Y-82432402D01*
X120444653Y-82432908D01*
X120441231Y-82440221D01*
X120428662Y-82445036D01*
X120403495Y-82447824D01*
X120362275Y-82449056D01*
X120324842Y-82449246D01*
X120265203Y-82448284D01*
X120226579Y-82444424D01*
X120208580Y-82436204D01*
X120210815Y-82422164D01*
X120232890Y-82400842D01*
X120274416Y-82370776D01*
X120299331Y-82354012D01*
X120393632Y-82291313D01*
X120299331Y-82288166D01*
X120251922Y-82285790D01*
X120222766Y-82282042D01*
X120208341Y-82276208D01*
X120205030Y-82269105D01*
X120208751Y-82261949D01*
X120222165Y-82257237D01*
X120248653Y-82254517D01*
X120291596Y-82253342D01*
X120324842Y-82253191D01*
X120385126Y-82254314D01*
G37*
G36*
X120392254Y-85479707D02*
G01*
X120415400Y-85497326D01*
X120434544Y-85528923D01*
X120446553Y-85566710D01*
X120448293Y-85602897D01*
X120446019Y-85613354D01*
X120421099Y-85660493D01*
X120382204Y-85691937D01*
X120332221Y-85705543D01*
X120321329Y-85705935D01*
X120278196Y-85696152D01*
X120240864Y-85670297D01*
X120214690Y-85633615D01*
X120205030Y-85592118D01*
X120210456Y-85552146D01*
X120224508Y-85515743D01*
X120243851Y-85490307D01*
X120253641Y-85484312D01*
X120267840Y-85483861D01*
X120268024Y-85496977D01*
X120254515Y-85520827D01*
X120248598Y-85528692D01*
X120229473Y-85567382D01*
X120229410Y-85605630D01*
X120246058Y-85638981D01*
X120277068Y-85662980D01*
X120320090Y-85673171D01*
X120324842Y-85673259D01*
X120364173Y-85667719D01*
X120393996Y-85648616D01*
X120396134Y-85646525D01*
X120417239Y-85613112D01*
X120422894Y-85575321D01*
X120412790Y-85540643D01*
X120401085Y-85526218D01*
X120385679Y-85507054D01*
X120379538Y-85489312D01*
X120383860Y-85479295D01*
X120392254Y-85479707D01*
G37*
G36*
X120366238Y-82499781D02*
G01*
X120388603Y-82509944D01*
X120422567Y-82541295D01*
X120443246Y-82583556D01*
X120448193Y-82629564D01*
X120440360Y-82661643D01*
X120417221Y-82699596D01*
X120383948Y-82723089D01*
X120358782Y-82732073D01*
X120322185Y-82735202D01*
X120309523Y-82736285D01*
X120265846Y-82721762D01*
X120231493Y-82691475D01*
X120210208Y-82648394D01*
X120206000Y-82617001D01*
X120227559Y-82617001D01*
X120235728Y-82650351D01*
X120251912Y-82673263D01*
X120284246Y-82697024D01*
X120322185Y-82704944D01*
X120360361Y-82698740D01*
X120393409Y-82680126D01*
X120415961Y-82650820D01*
X120422869Y-82618596D01*
X120417428Y-82585890D01*
X120406218Y-82561023D01*
X120379141Y-82538947D01*
X120342315Y-82529212D01*
X120302543Y-82531182D01*
X120266626Y-82544218D01*
X120241369Y-82567682D01*
X120236790Y-82576913D01*
X120227559Y-82617001D01*
X120206000Y-82617001D01*
X120205071Y-82610074D01*
X120214704Y-82565692D01*
X120240475Y-82529833D01*
X120277545Y-82505136D01*
X120321079Y-82494239D01*
X120366238Y-82499781D01*
G37*
G36*
X120270353Y-83200459D02*
G01*
X120270382Y-83201794D01*
X120264148Y-83218030D01*
X120249101Y-83240743D01*
X120248598Y-83241385D01*
X120229520Y-83278801D01*
X120232113Y-83315426D01*
X120256430Y-83351851D01*
X120258652Y-83354114D01*
X120295786Y-83379831D01*
X120336007Y-83384497D01*
X120378522Y-83370017D01*
X120407787Y-83344662D01*
X120422650Y-83310411D01*
X120421948Y-83274020D01*
X120404519Y-83242242D01*
X120401085Y-83238911D01*
X120385679Y-83219747D01*
X120379538Y-83202005D01*
X120383860Y-83191988D01*
X120392254Y-83192400D01*
X120410832Y-83206892D01*
X120430168Y-83233892D01*
X120444752Y-83265044D01*
X120448070Y-83277033D01*
X120448387Y-83308801D01*
X120443040Y-83331487D01*
X120416096Y-83375320D01*
X120378328Y-83403637D01*
X120334434Y-83415674D01*
X120289117Y-83410668D01*
X120247077Y-83387855D01*
X120226445Y-83366671D01*
X120208980Y-83328818D01*
X120205295Y-83283423D01*
X120215316Y-83239761D01*
X120227605Y-83218596D01*
X120248685Y-83196748D01*
X120263990Y-83190287D01*
X120270353Y-83200459D01*
G37*
G36*
X120397333Y-81902019D02*
G01*
X120409792Y-81911550D01*
X120431205Y-81940336D01*
X120444890Y-81980951D01*
X120447957Y-82023982D01*
X120446967Y-82032537D01*
X120437021Y-82055588D01*
X120416989Y-82082712D01*
X120410394Y-82089719D01*
X120370130Y-82115542D01*
X120322284Y-82123236D01*
X120272237Y-82112181D01*
X120261070Y-82106966D01*
X120227539Y-82078563D01*
X120208841Y-82039237D01*
X120205712Y-81994674D01*
X120218887Y-81950560D01*
X120237387Y-81923881D01*
X120257391Y-81903435D01*
X120267201Y-81898663D01*
X120270046Y-81908085D01*
X120270063Y-81908894D01*
X120262177Y-81932571D01*
X120253795Y-81941605D01*
X120241079Y-81959932D01*
X120231581Y-81989019D01*
X120230716Y-81993743D01*
X120233376Y-82034643D01*
X120254014Y-82066077D01*
X120289864Y-82085220D01*
X120324842Y-82089812D01*
X120366675Y-82081571D01*
X120398670Y-82059920D01*
X120418379Y-82029467D01*
X120423354Y-81994820D01*
X120411148Y-81960587D01*
X120400416Y-81947547D01*
X120385142Y-81925844D01*
X120381355Y-81908157D01*
X120386084Y-81898087D01*
X120397333Y-81902019D01*
G37*
G36*
X120313796Y-81391377D02*
G01*
X120336268Y-81418375D01*
X120346275Y-81460392D01*
X120346626Y-81471395D01*
X120346626Y-81512539D01*
X120395639Y-81512539D01*
X120427945Y-81514677D01*
X120442660Y-81521947D01*
X120444653Y-81528877D01*
X120441231Y-81536190D01*
X120428662Y-81541005D01*
X120403495Y-81543793D01*
X120362275Y-81545025D01*
X120324842Y-81545215D01*
X120275828Y-81545215D01*
X120205030Y-81545215D01*
X120205030Y-81485309D01*
X120206063Y-81476596D01*
X120226814Y-81476596D01*
X120227992Y-81498684D01*
X120235474Y-81509144D01*
X120255186Y-81512321D01*
X120275828Y-81512539D01*
X120306051Y-81511439D01*
X120320369Y-81505912D01*
X120324638Y-81492623D01*
X120324842Y-81484593D01*
X120320392Y-81454074D01*
X120313567Y-81435579D01*
X120293922Y-81418838D01*
X120266431Y-81415343D01*
X120241336Y-81426205D01*
X120239885Y-81427582D01*
X120230751Y-81447010D01*
X120226818Y-81475790D01*
X120226814Y-81476596D01*
X120206063Y-81476596D01*
X120211120Y-81433951D01*
X120229618Y-81400262D01*
X120260864Y-81383776D01*
X120280656Y-81381836D01*
X120313796Y-81391377D01*
G37*
G36*
X120365031Y-85044204D02*
G01*
X120390780Y-85054560D01*
X120412815Y-85073365D01*
X120432960Y-85097209D01*
X120443961Y-85117422D01*
X120444653Y-85121488D01*
X120447529Y-85146421D01*
X120448994Y-85152278D01*
X120449435Y-85174192D01*
X120446271Y-85188568D01*
X120420807Y-85236024D01*
X120381726Y-85267414D01*
X120335513Y-85279766D01*
X120331642Y-85280801D01*
X120321329Y-85281150D01*
X120278123Y-85271349D01*
X120240777Y-85245441D01*
X120214633Y-85208661D01*
X120205030Y-85167157D01*
X120206420Y-85158120D01*
X120227161Y-85158120D01*
X120237387Y-85198157D01*
X120264771Y-85228232D01*
X120305874Y-85245477D01*
X120335513Y-85248474D01*
X120373115Y-85239344D01*
X120401666Y-85215634D01*
X120418848Y-85182861D01*
X120422344Y-85146543D01*
X120409834Y-85112198D01*
X120398362Y-85098854D01*
X120365848Y-85079239D01*
X120321910Y-85072437D01*
X120299840Y-85072997D01*
X120272970Y-85083905D01*
X120247750Y-85108371D01*
X120230727Y-85138727D01*
X120227161Y-85158120D01*
X120206420Y-85158120D01*
X120213330Y-85113176D01*
X120237677Y-85073726D01*
X120277248Y-85049646D01*
X120328403Y-85041769D01*
X120365031Y-85044204D01*
G37*
G36*
X120444652Y-84569877D02*
G01*
X120444653Y-84570281D01*
X120435524Y-84592962D01*
X120410092Y-84622002D01*
X120395639Y-84634844D01*
X120369308Y-84658207D01*
X120351517Y-84676583D01*
X120346626Y-84684399D01*
X120356365Y-84689521D01*
X120381005Y-84692592D01*
X120395639Y-84692985D01*
X120427945Y-84695123D01*
X120442660Y-84702393D01*
X120444653Y-84709323D01*
X120441231Y-84716636D01*
X120428662Y-84721451D01*
X120403495Y-84724239D01*
X120362275Y-84725471D01*
X120324842Y-84725661D01*
X120271213Y-84725194D01*
X120235901Y-84723480D01*
X120215454Y-84720048D01*
X120206419Y-84714427D01*
X120205030Y-84709323D01*
X120210758Y-84699193D01*
X120230619Y-84693974D01*
X120262213Y-84692513D01*
X120319396Y-84692042D01*
X120262209Y-84640777D01*
X120233630Y-84612471D01*
X120213128Y-84587041D01*
X120205033Y-84569876D01*
X120205027Y-84569579D01*
X120208865Y-84562624D01*
X120221898Y-84567976D01*
X120246410Y-84586941D01*
X120267219Y-84605075D01*
X120329407Y-84660502D01*
X120387030Y-84603595D01*
X120416482Y-84575370D01*
X120433988Y-84561449D01*
X120442420Y-84560172D01*
X120444652Y-84569877D01*
G37*
G36*
X120373978Y-80896664D02*
G01*
X120403758Y-80914985D01*
X120412815Y-80923536D01*
X120432960Y-80947380D01*
X120443961Y-80967594D01*
X120444653Y-80971659D01*
X120447688Y-80996589D01*
X120449236Y-81002450D01*
X120450198Y-81025598D01*
X120448440Y-81033294D01*
X120423855Y-81083755D01*
X120388636Y-81115614D01*
X120341150Y-81130108D01*
X120324842Y-81130995D01*
X120318848Y-81131321D01*
X120277096Y-81121357D01*
X120240522Y-81095167D01*
X120214657Y-81058308D01*
X120206327Y-81022569D01*
X120227354Y-81022569D01*
X120240067Y-81056330D01*
X120267061Y-81082723D01*
X120306140Y-81097205D01*
X120324842Y-81098645D01*
X120366580Y-81090409D01*
X120398557Y-81068797D01*
X120418651Y-81038450D01*
X120424740Y-81004012D01*
X120414702Y-80970124D01*
X120394171Y-80946949D01*
X120354532Y-80927683D01*
X120310726Y-80924822D01*
X120270368Y-80938141D01*
X120253549Y-80951109D01*
X120231116Y-80985981D01*
X120227354Y-81022569D01*
X120206327Y-81022569D01*
X120205030Y-81017003D01*
X120213785Y-80964225D01*
X120239248Y-80924988D01*
X120280215Y-80900434D01*
X120335483Y-80891704D01*
X120337084Y-80891698D01*
X120373978Y-80896664D01*
G37*
G36*
X120270353Y-80270527D02*
G01*
X120270382Y-80271863D01*
X120264148Y-80288099D01*
X120249101Y-80310811D01*
X120248598Y-80311454D01*
X120229901Y-80345426D01*
X120229943Y-80380294D01*
X120239119Y-80405759D01*
X120262385Y-80433118D01*
X120297582Y-80449106D01*
X120337697Y-80453105D01*
X120375715Y-80444496D01*
X120404623Y-80422661D01*
X120406218Y-80420487D01*
X120420589Y-80385251D01*
X120420694Y-80347229D01*
X120406940Y-80315262D01*
X120401085Y-80308980D01*
X120385679Y-80289816D01*
X120379538Y-80272074D01*
X120383860Y-80262057D01*
X120392254Y-80262468D01*
X120410767Y-80276914D01*
X120430155Y-80303888D01*
X120444917Y-80335089D01*
X120448339Y-80347102D01*
X120448183Y-80376710D01*
X120440005Y-80407007D01*
X120413674Y-80449971D01*
X120378059Y-80474527D01*
X120329336Y-80483165D01*
X120322805Y-80483251D01*
X120287377Y-80481264D01*
X120263650Y-80472568D01*
X120241697Y-80453054D01*
X120236813Y-80447680D01*
X120211806Y-80405435D01*
X120203964Y-80358031D01*
X120213672Y-80312123D01*
X120227605Y-80288665D01*
X120248685Y-80266817D01*
X120263990Y-80260356D01*
X120270353Y-80270527D01*
G37*
G36*
X120412980Y-79866035D02*
G01*
X120437341Y-79890069D01*
X120447724Y-79924295D01*
X120441753Y-79963945D01*
X120436390Y-79976241D01*
X120419572Y-80002787D01*
X120403880Y-80017188D01*
X120392993Y-80017055D01*
X120390193Y-80006247D01*
X120397920Y-79986487D01*
X120407088Y-79976314D01*
X120419381Y-79953508D01*
X120420702Y-79928690D01*
X120415428Y-79904917D01*
X120401438Y-79896065D01*
X120385844Y-79895086D01*
X120364183Y-79898254D01*
X120350456Y-79911637D01*
X120339430Y-79937932D01*
X120317506Y-79985160D01*
X120291911Y-80012500D01*
X120263731Y-80019367D01*
X120234051Y-80005175D01*
X120226814Y-79998560D01*
X120208670Y-79966495D01*
X120205723Y-79927716D01*
X120217825Y-79890971D01*
X120228857Y-79876706D01*
X120248052Y-79863688D01*
X120258128Y-79867089D01*
X120256004Y-79882397D01*
X120244270Y-79899297D01*
X120228972Y-79928346D01*
X120230234Y-79958064D01*
X120243014Y-79976661D01*
X120263615Y-79985604D01*
X120283546Y-79976086D01*
X120304289Y-79946942D01*
X120318780Y-79917218D01*
X120335052Y-79883246D01*
X120348494Y-79865049D01*
X120363663Y-79857910D01*
X120377014Y-79856964D01*
X120412980Y-79866035D01*
G37*
G36*
X120407679Y-84361578D02*
G01*
X120432321Y-84376838D01*
X120444412Y-84395912D01*
X120444653Y-84398790D01*
X120447923Y-84416812D01*
X120449702Y-84422519D01*
X120449103Y-84441857D01*
X120440778Y-84469023D01*
X120440021Y-84470793D01*
X120424825Y-84496302D01*
X120408509Y-84510882D01*
X120395491Y-84512141D01*
X120390193Y-84497754D01*
X120398232Y-84477471D01*
X120407227Y-84470940D01*
X120419649Y-84456321D01*
X120420842Y-84428930D01*
X120415889Y-84404324D01*
X120403245Y-84394773D01*
X120385844Y-84393457D01*
X120364381Y-84396529D01*
X120350812Y-84409608D01*
X120339463Y-84437024D01*
X120318471Y-84479454D01*
X120291687Y-84505445D01*
X120262230Y-84513672D01*
X120233219Y-84502813D01*
X120218645Y-84488302D01*
X120206706Y-84458634D01*
X120205886Y-84421588D01*
X120215462Y-84387408D01*
X120226881Y-84371612D01*
X120246898Y-84358132D01*
X120255914Y-84361972D01*
X120252988Y-84381133D01*
X120242338Y-84404446D01*
X120229578Y-84433892D01*
X120229858Y-84454142D01*
X120233606Y-84461694D01*
X120253083Y-84480190D01*
X120274400Y-84477089D01*
X120297381Y-84452484D01*
X120316566Y-84417963D01*
X120334254Y-84383328D01*
X120348377Y-84364388D01*
X120363422Y-84356596D01*
X120378417Y-84355335D01*
X120407679Y-84361578D01*
G37*
G36*
X120407679Y-81693053D02*
G01*
X120432321Y-81708313D01*
X120444412Y-81727387D01*
X120444653Y-81730265D01*
X120447511Y-81748479D01*
X120448994Y-81753994D01*
X120449623Y-81775319D01*
X120446061Y-81794541D01*
X120435653Y-81815479D01*
X120419759Y-81833246D01*
X120403597Y-81843922D01*
X120392380Y-81843589D01*
X120390193Y-81836513D01*
X120397937Y-81816375D01*
X120407088Y-81806160D01*
X120419381Y-81783354D01*
X120420702Y-81758535D01*
X120414455Y-81733680D01*
X120398375Y-81723230D01*
X120388888Y-81721622D01*
X120369981Y-81722419D01*
X120356729Y-81733578D01*
X120343748Y-81760069D01*
X120341683Y-81765190D01*
X120316826Y-81815017D01*
X120290541Y-81843147D01*
X120262747Y-81849624D01*
X120233363Y-81834492D01*
X120226814Y-81828405D01*
X120209288Y-81796962D01*
X120206134Y-81757858D01*
X120217420Y-81719860D01*
X120225877Y-81707078D01*
X120244261Y-81689818D01*
X120254325Y-81690487D01*
X120254476Y-81706295D01*
X120243122Y-81734452D01*
X120242338Y-81735921D01*
X120229578Y-81765367D01*
X120229858Y-81785617D01*
X120233606Y-81793169D01*
X120253083Y-81811665D01*
X120274400Y-81808564D01*
X120297381Y-81783959D01*
X120316566Y-81749439D01*
X120334254Y-81714803D01*
X120348377Y-81695863D01*
X120363422Y-81688071D01*
X120378417Y-81686810D01*
X120407679Y-81693053D01*
G37*
G36*
X120294089Y-81178849D02*
G01*
X120326857Y-81199503D01*
X120328744Y-81201483D01*
X120353391Y-81228077D01*
X120399022Y-81200865D01*
X120426597Y-81185629D01*
X120440432Y-81182027D01*
X120444607Y-81189166D01*
X120444653Y-81190878D01*
X120435967Y-81205883D01*
X120413725Y-81225560D01*
X120395639Y-81237706D01*
X120366267Y-81258981D01*
X120349080Y-81278654D01*
X120346626Y-81286452D01*
X120350910Y-81298605D01*
X120367173Y-81304313D01*
X120395639Y-81305592D01*
X120427945Y-81307730D01*
X120442660Y-81315000D01*
X120444653Y-81321930D01*
X120441231Y-81329243D01*
X120428662Y-81334058D01*
X120403495Y-81336847D01*
X120362275Y-81338079D01*
X120324842Y-81338268D01*
X120275828Y-81338268D01*
X120205030Y-81338268D01*
X120205030Y-81278362D01*
X120205074Y-81277646D01*
X120226814Y-81277646D01*
X120228744Y-81294878D01*
X120238437Y-81303042D01*
X120261744Y-81305476D01*
X120275828Y-81305592D01*
X120305948Y-81304729D01*
X120320212Y-81299242D01*
X120324544Y-81284786D01*
X120324842Y-81269649D01*
X120321098Y-81240787D01*
X120312063Y-81220936D01*
X120311771Y-81220635D01*
X120286022Y-81206438D01*
X120260508Y-81210635D01*
X120239671Y-81230244D01*
X120227954Y-81262287D01*
X120226814Y-81277646D01*
X120205074Y-81277646D01*
X120207541Y-81237114D01*
X120216303Y-81210272D01*
X120226814Y-81196673D01*
X120258961Y-81177821D01*
X120294089Y-81178849D01*
G37*
G36*
X119834705Y-81915541D02*
G01*
X119834705Y-82057136D01*
X119773671Y-82057136D01*
X119712637Y-82057136D01*
X119748062Y-82097484D01*
X119790656Y-82159743D01*
X119821514Y-82233073D01*
X119838951Y-82310972D01*
X119841283Y-82386938D01*
X119834324Y-82430539D01*
X119803916Y-82509064D01*
X119755845Y-82576315D01*
X119692054Y-82630513D01*
X119614486Y-82669878D01*
X119553701Y-82687514D01*
X119524088Y-82691317D01*
X119475394Y-82694530D01*
X119410318Y-82697056D01*
X119331557Y-82698803D01*
X119241809Y-82699677D01*
X119202436Y-82699760D01*
X118908890Y-82699760D01*
X118908890Y-82558165D01*
X118908890Y-82416570D01*
X119184326Y-82416570D01*
X119269254Y-82416489D01*
X119335360Y-82416096D01*
X119385607Y-82415168D01*
X119422958Y-82413479D01*
X119450375Y-82410805D01*
X119470819Y-82406921D01*
X119487255Y-82401604D01*
X119502643Y-82394628D01*
X119507724Y-82392063D01*
X119557139Y-82358794D01*
X119587876Y-82317499D01*
X119602596Y-82264522D01*
X119602997Y-82261173D01*
X119600799Y-82197476D01*
X119580137Y-82142652D01*
X119542642Y-82099402D01*
X119489946Y-82070429D01*
X119487260Y-82069510D01*
X119462110Y-82065109D01*
X119416472Y-82061621D01*
X119351625Y-82059095D01*
X119268849Y-82057585D01*
X119179563Y-82057136D01*
X118908890Y-82057136D01*
X118908890Y-81915541D01*
X118908890Y-81773945D01*
X119371797Y-81773945D01*
X119834705Y-81773945D01*
X119834705Y-81915541D01*
G37*
G36*
X120303727Y-82782096D02*
G01*
X120326412Y-82796771D01*
X120335734Y-82814509D01*
X120340096Y-82827669D01*
X120354851Y-82827817D01*
X120382502Y-82814519D01*
X120401302Y-82803097D01*
X120427499Y-82787481D01*
X120440368Y-82783469D01*
X120444456Y-82790212D01*
X120444653Y-82795007D01*
X120435543Y-82812166D01*
X120411470Y-82833422D01*
X120395639Y-82843890D01*
X120367881Y-82863596D01*
X120350116Y-82881855D01*
X120346626Y-82890101D01*
X120352758Y-82900990D01*
X120373853Y-82905977D01*
X120395639Y-82906707D01*
X120427945Y-82908845D01*
X120442660Y-82916115D01*
X120444653Y-82923045D01*
X120441231Y-82930358D01*
X120428662Y-82935173D01*
X120403495Y-82937961D01*
X120362275Y-82939194D01*
X120324842Y-82939383D01*
X120275828Y-82939383D01*
X120205030Y-82939383D01*
X120205030Y-82884428D01*
X120205686Y-82874809D01*
X120226814Y-82874809D01*
X120228304Y-82894429D01*
X120236710Y-82903722D01*
X120257938Y-82906532D01*
X120275828Y-82906707D01*
X120305945Y-82905885D01*
X120320206Y-82900375D01*
X120324540Y-82885614D01*
X120324842Y-82868968D01*
X120319121Y-82836113D01*
X120303774Y-82819955D01*
X120282069Y-82810778D01*
X120271876Y-82808680D01*
X120251356Y-82818261D01*
X120234608Y-82841862D01*
X120226888Y-82871769D01*
X120226814Y-82874809D01*
X120205686Y-82874809D01*
X120207646Y-82846097D01*
X120217471Y-82820062D01*
X120231765Y-82802739D01*
X120254789Y-82784476D01*
X120274782Y-82776067D01*
X120276049Y-82776004D01*
X120303727Y-82782096D01*
G37*
G36*
X120303727Y-79263999D02*
G01*
X120326412Y-79278675D01*
X120335734Y-79296413D01*
X120340096Y-79309573D01*
X120354851Y-79309721D01*
X120382502Y-79296423D01*
X120401302Y-79285001D01*
X120427447Y-79269267D01*
X120440238Y-79264977D01*
X120444368Y-79271378D01*
X120444653Y-79278041D01*
X120434330Y-79297519D01*
X120404753Y-79319391D01*
X120395639Y-79324450D01*
X120364394Y-79344780D01*
X120348053Y-79363621D01*
X120346626Y-79369531D01*
X120350942Y-79381652D01*
X120367292Y-79387344D01*
X120395639Y-79388611D01*
X120427945Y-79390749D01*
X120442660Y-79398019D01*
X120444653Y-79404949D01*
X120441231Y-79412262D01*
X120428662Y-79417077D01*
X120403495Y-79419865D01*
X120362275Y-79421097D01*
X120324842Y-79421287D01*
X120275828Y-79421287D01*
X120205030Y-79421287D01*
X120205030Y-79366332D01*
X120205686Y-79356713D01*
X120226814Y-79356713D01*
X120228304Y-79376333D01*
X120236710Y-79385626D01*
X120257938Y-79388436D01*
X120275828Y-79388611D01*
X120305945Y-79387789D01*
X120320206Y-79382279D01*
X120324540Y-79367518D01*
X120324842Y-79350872D01*
X120319121Y-79318017D01*
X120303774Y-79301859D01*
X120282069Y-79292682D01*
X120271876Y-79290584D01*
X120251356Y-79300165D01*
X120234608Y-79323765D01*
X120226888Y-79353673D01*
X120226814Y-79356713D01*
X120205686Y-79356713D01*
X120207646Y-79328001D01*
X120217471Y-79301966D01*
X120231765Y-79284642D01*
X120254789Y-79266380D01*
X120274782Y-79257971D01*
X120276049Y-79257908D01*
X120303727Y-79263999D01*
G37*
G36*
X120444653Y-79002684D02*
G01*
X120444653Y-79003316D01*
X120438228Y-79028108D01*
X120431311Y-79038162D01*
X120423661Y-79055234D01*
X120429926Y-79070651D01*
X120444603Y-79106837D01*
X120449752Y-79147189D01*
X120444699Y-79178229D01*
X120422466Y-79209287D01*
X120391542Y-79222643D01*
X120368608Y-79219147D01*
X120357101Y-79217393D01*
X120329607Y-79198312D01*
X120304531Y-79179472D01*
X120278225Y-79176560D01*
X120270223Y-79177884D01*
X120235131Y-79177239D01*
X120213103Y-79159288D01*
X120205050Y-79124802D01*
X120205030Y-79122603D01*
X120211468Y-79087417D01*
X120228974Y-79066208D01*
X120245331Y-79061853D01*
X120257639Y-79069012D01*
X120257608Y-79084042D01*
X120245813Y-79097270D01*
X120243152Y-79098467D01*
X120228562Y-79112999D01*
X120230767Y-79133923D01*
X120242644Y-79148567D01*
X120253975Y-79153002D01*
X120266783Y-79148179D01*
X120328197Y-79148179D01*
X120332070Y-79160000D01*
X120340963Y-79170533D01*
X120368608Y-79190154D01*
X120394224Y-79190071D01*
X120413636Y-79172259D01*
X120422667Y-79138693D01*
X120422869Y-79131806D01*
X120418608Y-79103778D01*
X120408432Y-79085214D01*
X120395423Y-79081562D01*
X120377479Y-79091910D01*
X120357513Y-79110871D01*
X120336075Y-79133979D01*
X120328197Y-79148179D01*
X120266783Y-79148179D01*
X120269380Y-79147201D01*
X120292871Y-79128969D01*
X120314512Y-79109287D01*
X120343374Y-79081785D01*
X120358239Y-79064867D01*
X120361148Y-79054378D01*
X120354141Y-79046159D01*
X120347696Y-79041695D01*
X120330129Y-79024494D01*
X120324842Y-79011231D01*
X120328097Y-79002573D01*
X120341224Y-79005056D01*
X120358629Y-79013414D01*
X120382567Y-79024103D01*
X120398416Y-79022661D01*
X120416972Y-79007813D01*
X120418535Y-79006349D01*
X120436288Y-78990647D01*
X120443364Y-78989615D01*
X120444653Y-79002684D01*
G37*
G36*
X119834705Y-79780721D02*
G01*
X119834705Y-79922316D01*
X119773531Y-79922316D01*
X119712358Y-79922316D01*
X119751276Y-79965393D01*
X119797029Y-80024450D01*
X119825374Y-80083784D01*
X119839438Y-80150935D01*
X119841858Y-80183722D01*
X119841696Y-80232805D01*
X119837762Y-80280642D01*
X119831400Y-80314964D01*
X119798617Y-80392126D01*
X119747353Y-80461696D01*
X119680289Y-80521245D01*
X119600107Y-80568345D01*
X119518838Y-80598111D01*
X119470304Y-80606675D01*
X119408518Y-80610989D01*
X119341596Y-80611046D01*
X119335089Y-80610618D01*
X119277653Y-80606840D01*
X119224803Y-80598363D01*
X119224756Y-80598352D01*
X119143841Y-80570829D01*
X119067905Y-80529601D01*
X119004187Y-80478804D01*
X118990483Y-80464505D01*
X118942249Y-80396361D01*
X118910614Y-80320220D01*
X118895574Y-80239885D01*
X118897130Y-80159157D01*
X118905023Y-80125529D01*
X119143411Y-80125529D01*
X119144656Y-80165930D01*
X119150762Y-80193813D01*
X119164524Y-80218348D01*
X119176373Y-80233743D01*
X119213675Y-80275259D01*
X119248416Y-80301242D01*
X119287727Y-80315669D01*
X119335089Y-80322236D01*
X119415146Y-80321058D01*
X119481604Y-80304327D01*
X119533456Y-80272868D01*
X119569696Y-80227505D01*
X119589319Y-80169062D01*
X119592282Y-80111509D01*
X119587507Y-80066754D01*
X119576764Y-80033834D01*
X119557792Y-80004127D01*
X119513238Y-79962521D01*
X119457411Y-79935562D01*
X119394975Y-79923087D01*
X119330595Y-79924937D01*
X119268935Y-79940950D01*
X119214660Y-79970965D01*
X119172436Y-80014821D01*
X119170641Y-80017501D01*
X119153719Y-80049524D01*
X119145457Y-80084813D01*
X119143411Y-80125529D01*
X118905023Y-80125529D01*
X118915278Y-80081839D01*
X118950016Y-80011732D01*
X118990733Y-79962436D01*
X119032043Y-79922316D01*
X118970466Y-79922316D01*
X118908890Y-79922316D01*
X118908890Y-79780721D01*
X118908890Y-79639126D01*
X119371797Y-79639126D01*
X119834705Y-79639126D01*
X119834705Y-79780721D01*
G37*
G36*
X119401987Y-84691786D02*
G01*
X119500974Y-84725370D01*
X119590238Y-84775533D01*
X119667765Y-84841470D01*
X119731540Y-84922376D01*
X119761596Y-84976175D01*
X119783610Y-85025246D01*
X119800892Y-85073567D01*
X119813964Y-85124662D01*
X119823348Y-85182056D01*
X119829567Y-85249275D01*
X119833143Y-85329842D01*
X119834599Y-85427284D01*
X119834705Y-85469484D01*
X119834393Y-85540248D01*
X119833522Y-85603587D01*
X119832182Y-85656293D01*
X119830467Y-85695160D01*
X119828470Y-85716983D01*
X119827443Y-85720458D01*
X119815471Y-85721844D01*
X119783754Y-85723143D01*
X119734335Y-85724330D01*
X119669251Y-85725379D01*
X119590544Y-85726266D01*
X119500253Y-85726964D01*
X119400419Y-85727448D01*
X119293082Y-85727693D01*
X119244725Y-85727719D01*
X118906539Y-85727719D01*
X118669267Y-85727719D01*
X118669428Y-85452698D01*
X118669521Y-85433637D01*
X118906539Y-85433637D01*
X119246512Y-85433637D01*
X119586484Y-85433637D01*
X119582422Y-85305656D01*
X119580194Y-85249068D01*
X119577013Y-85208627D01*
X119571789Y-85178698D01*
X119563434Y-85153646D01*
X119550861Y-85127835D01*
X119546567Y-85119942D01*
X119500587Y-85056360D01*
X119441855Y-85009883D01*
X119369897Y-84980286D01*
X119284237Y-84967342D01*
X119226276Y-84967464D01*
X119145831Y-84976496D01*
X119080970Y-84995686D01*
X119027214Y-85026711D01*
X118996863Y-85053257D01*
X118963380Y-85092190D01*
X118939579Y-85134463D01*
X118923866Y-85184852D01*
X118914651Y-85248132D01*
X118910892Y-85311102D01*
X118906539Y-85433637D01*
X118669521Y-85433637D01*
X118669920Y-85351611D01*
X118671587Y-85269042D01*
X118674907Y-85201737D01*
X118680360Y-85146441D01*
X118688425Y-85099899D01*
X118699584Y-85058857D01*
X118714314Y-85020061D01*
X118733097Y-84980255D01*
X118741432Y-84964119D01*
X118797306Y-84879053D01*
X118867914Y-84805863D01*
X118949647Y-84747494D01*
X119038896Y-84706890D01*
X119066823Y-84698554D01*
X119182897Y-84677573D01*
X119295289Y-84675585D01*
X119401987Y-84691786D01*
G37*
G36*
X119532453Y-80723176D02*
G01*
X119594142Y-80745116D01*
X119657339Y-80782888D01*
X119716214Y-80831814D01*
X119764939Y-80887214D01*
X119791938Y-80931474D01*
X119827015Y-81027459D01*
X119843403Y-81129080D01*
X119840573Y-81231030D01*
X119828245Y-81294700D01*
X119794862Y-81380352D01*
X119743958Y-81457677D01*
X119678768Y-81523043D01*
X119602526Y-81572818D01*
X119566149Y-81588907D01*
X119508264Y-81604957D01*
X119437719Y-81615612D01*
X119363111Y-81620252D01*
X119293035Y-81618255D01*
X119247918Y-81611879D01*
X119154914Y-81581644D01*
X119072932Y-81534213D01*
X119004129Y-81471577D01*
X118950665Y-81395728D01*
X118914699Y-81308657D01*
X118913117Y-81303022D01*
X118903337Y-81250148D01*
X118898398Y-81186197D01*
X118898311Y-81119252D01*
X118903088Y-81057400D01*
X118912688Y-81008896D01*
X118946946Y-80928813D01*
X118996752Y-80856436D01*
X119058399Y-80795885D01*
X119128178Y-80751278D01*
X119154894Y-80739797D01*
X119188919Y-80727694D01*
X119214970Y-80719571D01*
X119225165Y-80717427D01*
X119229317Y-80727832D01*
X119232580Y-80757121D01*
X119234754Y-80802405D01*
X119235638Y-80860794D01*
X119235648Y-80868166D01*
X119235540Y-80928076D01*
X119234807Y-80969863D01*
X119232839Y-80997187D01*
X119229023Y-81013709D01*
X119222749Y-81023090D01*
X119213405Y-81028991D01*
X119208393Y-81031323D01*
X119174258Y-81057969D01*
X119150749Y-81098457D01*
X119139172Y-81146942D01*
X119140833Y-81197575D01*
X119157038Y-81244511D01*
X119159736Y-81249150D01*
X119193510Y-81285058D01*
X119242280Y-81311624D01*
X119301135Y-81328352D01*
X119365164Y-81334744D01*
X119429454Y-81330304D01*
X119489096Y-81314534D01*
X119538480Y-81287473D01*
X119577313Y-81246337D01*
X119598966Y-81198145D01*
X119603096Y-81147466D01*
X119589355Y-81098873D01*
X119557398Y-81056939D01*
X119556007Y-81055702D01*
X119531222Y-81035786D01*
X119512357Y-81023886D01*
X119507567Y-81022402D01*
X119503411Y-81011980D01*
X119500148Y-80982571D01*
X119497970Y-80936961D01*
X119497068Y-80877936D01*
X119497054Y-80869049D01*
X119497054Y-80715697D01*
X119532453Y-80723176D01*
G37*
G36*
X119424540Y-76740709D02*
G01*
X119495825Y-76748495D01*
X119530788Y-76756464D01*
X119595453Y-76782220D01*
X119660690Y-76820176D01*
X119719104Y-76865361D01*
X119763304Y-76912802D01*
X119763333Y-76912842D01*
X119804283Y-76984470D01*
X119831563Y-77066615D01*
X119844188Y-77153134D01*
X119841170Y-77237885D01*
X119825967Y-77302805D01*
X119804926Y-77351180D01*
X119776607Y-77400121D01*
X119745365Y-77443097D01*
X119715556Y-77473575D01*
X119708809Y-77478496D01*
X119688126Y-77494809D01*
X119685482Y-77505809D01*
X119701933Y-77512274D01*
X119738537Y-77514988D01*
X119758461Y-77515198D01*
X119834705Y-77515198D01*
X119834705Y-77585995D01*
X119834705Y-77656793D01*
X119377871Y-77656793D01*
X119219310Y-77656793D01*
X118603916Y-77656793D01*
X118603916Y-77585995D01*
X118603916Y-77515198D01*
X118846256Y-77515198D01*
X119088597Y-77515198D01*
X119044128Y-77474353D01*
X118981243Y-77403279D01*
X118938247Y-77323619D01*
X118914934Y-77234855D01*
X118913186Y-77189951D01*
X119040926Y-77189951D01*
X119042198Y-77225368D01*
X119056573Y-77300561D01*
X119087989Y-77364579D01*
X119138685Y-77421867D01*
X119143477Y-77426148D01*
X119206894Y-77469773D01*
X119279560Y-77496073D01*
X119364472Y-77506071D01*
X119377871Y-77506228D01*
X119464032Y-77498244D01*
X119538264Y-77473477D01*
X119603882Y-77430703D01*
X119619203Y-77417170D01*
X119670159Y-77355833D01*
X119701544Y-77285746D01*
X119712968Y-77208483D01*
X119704042Y-77125622D01*
X119697530Y-77100558D01*
X119681266Y-77058680D01*
X119656441Y-77021434D01*
X119623014Y-76985665D01*
X119574004Y-76944087D01*
X119524061Y-76916372D01*
X119467740Y-76900727D01*
X119399599Y-76895361D01*
X119351609Y-76896292D01*
X119299225Y-76899646D01*
X119261045Y-76905348D01*
X119229498Y-76915137D01*
X119197013Y-76930752D01*
X119193654Y-76932574D01*
X119128388Y-76979503D01*
X119080774Y-77038825D01*
X119051417Y-77109366D01*
X119040926Y-77189951D01*
X118913186Y-77189951D01*
X118911103Y-77136467D01*
X118911193Y-77134905D01*
X118927012Y-77041333D01*
X118961898Y-76956765D01*
X119014310Y-76883147D01*
X119082708Y-76822422D01*
X119165551Y-76776535D01*
X119207338Y-76761180D01*
X119271460Y-76747180D01*
X119346806Y-76740314D01*
X119424540Y-76740709D01*
G37*
G36*
X119834705Y-77994443D02*
G01*
X119834705Y-78070686D01*
X119751482Y-78070686D01*
X119668259Y-78070686D01*
X119718405Y-78114828D01*
X119760611Y-78161118D01*
X119797812Y-78218913D01*
X119803784Y-78230534D01*
X119822364Y-78271594D01*
X119833564Y-78307541D01*
X119839518Y-78347566D01*
X119842202Y-78396063D01*
X119841927Y-78455344D01*
X119837300Y-78505435D01*
X119831056Y-78533594D01*
X119791111Y-78622188D01*
X119734699Y-78697255D01*
X119663174Y-78757798D01*
X119577887Y-78802819D01*
X119480193Y-78831319D01*
X119415365Y-78840142D01*
X119383206Y-78839852D01*
X119311080Y-78839202D01*
X119214104Y-78819354D01*
X119126425Y-78781649D01*
X119050029Y-78727136D01*
X118986904Y-78656866D01*
X118949111Y-78593741D01*
X118933295Y-78560072D01*
X118923165Y-78532022D01*
X118917465Y-78502909D01*
X118914941Y-78466052D01*
X118914339Y-78414768D01*
X118914336Y-78408579D01*
X118914801Y-78364519D01*
X119040719Y-78364519D01*
X119045360Y-78444349D01*
X119070214Y-78517306D01*
X119115028Y-78582246D01*
X119126462Y-78594271D01*
X119180529Y-78638141D01*
X119241766Y-78666992D01*
X119314366Y-78682319D01*
X119383206Y-78685848D01*
X119431908Y-78684642D01*
X119468535Y-78679654D01*
X119502737Y-78668728D01*
X119543475Y-78650049D01*
X119588370Y-78624288D01*
X119627883Y-78595132D01*
X119649514Y-78573947D01*
X119687427Y-78511780D01*
X119708725Y-78439465D01*
X119712636Y-78361806D01*
X119698388Y-78283605D01*
X119696915Y-78278928D01*
X119663450Y-78209882D01*
X119612057Y-78152052D01*
X119544572Y-78107494D01*
X119543065Y-78106749D01*
X119510167Y-78091865D01*
X119480747Y-78082722D01*
X119447503Y-78077972D01*
X119403131Y-78076266D01*
X119377243Y-78076132D01*
X119325300Y-78076907D01*
X119287834Y-78080119D01*
X119257569Y-78087104D01*
X119227225Y-78099197D01*
X119212115Y-78106410D01*
X119143942Y-78150156D01*
X119092366Y-78205519D01*
X119059248Y-78270435D01*
X119056546Y-78278961D01*
X119040719Y-78364519D01*
X118914801Y-78364519D01*
X118914905Y-78354650D01*
X118917347Y-78316039D01*
X118922766Y-78286293D01*
X118932267Y-78258959D01*
X118944421Y-78232709D01*
X118969789Y-78190824D01*
X119003604Y-78147163D01*
X119028367Y-78121067D01*
X119082228Y-78070686D01*
X119001005Y-78070686D01*
X118919782Y-78070686D01*
X118919782Y-77994443D01*
X118919782Y-77918199D01*
X119377243Y-77918199D01*
X119834705Y-77918199D01*
X119834705Y-77994443D01*
G37*
G36*
X118209641Y-86016006D02*
G01*
X118214854Y-86029882D01*
X118222586Y-86061596D01*
X118232138Y-86107443D01*
X118242812Y-86163717D01*
X118253909Y-86226713D01*
X118264730Y-86292723D01*
X118274578Y-86358042D01*
X118275988Y-86367980D01*
X118292113Y-86510850D01*
X118300807Y-86659729D01*
X118302261Y-86819804D01*
X118298150Y-86963954D01*
X118292715Y-87061496D01*
X118284974Y-87159323D01*
X118275363Y-87254241D01*
X118264314Y-87343052D01*
X118252264Y-87422559D01*
X118239645Y-87489567D01*
X118226893Y-87540878D01*
X118215648Y-87571022D01*
X118195660Y-87595571D01*
X118164566Y-87608507D01*
X118118919Y-87610835D01*
X118088171Y-87608174D01*
X117984217Y-87586507D01*
X117881007Y-87547453D01*
X117782284Y-87493584D01*
X117691790Y-87427471D01*
X117613267Y-87351689D01*
X117550457Y-87268809D01*
X117536741Y-87244042D01*
X117523379Y-87219915D01*
X117495950Y-87159136D01*
X117475451Y-87103379D01*
X117460951Y-87047663D01*
X117451518Y-86987006D01*
X117446221Y-86916428D01*
X117444131Y-86830948D01*
X117443983Y-86795129D01*
X117444237Y-86723585D01*
X117445329Y-86669365D01*
X117447683Y-86628010D01*
X117451719Y-86595065D01*
X117457860Y-86566071D01*
X117466528Y-86536572D01*
X117469246Y-86528277D01*
X117471351Y-86523386D01*
X117536741Y-86523386D01*
X117543804Y-86519508D01*
X117562668Y-86503738D01*
X117589476Y-86479330D01*
X117593688Y-86475366D01*
X117697581Y-86391608D01*
X117818407Y-86320203D01*
X117954621Y-86261968D01*
X118059319Y-86229202D01*
X118102599Y-86217502D01*
X118138524Y-86207784D01*
X118161376Y-86201594D01*
X118165515Y-86200469D01*
X118176426Y-86189082D01*
X118178339Y-86161912D01*
X118172122Y-86120188D01*
X118166824Y-86099064D01*
X118157800Y-86089834D01*
X118138475Y-86089309D01*
X118114939Y-86092466D01*
X118015492Y-86115182D01*
X117914775Y-86153108D01*
X117818003Y-86203383D01*
X117730390Y-86263144D01*
X117657148Y-86329531D01*
X117633561Y-86356654D01*
X117613518Y-86384279D01*
X117590731Y-86419653D01*
X117568484Y-86457121D01*
X117550061Y-86491026D01*
X117538747Y-86515712D01*
X117536741Y-86523386D01*
X117471351Y-86523386D01*
X117517554Y-86416044D01*
X117583643Y-86316202D01*
X117667140Y-86229100D01*
X117767668Y-86155092D01*
X117884854Y-86094529D01*
X117962110Y-86065093D01*
X117999762Y-86053831D01*
X118045012Y-86042388D01*
X118092848Y-86031759D01*
X118138261Y-86022938D01*
X118176238Y-86016917D01*
X118201770Y-86014692D01*
X118209641Y-86016006D01*
G37*
G36*
X119434261Y-83958912D02*
G01*
X119437149Y-84284537D01*
X119464315Y-84280679D01*
X119491526Y-84273213D01*
X119525070Y-84259514D01*
X119533208Y-84255533D01*
X119572338Y-84224726D01*
X119599011Y-84181876D01*
X119612802Y-84132141D01*
X119613282Y-84080679D01*
X119600025Y-84032647D01*
X119572603Y-83993203D01*
X119556022Y-83979950D01*
X119545595Y-83972302D01*
X119538368Y-83962864D01*
X119533754Y-83947873D01*
X119531169Y-83923562D01*
X119530025Y-83886168D01*
X119529737Y-83831924D01*
X119529730Y-83811053D01*
X119529730Y-83659384D01*
X119565129Y-83671476D01*
X119638718Y-83707360D01*
X119706395Y-83760971D01*
X119764219Y-83828340D01*
X119808250Y-83905500D01*
X119815960Y-83924079D01*
X119830934Y-83979493D01*
X119839833Y-84047493D01*
X119842302Y-84119649D01*
X119837987Y-84187528D01*
X119828989Y-84234622D01*
X119792387Y-84327876D01*
X119739407Y-84407706D01*
X119671549Y-84472684D01*
X119590314Y-84521382D01*
X119497201Y-84552369D01*
X119494795Y-84552892D01*
X119458618Y-84557699D01*
X119408850Y-84560451D01*
X119353618Y-84560804D01*
X119326854Y-84559990D01*
X119272257Y-84556804D01*
X119259043Y-84555187D01*
X119232127Y-84551892D01*
X119199145Y-84543642D01*
X119165995Y-84530446D01*
X119143182Y-84519584D01*
X119059327Y-84467822D01*
X118993077Y-84403605D01*
X118944231Y-84326588D01*
X118912588Y-84236426D01*
X118897947Y-84132775D01*
X118896986Y-84102343D01*
X119121578Y-84102343D01*
X119125736Y-84151590D01*
X119139120Y-84191525D01*
X119144250Y-84199569D01*
X119171705Y-84229318D01*
X119205206Y-84255656D01*
X119237795Y-84273764D01*
X119259043Y-84279091D01*
X119266601Y-84277711D01*
X119271998Y-84271491D01*
X119275595Y-84257318D01*
X119277752Y-84232073D01*
X119278831Y-84192642D01*
X119279192Y-84135909D01*
X119279216Y-84104820D01*
X119279135Y-84039726D01*
X119278598Y-83993272D01*
X119277163Y-83962316D01*
X119274387Y-83943713D01*
X119269828Y-83934320D01*
X119263045Y-83930994D01*
X119254709Y-83930590D01*
X119218784Y-83939580D01*
X119181381Y-83962819D01*
X119150351Y-83994869D01*
X119141430Y-84009034D01*
X119126768Y-84052065D01*
X119121578Y-84102343D01*
X118896986Y-84102343D01*
X118896825Y-84097238D01*
X118902238Y-84006514D01*
X118921315Y-83927462D01*
X118955940Y-83853431D01*
X118974170Y-83824328D01*
X119030751Y-83757593D01*
X119101629Y-83702305D01*
X119180265Y-83663553D01*
X119181188Y-83663223D01*
X119214915Y-83654542D01*
X119261948Y-83646620D01*
X119313814Y-83640797D01*
X119330788Y-83639550D01*
X119431374Y-83633286D01*
X119434261Y-83958912D01*
G37*
G36*
X119606542Y-75883557D02*
G01*
X119674558Y-75897822D01*
X119731813Y-75930304D01*
X119778857Y-75981495D01*
X119816240Y-76051891D01*
X119827471Y-76082125D01*
X119840338Y-76141571D01*
X119844575Y-76211839D01*
X119840292Y-76283797D01*
X119827599Y-76348312D01*
X119824124Y-76359335D01*
X119791698Y-76431064D01*
X119748368Y-76491626D01*
X119697112Y-76538049D01*
X119640910Y-76567360D01*
X119607780Y-76575273D01*
X119562406Y-76581359D01*
X119562406Y-76503681D01*
X119563203Y-76462431D01*
X119566252Y-76438626D01*
X119572535Y-76427964D01*
X119580181Y-76426004D01*
X119608291Y-76418106D01*
X119641233Y-76398178D01*
X119671113Y-76371869D01*
X119688211Y-76348702D01*
X119709111Y-76291487D01*
X119718124Y-76228197D01*
X119715423Y-76165298D01*
X119701181Y-76109258D01*
X119680825Y-76072720D01*
X119655710Y-76051164D01*
X119622572Y-76034436D01*
X119618050Y-76032962D01*
X119585543Y-76026284D01*
X119559016Y-76030857D01*
X119541436Y-76038919D01*
X119520374Y-76053446D01*
X119501891Y-76075461D01*
X119484450Y-76108090D01*
X119466514Y-76154458D01*
X119446543Y-76217688D01*
X119436693Y-76251733D01*
X119405085Y-76348920D01*
X119370720Y-76425957D01*
X119332507Y-76484414D01*
X119289350Y-76525861D01*
X119240156Y-76551869D01*
X119224147Y-76556871D01*
X119165747Y-76563428D01*
X119103996Y-76555482D01*
X119059747Y-76539367D01*
X119017689Y-76507878D01*
X118978352Y-76460167D01*
X118945705Y-76401760D01*
X118928891Y-76357245D01*
X118911991Y-76273777D01*
X118910894Y-76191422D01*
X118924392Y-76113310D01*
X118951276Y-76042574D01*
X118990338Y-75982346D01*
X119040370Y-75935757D01*
X119100163Y-75905939D01*
X119103403Y-75904940D01*
X119146122Y-75893420D01*
X119172353Y-75891954D01*
X119186090Y-75903176D01*
X119191327Y-75929720D01*
X119192080Y-75963438D01*
X119191034Y-76003336D01*
X119187082Y-76026439D01*
X119179004Y-76037669D01*
X119173019Y-76040376D01*
X119114280Y-76066201D01*
X119073009Y-76103530D01*
X119048002Y-76154083D01*
X119038056Y-76219581D01*
X119037770Y-76233849D01*
X119040572Y-76290047D01*
X119050848Y-76331260D01*
X119070876Y-76363659D01*
X119093951Y-76386125D01*
X119133846Y-76409869D01*
X119174676Y-76412767D01*
X119214298Y-76398550D01*
X119234352Y-76384701D01*
X119252502Y-76363432D01*
X119270199Y-76331821D01*
X119288890Y-76286948D01*
X119310025Y-76225890D01*
X119327638Y-76170043D01*
X119359988Y-76076642D01*
X119394079Y-76003489D01*
X119431405Y-75949050D01*
X119473458Y-75911793D01*
X119521733Y-75890182D01*
X119577722Y-75882684D01*
X119606542Y-75883557D01*
G37*
G36*
X119643518Y-86010964D02*
G01*
X119803516Y-86011008D01*
X119944295Y-86011106D01*
X120067136Y-86011283D01*
X120173322Y-86011563D01*
X120264134Y-86011971D01*
X120340854Y-86012532D01*
X120404765Y-86013269D01*
X120457148Y-86014207D01*
X120499286Y-86015371D01*
X120532460Y-86016785D01*
X120557953Y-86018474D01*
X120577047Y-86020462D01*
X120591023Y-86022774D01*
X120601164Y-86025433D01*
X120608752Y-86028465D01*
X120615069Y-86031894D01*
X120616857Y-86032973D01*
X120642778Y-86053857D01*
X120663019Y-86083424D01*
X120679778Y-86125993D01*
X120695251Y-86185881D01*
X120695699Y-86187903D01*
X120709526Y-86250532D01*
X120892956Y-86250532D01*
X121076386Y-86250532D01*
X121076386Y-86304992D01*
X121076386Y-86359451D01*
X120900934Y-86359451D01*
X120725482Y-86359451D01*
X120731401Y-86383958D01*
X120735199Y-86406685D01*
X120739638Y-86443493D01*
X120743804Y-86486734D01*
X120744091Y-86490155D01*
X120747357Y-86536151D01*
X120750421Y-86569985D01*
X120756287Y-86593502D01*
X120767958Y-86608546D01*
X120788436Y-86616964D01*
X120820724Y-86620601D01*
X120867826Y-86621301D01*
X120932744Y-86620912D01*
X120956782Y-86620858D01*
X121152629Y-86620858D01*
X121152629Y-86669872D01*
X121152629Y-86718885D01*
X120956574Y-86718885D01*
X120760519Y-86718885D01*
X120760519Y-86827805D01*
X120760519Y-86936724D01*
X120956574Y-86936724D01*
X121152629Y-86936724D01*
X121152629Y-86991184D01*
X121152629Y-87045644D01*
X120952628Y-87045644D01*
X120752627Y-87045644D01*
X120745320Y-87108272D01*
X120739952Y-87151608D01*
X120734300Y-87193239D01*
X120731536Y-87211746D01*
X120725059Y-87252590D01*
X120900722Y-87252590D01*
X121076386Y-87252590D01*
X121076386Y-87306793D01*
X121076386Y-87360995D01*
X120889649Y-87363976D01*
X120702912Y-87366956D01*
X120683161Y-87464983D01*
X120671667Y-87516248D01*
X120660551Y-87550894D01*
X120647838Y-87573956D01*
X120635114Y-87587518D01*
X120606817Y-87612024D01*
X119956373Y-87612024D01*
X119452538Y-87612024D01*
X119266996Y-87611997D01*
X119102053Y-87611902D01*
X118956522Y-87611725D01*
X118829220Y-87611448D01*
X118718961Y-87611054D01*
X118624559Y-87610528D01*
X118544829Y-87609852D01*
X118478585Y-87609010D01*
X118424643Y-87607986D01*
X118381817Y-87606763D01*
X118348922Y-87605324D01*
X118324773Y-87603652D01*
X118308184Y-87601732D01*
X118297969Y-87599547D01*
X118292945Y-87597080D01*
X118292034Y-87595805D01*
X118291211Y-87577726D01*
X118294840Y-87545189D01*
X118302146Y-87504885D01*
X118303089Y-87500501D01*
X118337420Y-87309848D01*
X118360262Y-87108234D01*
X118371045Y-86903551D01*
X118370838Y-86881123D01*
X118631291Y-86881123D01*
X118633564Y-86977921D01*
X118640776Y-87021416D01*
X118660575Y-87093031D01*
X118689974Y-87157858D01*
X118732129Y-87221520D01*
X118790194Y-87289643D01*
X118792864Y-87292510D01*
X118828061Y-87329388D01*
X118853266Y-87352836D01*
X118872815Y-87365833D01*
X118891045Y-87371357D01*
X118909175Y-87372402D01*
X118943394Y-87367727D01*
X118967616Y-87350626D01*
X118973451Y-87343703D01*
X118989047Y-87320031D01*
X118996002Y-87301872D01*
X118996025Y-87301208D01*
X118989379Y-87287652D01*
X118971387Y-87261654D01*
X118944974Y-87227234D01*
X118919865Y-87196481D01*
X118868964Y-87131179D01*
X118833756Y-87073910D01*
X118812309Y-87019904D01*
X118802694Y-86964389D01*
X118802698Y-86906895D01*
X118814408Y-86832359D01*
X118840349Y-86772900D01*
X118882133Y-86725837D01*
X118930842Y-86693825D01*
X118964108Y-86677542D01*
X118991794Y-86668619D01*
X119022443Y-86665463D01*
X119064596Y-86666480D01*
X119074575Y-86667011D01*
X119123966Y-86671311D01*
X119160356Y-86679271D01*
X119192490Y-86693261D01*
X119210724Y-86703891D01*
X119251459Y-86733626D01*
X119280954Y-86767532D01*
X119301001Y-86809693D01*
X119313390Y-86864192D01*
X119319914Y-86935114D01*
X119320797Y-86954804D01*
X119323534Y-87010870D01*
X119327186Y-87049507D01*
X119332523Y-87075072D01*
X119340313Y-87091917D01*
X119346339Y-87099496D01*
X119376126Y-87117143D01*
X119414208Y-87121267D01*
X119451411Y-87111362D01*
X119460686Y-87105821D01*
X119470089Y-87097544D01*
X119476719Y-87085574D01*
X119481222Y-87066071D01*
X119484247Y-87035198D01*
X119486442Y-86989115D01*
X119487856Y-86944913D01*
X119489910Y-86884957D01*
X119492541Y-86841949D01*
X119496593Y-86811057D01*
X119502910Y-86787446D01*
X119512336Y-86766283D01*
X119522091Y-86748875D01*
X119565352Y-86695810D01*
X119623899Y-86658214D01*
X119697791Y-86636051D01*
X119713451Y-86633598D01*
X119800378Y-86629504D01*
X119879078Y-86641300D01*
X119946847Y-86668119D01*
X120000980Y-86709096D01*
X120020046Y-86731752D01*
X120052047Y-86787378D01*
X120068988Y-86847748D01*
X120072304Y-86918796D01*
X120070928Y-86942170D01*
X120062127Y-87011007D01*
X120045646Y-87068609D01*
X120018514Y-87121389D01*
X119977759Y-87175758D01*
X119946347Y-87210933D01*
X119911798Y-87250095D01*
X119885433Y-87284110D01*
X119870100Y-87309110D01*
X119867380Y-87318193D01*
X119877066Y-87347444D01*
X119901610Y-87373512D01*
X119934242Y-87390615D01*
X119956373Y-87394186D01*
X119975263Y-87391778D01*
X119994746Y-87382702D01*
X120018765Y-87364176D01*
X120051264Y-87333419D01*
X120071543Y-87312975D01*
X120141847Y-87229387D01*
X120194693Y-87140722D01*
X120228348Y-87050134D01*
X120236230Y-87012968D01*
X120242795Y-86971435D01*
X120246020Y-86941730D01*
X120245955Y-86915222D01*
X120242651Y-86883280D01*
X120237197Y-86844481D01*
X120213338Y-86747283D01*
X120172420Y-86662950D01*
X120115651Y-86592472D01*
X120044236Y-86536842D01*
X119959382Y-86497050D01*
X119862295Y-86474088D01*
X119779810Y-86468500D01*
X119671599Y-86477005D01*
X119576466Y-86502900D01*
X119505027Y-86540575D01*
X119494332Y-86546215D01*
X119435312Y-86596099D01*
X119386927Y-86645884D01*
X119346687Y-86607072D01*
X119277210Y-86554886D01*
X119196330Y-86520642D01*
X119105575Y-86504751D01*
X119006473Y-86507622D01*
X118986789Y-86510329D01*
X118897762Y-86531224D01*
X118822963Y-86565322D01*
X118757752Y-86614943D01*
X118737848Y-86634800D01*
X118684042Y-86707136D01*
X118648320Y-86790053D01*
X118631291Y-86881123D01*
X118370838Y-86881123D01*
X118369196Y-86703689D01*
X118365578Y-86638087D01*
X118355175Y-86512106D01*
X118341199Y-86384229D01*
X118324517Y-86261143D01*
X118305993Y-86149535D01*
X118295585Y-86096683D01*
X118364293Y-86096683D01*
X118366414Y-86122070D01*
X118371100Y-86151143D01*
X118377908Y-86185180D01*
X119505027Y-86185180D01*
X119687178Y-86185159D01*
X119848750Y-86185081D01*
X119990951Y-86184928D01*
X120114986Y-86184682D01*
X120222061Y-86184325D01*
X120313382Y-86183837D01*
X120390155Y-86183200D01*
X120453585Y-86182396D01*
X120504880Y-86181406D01*
X120545245Y-86180212D01*
X120575886Y-86178794D01*
X120598008Y-86177135D01*
X120612818Y-86175216D01*
X120621522Y-86173019D01*
X120625326Y-86170524D01*
X120625535Y-86167952D01*
X120619546Y-86143416D01*
X120618924Y-86135276D01*
X120611743Y-86116658D01*
X120597140Y-86098045D01*
X120593250Y-86094510D01*
X120588222Y-86091379D01*
X120580783Y-86088629D01*
X120569660Y-86086234D01*
X120553580Y-86084170D01*
X120531269Y-86082412D01*
X120501456Y-86080936D01*
X120462865Y-86079718D01*
X120414226Y-86078731D01*
X120354263Y-86077953D01*
X120281705Y-86077358D01*
X120195277Y-86076922D01*
X120093708Y-86076620D01*
X119975723Y-86076428D01*
X119840050Y-86076320D01*
X119685415Y-86076273D01*
X119510546Y-86076261D01*
X119469825Y-86076261D01*
X119290362Y-86076271D01*
X119131436Y-86076316D01*
X118991801Y-86076420D01*
X118870210Y-86076605D01*
X118765416Y-86076895D01*
X118676172Y-86077311D01*
X118601233Y-86077879D01*
X118539351Y-86078620D01*
X118489280Y-86079557D01*
X118449772Y-86080714D01*
X118419582Y-86082113D01*
X118397463Y-86083779D01*
X118382168Y-86085732D01*
X118372450Y-86087998D01*
X118367063Y-86090598D01*
X118364760Y-86093556D01*
X118364293Y-86096683D01*
X118295585Y-86096683D01*
X118295524Y-86096373D01*
X118280258Y-86023904D01*
X118312745Y-86017407D01*
X118327957Y-86016509D01*
X118363456Y-86015649D01*
X118417748Y-86014834D01*
X118489337Y-86014074D01*
X118576726Y-86013377D01*
X118678420Y-86012751D01*
X118792924Y-86012204D01*
X118918742Y-86011745D01*
X119054377Y-86011382D01*
X119198334Y-86011124D01*
X119349118Y-86010980D01*
X119463017Y-86010950D01*
X119643518Y-86010964D01*
G37*
D12*
%TO.C,J2*%
X124040000Y-97010000D02*
X125460000Y-97010000D01*
X124040000Y-108730000D02*
X124040000Y-97010000D01*
X125460000Y-97010000D02*
X125460000Y-101510000D01*
X126300000Y-98920000D02*
X126900000Y-98920000D01*
X126350000Y-102620000D02*
X126350000Y-108120000D01*
X126350000Y-108120000D02*
X126850000Y-108120000D01*
X126600000Y-99520000D02*
X126300000Y-98920000D01*
X126850000Y-102620000D02*
X126350000Y-102620000D01*
X126850000Y-108120000D02*
X126850000Y-102620000D01*
X126900000Y-98920000D02*
X126600000Y-99520000D01*
X128850000Y-102620000D02*
X128850000Y-108120000D01*
X128850000Y-108120000D02*
X129350000Y-108120000D01*
X129350000Y-102620000D02*
X128850000Y-102620000D01*
X129350000Y-108120000D02*
X129350000Y-102620000D01*
X130350000Y-108730000D02*
X124040000Y-108730000D01*
X130350000Y-108730000D02*
X136660000Y-108730000D01*
X131350000Y-102620000D02*
X131350000Y-108120000D01*
X131350000Y-108120000D02*
X131850000Y-108120000D01*
X131850000Y-102620000D02*
X131350000Y-102620000D01*
X131850000Y-108120000D02*
X131850000Y-102620000D01*
X133850000Y-102620000D02*
X133850000Y-108120000D01*
X133850000Y-108120000D02*
X134350000Y-108120000D01*
X134350000Y-102620000D02*
X133850000Y-102620000D01*
X134350000Y-108120000D02*
X134350000Y-102620000D01*
X135240000Y-97010000D02*
X135240000Y-101510000D01*
X136660000Y-97010000D02*
X135240000Y-97010000D01*
X136660000Y-108730000D02*
X136660000Y-97010000D01*
%TD*%
M02*
